<?xml version="1.0" encoding="UTF-8"?>
<svg width="3406px" height="1454px" viewBox="0 0 3406 1454" version="1.1" xmlns="http://www.w3.org/2000/svg" xmlns:xlink="http://www.w3.org/1999/xlink">
    <title>Group</title>
    <g id="Page-1" stroke="none" stroke-width="1" fill="none" fill-rule="evenodd">
        <g id="shutterstock_1888268899" transform="translate(-199.000000, -264.000000)" fill="#E1ECF8">
            <g id="Group" transform="translate(199.752000, 264.584500)">
                <path d="M1055.728,1222.8355 C1053.938,1222.8355 1052.498,1221.3855 1052.498,1219.6055 L1052.498,1184.1455 C1052.498,1167.3455 1042.748,1142.8455 1031.208,1130.6455 L971.068,1067.0355 C958.358,1053.5855 948.018,1027.5955 948.018,1009.0955 L948.018,955.0855 C948.018,938.2955 938.288,913.7655 926.778,901.5355 L906.708,880.2155 C895.238,868.0255 871.418,857.7355 854.678,857.7355 L846.878,857.7355 C828.418,857.7355 802.128,847.7955 788.284,835.5755 L785.438,833.0655 C772.055,821.2555 750.9,801.3855 738.281,788.7655 L679.431,729.9155 C672.63,723.1135 664.158,719.2205 656.79,719.4825 C652.537,719.6375 649.009,721.2015 646.586,724.0055 C639.621,732.0685 642.959,748.6655 653.875,760.2355 L686.326,794.6555 C693.442,802.2055 695.991,809.5355 693.504,815.2955 C692.17,818.3855 688.118,823.5755 675.976,823.5755 C658.54,823.5755 634.486,812.0955 622.356,797.9855 L565.971,732.3935 C555.396,720.0925 544.157,703.3855 544.157,696.6515 L544.157,687.4805 C544.157,685.6985 545.601,684.2535 547.384,684.2535 C549.166,684.2535 550.61,685.6985 550.61,687.4805 L550.61,696.6515 C550.61,699.9815 558.316,713.5895 570.865,728.1865 L627.249,793.7755 C638.127,806.4355 660.441,817.1255 675.976,817.1255 C682.147,817.1255 686.377,815.5255 687.579,812.7355 C688.941,809.5855 686.717,804.4755 681.632,799.0855 L649.18,764.6655 C635.872,750.5555 632.518,730.4185 641.702,719.7875 C645.328,715.5905 650.463,713.2555 656.555,713.0335 C665.692,712.7095 675.948,717.3055 683.995,725.3515 L742.844,784.1955 C755.385,796.7455 776.408,816.4955 789.708,828.2255 L792.554,830.7355 C805.178,841.8755 830.048,851.2755 846.878,851.2755 L854.678,851.2755 C873.238,851.2755 898.688,862.2755 911.408,875.7955 L931.478,897.1155 C944.158,910.5855 954.468,936.5955 954.468,955.0855 L954.468,1009.0955 C954.468,1025.8955 964.218,1050.3955 975.758,1062.5955 L1035.898,1126.2155 C1048.608,1139.6555 1058.948,1165.6455 1058.948,1184.1455 L1058.948,1219.6055 C1058.948,1221.3855 1057.508,1222.8355 1055.728,1222.8355" id="Fill-3"></path>
                <path d="M547.384,559.1385 C545.601,559.1385 544.157,557.6945 544.157,555.9115 L544.157,498.3195 C544.157,481.8135 532.235,460.6345 518.125,452.0715 L494.933,437.9985 C480.982,429.5305 461.229,428.2325 451.801,435.1635 C440.782,443.2645 416.866,449.8555 398.49,449.8555 L368.679,449.8555 C349.108,449.8555 333.186,437.5915 333.186,422.5175 C333.186,410.3325 325.046,394.0395 315.41,386.9385 C304.161,378.6505 295.01,361.8955 295.01,349.5885 L295.01,328.9005 C295.01,327.1185 296.454,325.6735 298.236,325.6735 C300.018,325.6735 301.463,327.1185 301.463,328.9005 L301.463,349.5885 C301.463,359.9195 309.603,374.6445 319.238,381.7435 C330.487,390.0335 339.639,408.3245 339.639,422.5175 C339.639,434.0335 352.666,443.4025 368.679,443.4025 L398.49,443.4025 C415.407,443.4025 438.07,437.2475 447.978,429.9635 C459.489,421.5025 482.054,422.6325 498.282,432.4815 L521.473,446.5545 C537.539,456.3045 550.61,479.5265 550.61,498.3195 L550.61,555.9115 C550.61,557.6945 549.166,559.1385 547.384,559.1385" id="Fill-4"></path>
                <path d="M956.938,484.1075 L945.618,484.1075 C929.598,484.1075 916.578,471.0805 916.578,455.0675 L916.578,443.7445 C916.578,431.2905 906.438,421.1585 893.988,421.1585 L845.468,421.1585 C829.458,421.1585 816.428,408.1305 816.428,392.1175 L816.428,352.1815 C816.428,336.2875 829.328,322.4665 845.188,321.3725 L876.658,319.2025 C889.198,318.3375 899.408,307.4045 899.408,294.8315 L899.408,257.7575 C899.408,245.3025 889.938,235.1705 878.308,235.1705 C863.118,235.1705 850.768,222.1435 850.768,206.1305 L850.768,183.3625 C850.768,170.9075 840.658,160.7755 828.238,160.7755 C815.818,160.7755 805.708,170.9075 805.708,183.3625 L805.708,206.1305 C805.708,222.1435 793.04,235.1705 777.464,235.1705 L752.443,235.1705 C750.661,235.1705 749.216,233.7255 749.216,231.9435 C749.216,230.1615 750.661,228.7165 752.443,228.7165 L777.464,228.7165 C789.482,228.7165 799.259,218.5845 799.259,206.1305 L799.259,183.3625 C799.259,167.3495 812.258,154.3215 828.238,154.3215 C844.218,154.3215 857.218,167.3495 857.218,183.3625 L857.218,206.1305 C857.218,218.5845 866.678,228.7165 878.308,228.7165 C893.498,228.7165 905.858,241.7445 905.858,257.7575 L905.858,294.8315 C905.858,310.7265 892.958,324.5475 877.098,325.6405 L845.628,327.8105 C833.088,328.6765 822.878,339.6095 822.878,352.1815 L822.878,392.1175 C822.878,404.5725 833.018,414.7045 845.468,414.7045 L893.988,414.7045 C909.998,414.7045 923.028,427.7325 923.028,443.7445 L923.028,455.0675 C923.028,467.5225 933.158,477.6545 945.618,477.6545 L956.938,477.6545 C969.388,477.6545 979.528,467.5225 979.528,455.0675 L979.528,369.3495 C979.528,354.3795 988.138,333.5875 998.718,323.0015 L1015.148,306.5725 C1025.738,295.9865 1046.528,287.3745 1061.498,287.3745 L1077.118,287.3745 C1093.128,287.3745 1106.158,300.4025 1106.158,316.4145 L1106.158,349.1985 C1106.158,361.6525 1116.288,371.7845 1128.738,371.7845 L1237.408,371.7845 C1239.198,371.7845 1240.638,373.2285 1240.638,375.0115 C1240.638,376.7935 1239.198,378.2375 1237.408,378.2375 L1128.738,378.2375 C1112.728,378.2375 1099.698,365.2105 1099.698,349.1985 L1099.698,316.4145 C1099.698,303.9605 1089.568,293.8275 1077.118,293.8275 L1061.498,293.8275 C1048.228,293.8275 1029.098,301.7535 1019.718,311.1365 L1003.288,327.5655 C993.908,336.9465 985.978,356.0825 985.978,369.3495 L985.978,455.0675 C985.978,471.0805 972.948,484.1075 956.938,484.1075" id="Fill-5"></path>
                <path d="M1568.678,522.8795 L1536.878,522.8795 C1535.098,522.8795 1533.648,521.4345 1533.648,519.6525 C1533.648,517.8705 1535.098,516.4265 1536.878,516.4265 L1568.678,516.4265 C1578.588,516.4265 1586.958,510.8445 1586.958,504.2375 C1586.958,493.9585 1598.058,485.5965 1611.698,485.5965 L1634.978,485.5965 C1645.058,485.5965 1653.268,477.3945 1653.268,467.3115 L1653.268,450.0565 C1653.268,436.4155 1664.358,425.3185 1677.998,425.3185 L1785.678,425.3185 C1796.608,425.3185 1812.378,418.7855 1820.108,411.0525 L1841.928,389.2345 C1845.368,385.7975 1847.258,381.2055 1847.258,376.3055 C1847.258,371.4045 1845.368,366.8125 1841.928,363.3755 L1833.178,354.6165 C1824.268,345.7075 1817.018,328.2105 1817.018,315.6135 L1817.018,299.3625 C1817.018,289.2805 1809.678,281.0775 1800.658,281.0775 C1790.758,281.0775 1775.868,287.6115 1768.138,295.3445 L1738.278,325.2005 C1730.548,332.9325 1724.018,348.7035 1724.018,359.6395 L1724.018,390.9595 C1724.018,404.6005 1712.918,415.6985 1699.278,415.6985 L1694.078,415.6985 C1680.438,415.6985 1669.338,404.6005 1669.338,390.9595 L1669.338,385.7605 C1669.338,380.8025 1668.008,378.4905 1666.858,378.0175 C1665.718,377.5465 1663.138,378.2365 1659.638,381.7425 L1658.918,382.4635 C1654.258,387.1185 1648.048,389.6825 1641.418,389.6825 C1634.798,389.6825 1628.588,387.1185 1623.928,382.4635 L1617.178,375.7135 C1607.538,366.0685 1607.538,350.3745 1617.178,340.7295 L1741.468,216.4375 C1750.378,207.5305 1767.878,200.2825 1780.478,200.2825 L1841.928,200.2825 C1854.528,200.2825 1872.028,207.5305 1880.938,216.4375 L1908.778,244.2855 C1918.428,253.9305 1918.428,269.6245 1908.778,279.2705 L1905.048,283.0055 C1897.318,290.7385 1890.778,303.1005 1890.778,309.9995 C1890.778,315.9755 1895.938,320.8375 1902.268,320.8375 L1916.978,320.8375 C1918.768,320.8375 1920.208,322.2825 1920.208,324.0645 C1920.208,325.8465 1918.768,327.2905 1916.978,327.2905 L1902.268,327.2905 C1892.378,327.2905 1884.328,319.5345 1884.328,309.9995 C1884.328,301.3635 1891.428,287.5015 1900.488,278.4415 L1904.218,274.7065 C1911.348,267.5775 1911.348,255.9775 1904.218,248.8485 L1876.368,221.0015 C1868.638,213.2685 1852.868,206.7355 1841.928,206.7355 L1780.478,206.7355 C1769.538,206.7355 1753.768,213.2685 1746.038,221.0015 L1621.738,345.2925 C1618.308,348.7295 1616.408,353.3215 1616.408,358.2225 C1616.408,363.1215 1618.308,367.7135 1621.738,371.1505 L1628.488,377.9005 C1635.618,385.0285 1647.218,385.0295 1654.348,377.9005 L1655.068,377.1785 C1661.858,370.3935 1666.918,371.0575 1669.328,372.0555 C1671.748,373.0545 1675.788,376.1635 1675.788,385.7605 L1675.788,390.9595 C1675.788,401.0425 1683.988,409.2445 1694.078,409.2445 L1699.278,409.2445 C1709.358,409.2445 1717.558,401.0425 1717.558,390.9595 L1717.558,359.6395 C1717.558,347.0415 1724.808,329.5445 1733.718,320.6365 L1763.568,290.7805 C1772.478,281.8725 1789.118,274.6245 1800.658,274.6245 C1813.238,274.6245 1823.468,285.7225 1823.468,299.3625 L1823.468,315.6135 C1823.468,326.5485 1830.008,342.3205 1837.738,350.0535 L1846.498,358.8125 C1856.138,368.4575 1856.138,384.1525 1846.498,393.7975 L1824.678,415.6165 C1815.768,424.5245 1798.268,431.7715 1785.678,431.7715 L1677.998,431.7715 C1667.918,431.7715 1659.718,439.9735 1659.718,450.0565 L1659.718,467.3115 C1659.718,480.9525 1648.618,492.0495 1634.978,492.0495 L1611.698,492.0495 C1601.788,492.0495 1593.408,497.6315 1593.408,504.2375 C1593.408,514.5165 1582.318,522.8795 1568.678,522.8795" id="Fill-6"></path>
                <path d="M1074.118,1452.4755 L965.308,1452.4755 C963.528,1452.4755 962.078,1451.0255 962.078,1449.2455 C962.078,1447.4655 963.528,1446.0155 965.308,1446.0155 L1074.118,1446.0155 C1087.388,1446.0155 1106.518,1438.0955 1115.898,1428.7155 L1143.688,1400.9155 C1153.068,1391.5355 1160.998,1372.4055 1160.998,1359.1355 L1160.998,1340.4355 C1160.998,1325.4655 1169.608,1304.6755 1180.198,1294.0955 L1248.338,1225.9455 C1249.598,1224.6855 1251.638,1224.6855 1252.908,1225.9455 C1254.158,1227.2055 1254.158,1229.2455 1252.908,1230.5055 L1184.758,1298.6555 C1175.378,1308.0355 1167.448,1327.1755 1167.448,1340.4355 L1167.448,1359.1355 C1167.448,1374.1055 1158.838,1394.8955 1148.248,1405.4855 L1120.458,1433.2755 C1109.878,1443.8555 1089.088,1452.4755 1074.118,1452.4755" id="Fill-7"></path>
                <path d="M2725.798,920.8355 L2541.068,920.8355 C2539.288,920.8355 2537.848,919.3955 2537.848,917.6155 C2537.848,915.8255 2539.288,914.3855 2541.068,914.3855 L2725.798,914.3855 C2739.068,914.3855 2758.208,906.4555 2767.588,897.0755 L2784.328,880.3355 C2794.908,869.7555 2815.708,861.1355 2830.678,861.1355 L2850.378,861.1355 C2865.598,861.1355 2883.128,866.7355 2890.278,873.8855 C2896.158,879.7755 2912.348,884.7455 2925.608,884.7455 L2980.668,884.7455 C2982.448,884.7455 2983.898,886.1955 2983.898,887.9755 C2983.898,889.7555 2982.448,891.2055 2980.668,891.2055 L2925.608,891.2055 C2910.388,891.2055 2892.858,885.6055 2885.708,878.4555 C2879.828,872.5655 2863.648,867.5955 2850.378,867.5955 L2830.678,867.5955 C2817.408,867.5955 2798.268,875.5155 2788.888,884.9055 L2772.148,901.6355 C2761.568,912.2255 2740.778,920.8355 2725.798,920.8355" id="Fill-8"></path>
                <path d="M2969.918,1017.9555 L2834.738,1017.9555 C2819.768,1017.9555 2798.978,1009.3455 2788.398,998.7555 L2772.908,983.2755 C2763.528,973.8955 2744.398,965.9655 2731.128,965.9655 L2712.928,965.9655 C2699.668,965.9655 2680.528,973.8955 2671.148,983.2755 L2656.918,997.5055 C2646.328,1008.0855 2625.538,1016.6955 2610.568,1016.6955 L2546.668,1016.6955 C2531.698,1016.6955 2510.908,1008.0855 2500.318,997.5055 L2481.568,978.7555 C2472.188,969.3755 2453.048,961.4455 2439.788,961.4455 L2306.868,961.4455 C2305.088,961.4455 2303.638,960.0055 2303.638,958.2155 C2303.638,956.4355 2305.088,954.9955 2306.868,954.9955 L2439.788,954.9955 C2454.758,954.9955 2475.548,963.6055 2486.138,974.1855 L2504.878,992.9355 C2514.268,1002.3255 2533.398,1010.2455 2546.668,1010.2455 L2610.568,1010.2455 C2623.838,1010.2455 2642.978,1002.3255 2652.358,992.9355 L2666.588,978.7155 C2677.168,968.1255 2697.958,959.5155 2712.928,959.5155 L2731.128,959.5155 C2746.098,959.5155 2766.888,968.1255 2777.478,978.7155 L2792.958,994.1955 C2802.338,1003.5755 2821.478,1011.5055 2834.738,1011.5055 L2969.918,1011.5055 C2971.698,1011.5055 2973.148,1012.9455 2973.148,1014.7255 C2973.148,1016.5155 2971.698,1017.9555 2969.918,1017.9555" id="Fill-9"></path>
                <path d="M1980.338,645.1145 L1893.278,645.1145 C1878.308,645.1145 1857.518,636.5025 1846.928,625.9165 L1825.988,604.9775 C1817.478,596.4695 1805.958,593.0595 1801.338,597.6855 C1794.658,604.3615 1777.508,609.5915 1762.278,609.5915 L1742.578,609.5915 C1727.608,609.5915 1706.818,600.9785 1696.228,590.3935 L1672.968,567.1235 C1668.698,562.8555 1663.088,560.4195 1657.178,560.2665 C1651.358,560.1075 1645.928,562.2225 1641.948,566.2005 C1631.698,576.4475 1616.908,584.4755 1608.268,584.4755 C1602.398,584.4755 1597.428,590.8185 1597.428,598.3265 C1597.428,609.5235 1584.408,618.6325 1568.388,618.6325 L1523.578,618.6325 C1507.558,618.6325 1494.538,605.6055 1494.538,589.5925 L1494.538,586.9695 C1494.538,574.5145 1484.398,564.3835 1471.948,564.3835 L1349.078,564.3835 C1347.288,564.3835 1345.848,562.9385 1345.848,561.1565 C1345.848,559.3735 1347.288,557.9295 1349.078,557.9295 L1471.948,557.9295 C1487.958,557.9295 1500.988,570.9565 1500.988,586.9695 L1500.988,589.5925 C1500.988,602.0465 1511.118,612.1795 1523.578,612.1795 L1568.388,612.1795 C1580.638,612.1795 1590.978,605.8355 1590.978,598.3265 C1590.978,587.1305 1598.738,578.0215 1608.268,578.0215 C1614.418,578.0215 1627.578,571.4385 1637.378,561.6365 C1642.618,556.3955 1649.718,553.6155 1657.348,553.8155 C1664.918,554.0125 1672.088,557.1185 1677.528,562.5605 L1700.798,585.8295 C1710.178,595.2115 1729.318,603.1375 1742.578,603.1375 L1762.278,603.1375 C1775.548,603.1375 1791.348,598.5505 1796.778,593.1215 C1804.208,585.6975 1819.038,588.9015 1830.548,600.4135 L1851.488,621.3525 C1860.868,630.7345 1880.008,638.6605 1893.278,638.6605 L1980.338,638.6605 C1982.128,638.6605 1983.568,640.1055 1983.568,641.8875 C1983.568,643.6695 1982.128,645.1145 1980.338,645.1145" id="Fill-10"></path>
                <path d="M1980.728,593.0175 C1964.508,593.0175 1950.188,592.4925 1946.938,592.3645 C1932.168,591.7815 1910.478,584.1745 1898.578,575.4065 L1844.728,535.7205 C1843.288,534.6625 1842.988,532.6425 1844.048,531.2085 C1845.098,529.7745 1847.118,529.4675 1848.558,530.5255 L1902.408,570.2115 C1913.238,578.1945 1933.748,585.3855 1947.198,585.9155 C1975.558,587.0335 2020.878,587.0935 2030.188,582.7135 C2036.228,578.6345 2043.448,570.9205 2043.518,570.8425 C2053.748,559.8675 2074.288,550.9375 2089.298,550.9375 L2190.828,550.9375 C2192.618,550.9375 2194.058,552.3825 2194.058,554.1645 C2194.058,555.9465 2192.618,557.3905 2190.828,557.3905 L2089.298,557.3905 C2076.058,557.3905 2057.258,565.5665 2048.238,575.2435 C2047.918,575.5885 2040.278,583.7435 2033.588,588.2025 L2033.248,588.4035 C2025.768,592.1415 2001.668,593.0175 1980.728,593.0175" id="Fill-11"></path>
                <path d="M2241.688,876.1155 L2216.058,876.1155 C2200.898,876.1155 2181.438,866.0655 2172.668,853.7055 L2140.868,808.9155 C2139.828,807.4655 2140.178,805.4555 2141.628,804.4155 C2143.078,803.3855 2145.098,803.7255 2146.128,805.1855 L2177.928,849.9755 C2185.508,860.6455 2202.968,869.6555 2216.058,869.6555 L2241.688,869.6555 C2254.978,869.6555 2274.318,861.8955 2283.918,852.7155 L2312.428,825.4455 C2323.038,815.2855 2343.248,804.0055 2357.468,800.2955 L2373.328,796.1655 C2387.318,792.5155 2410.468,789.5455 2424.928,789.5455 L2519.948,789.5455 C2533.098,789.5455 2551.148,780.8655 2559.358,770.5855 L2666.618,636.3755 C2676.038,624.5895 2695.978,614.9995 2711.068,614.9995 L2737.778,614.9995 C2750.868,614.9995 2768.418,606.0265 2776.078,595.4055 L2819.898,534.6935 C2828.758,522.4135 2848.288,512.4235 2863.438,512.4235 L2884.448,512.4235 C2896.998,512.4235 2907.748,502.2305 2908.428,489.7015 L2911.688,428.8795 C2912.498,413.7875 2923.078,394.7335 2935.288,386.4025 L2956.098,372.1955 C2957.568,371.1905 2959.578,371.5685 2960.588,373.0415 C2961.588,374.5135 2961.208,376.5205 2959.738,377.5255 L2938.928,391.7325 C2928.358,398.9475 2918.838,416.1165 2918.128,429.2245 L2914.868,490.0475 C2914.018,505.9445 2900.368,518.8775 2884.448,518.8775 L2863.438,518.8775 C2850.338,518.8775 2832.798,527.8495 2825.128,538.4705 L2781.308,599.1825 C2772.448,611.4625 2752.918,621.4525 2737.778,621.4525 L2711.068,621.4525 C2697.918,621.4525 2679.868,630.1315 2671.658,640.4045 L2564.398,774.6155 C2554.978,786.4055 2535.038,795.9955 2519.948,795.9955 L2424.928,795.9955 C2410.928,795.9955 2388.508,798.8755 2374.958,802.4055 L2359.098,806.5455 C2345.998,809.9655 2326.668,820.7555 2316.888,830.1155 L2288.378,857.3755 C2277.578,867.7055 2256.628,876.1155 2241.688,876.1155" id="Fill-12"></path>
                <path d="M3401.308,303.8845 L3053.708,303.8845 C3041.128,303.8845 3023.498,296.8255 3014.398,288.1505 L2953.428,230.0375 C2945.498,222.4755 2929.538,216.0865 2918.578,216.0865 L2811.868,216.0865 C2810.088,216.0865 2808.648,214.6415 2808.648,212.8595 C2808.648,211.0775 2810.088,209.6335 2811.868,209.6335 L2918.578,209.6335 C2931.148,209.6335 2948.778,216.6905 2957.888,225.3665 L3018.848,283.4785 C3026.778,291.0415 3042.748,297.4305 3053.708,297.4305 L3401.308,297.4305 C3403.088,297.4305 3404.528,298.8745 3404.528,300.6575 C3404.528,302.4395 3403.088,303.8845 3401.308,303.8845" id="Fill-13"></path>
                <path d="M2661.728,186.9695 C2651.578,186.9695 2640.568,183.7005 2633.538,178.0235 L2581.938,136.3725 C2573.338,129.4375 2556.758,123.5775 2545.708,123.5775 L2409.538,123.5775 C2398.568,123.5775 2382.568,129.9375 2374.598,137.4665 L2331.738,177.9345 L2330.468,177.9435 C2280.938,178.2845 2103.478,178.2845 2055.278,177.9435 C2053.498,177.9305 2052.058,176.4755 2052.07779,174.6935 C2052.088,172.9195 2053.528,171.4895 2055.298,171.4895 C2055.308,171.4895 2055.318,171.4895 2055.328,171.4895 C2103.098,171.8275 2277.948,171.8305 2329.158,171.4985 L2370.168,132.7735 C2379.308,124.1445 2396.968,117.1245 2409.538,117.1245 L2545.708,117.1245 C2558.198,117.1245 2576.268,123.5065 2585.988,131.3515 L2637.588,173.0015 C2645.908,179.7205 2661.508,182.4935 2671.638,179.0575 L2712.588,165.1695 C2724.098,161.2645 2743.348,158.0885 2755.498,158.0885 L2904.148,158.0885 C2905.928,158.0885 2907.378,159.5325 2907.378,161.3145 C2907.378,163.0975 2905.928,164.5415 2904.148,164.5415 L2755.498,164.5415 C2743.938,164.5415 2725.608,167.5645 2714.658,171.2805 L2673.708,185.1695 C2670.108,186.3905 2665.988,186.9695 2661.728,186.9695" id="Fill-14"></path>
                <path d="M1236.068,299.8045 L1222.248,299.8045 C1202.678,299.8045 1186.748,283.8815 1186.748,264.3095 L1186.748,206.2795 C1186.748,190.2665 1173.728,177.2395 1157.708,177.2395 L1089.638,177.2395 C1070.998,177.2395 1046.278,165.4655 1034.528,150.9945 L916.228,5.26050009 C915.098,3.87650009 915.308,1.84450009 916.698,0.72150009 C918.078,-0.40049991 920.108,-0.19149991 921.238,1.19250009 L1039.538,146.9275 C1050.038,159.8605 1072.978,170.7855 1089.638,170.7855 L1157.708,170.7855 C1177.278,170.7855 1193.208,186.7085 1193.208,206.2795 L1193.208,264.3095 C1193.208,280.3225 1206.228,293.3505 1222.248,293.3505 L1236.068,293.3505 C1252.088,293.3505 1265.108,280.3225 1265.108,264.3095 L1265.108,246.4645 C1265.108,226.8935 1281.038,210.9705 1300.608,210.9705 L1450.838,210.9705 C1452.618,210.9705 1454.058,212.4155 1454.058,214.1975 C1454.058,215.9795 1452.618,217.4245 1450.838,217.4245 L1300.608,217.4245 C1284.598,217.4245 1271.568,230.4515 1271.568,246.4645 L1271.568,264.3095 C1271.568,283.8815 1255.648,299.8045 1236.068,299.8045" id="Fill-15"></path>
                <path d="M1934.238,1172.0755 C1933.418,1172.0755 1932.588,1171.7655 1931.958,1171.1355 C1930.698,1169.8755 1930.698,1167.8355 1931.958,1166.5755 L1994.748,1103.7855 C2007.848,1090.6755 2033.588,1080.0155 2052.118,1080.0155 L2157.488,1080.0155 C2159.268,1080.0155 2160.708,1081.4655 2160.708,1083.2455 C2160.708,1085.0255 2159.268,1086.4755 2157.488,1086.4755 L2052.118,1086.4755 C2035.348,1086.4755 2011.168,1096.4855 1999.318,1108.3455 L1936.528,1171.1355 C1935.898,1171.7655 1935.068,1172.0755 1934.238,1172.0755" id="Fill-16"></path>
                <path d="M1821.218,1304.3355 L1819.448,1304.3355 C1800.918,1304.3355 1775.958,1294.4555 1763.798,1282.2955 C1751.648,1270.1455 1741.758,1245.1855 1741.758,1226.6555 L1741.758,924.1155 C1741.758,922.3355 1743.208,920.8955 1744.988,920.8955 C1746.768,920.8955 1748.218,922.3355 1748.218,924.1155 L1748.218,1226.6555 C1748.218,1243.4155 1757.438,1266.8055 1768.368,1277.7355 C1779.288,1288.6555 1802.678,1297.8855 1819.448,1297.8855 L1821.218,1297.8855 C1837.988,1297.8855 1862.168,1287.8755 1874.018,1276.0155 L1985.608,1164.4255 C1986.868,1163.1655 1988.918,1163.1655 1990.178,1164.4255 C1991.438,1165.6855 1991.438,1167.7255 1990.178,1168.9855 L1878.588,1280.5755 C1865.478,1293.6855 1839.748,1304.3355 1821.218,1304.3355" id="Fill-17"></path>
                <path d="M1696.678,1112.9055 C1694.888,1112.9055 1693.448,1111.4655 1693.448,1109.6855 L1693.448,946.9355 C1693.448,937.6355 1685.248,930.0655 1675.168,930.0655 L1593.618,930.0655 C1581.018,930.0655 1563.518,922.8155 1554.608,913.9055 L1441.888,801.1855 C1440.628,799.9255 1440.628,797.8855 1441.888,796.6255 C1443.148,795.3655 1445.188,795.3655 1446.448,796.6255 L1559.178,909.3455 C1566.908,917.0755 1582.678,923.6155 1593.618,923.6155 L1675.168,923.6155 C1688.808,923.6155 1699.898,934.0755 1699.898,946.9355 L1699.898,1109.6855 C1699.898,1111.4655 1698.458,1112.9055 1696.678,1112.9055" id="Fill-18"></path>
                <path d="M1783.608,874.7655 L1752.638,857.0455 L1752.928,835.3955 C1752.918,831.5155 1749.768,824.6455 1745.898,824.655489 C1742.018,824.655489 1738.888,831.5355 1738.888,835.4055 L1739.228,856.5955 L1707.488,874.8555 C1706.278,875.9655 1705.588,877.5255 1705.59789,879.1655 L1705.59789,883.2855 C1705.59789,884.0755 1706.418,884.5955 1707.138,884.2655 L1739.258,875.6555 L1741.448,898.8455 L1730.798,907.8755 C1729.998,908.5555 1729.538,909.5155 1729.538,910.5255 L1729.548,913.0655 C1729.548,913.5555 1730.088,913.8755 1730.568,913.6655 L1745.688,907.1355 L1746.518,907.1355 L1761.648,913.6355 C1762.118,913.8355 1762.668,913.5155 1762.668,913.0255 L1762.668,910.4955 C1762.668,909.4855 1762.208,908.5255 1761.398,907.8455 L1750.548,898.6855 L1752.658,875.8555 L1783.978,884.1755 C1784.688,884.5055 1785.508,883.9855 1785.508,883.1955 L1785.508,879.0755 C1785.508,877.4355 1784.818,875.8755 1783.608,874.7655" id="Fill-19"></path>
                <path d="M1023.198,1263.1055 L1049.008,1277.8755 L1048.768,1295.9155 C1048.768,1299.1455 1051.398,1304.8755 1054.628,1304.86551 C1057.858,1304.86551 1060.468,1299.1355 1060.468,1295.9055 L1060.188,1278.2455 L1086.638,1263.0255 C1087.648,1262.1055 1088.218,1260.8055 1088.218,1259.4355 L1088.208,1256.0055 C1088.208,1255.3455 1087.528,1254.9155 1086.928,1255.1955 L1060.158,1262.3655 L1058.328,1243.0355 L1067.208,1235.5155 C1067.878,1234.9455 1068.258,1234.1455 1068.258,1233.3055 L1068.258,1231.1855 C1068.258,1230.7755 1067.798,1230.5155 1067.398,1230.6855 L1054.808,1236.1355 L1054.108,1236.1355 L1041.498,1230.7155 C1041.108,1230.5455 1040.648,1230.8155 1040.648,1231.2155 L1040.648,1233.3355 C1040.658,1234.1755 1041.038,1234.9755 1041.708,1235.5455 L1050.748,1243.1655 L1048.988,1262.1955 L1022.888,1255.2655 C1022.298,1254.9855 1021.618,1255.4255 1021.618,1256.0755 L1021.618,1259.5155 C1021.618,1260.8755 1022.198,1262.1855 1023.198,1263.1055" id="Fill-20"></path>
                <path d="M2010.488,142.6015 L1995.698,168.4485 L1977.628,168.2035 C1974.388,168.2065 1968.658,170.8365 1968.66799,174.0715 C1968.66799,177.3065 1974.408,179.9225 1977.638,179.9185 L1995.318,179.6385 L2010.558,206.1255 C2011.488,207.1315 2012.788,207.7035 2014.158,207.701505 L2017.598,207.6985 C2018.248,207.6975 2018.688,207.013499 2018.408,206.4175 L2011.218,179.6125 L2030.578,177.7795 L2038.118,186.6655 C2038.688,187.3375 2039.488,187.7195 2040.328,187.7185 L2042.448,187.7165 C2042.848,187.7155 2043.118,187.2595 2042.948,186.8615 L2037.498,174.2465 L2037.488,173.5545 L2042.918,160.9275 C2043.088,160.5295 2042.818,160.0735 2042.418,160.0745 L2040.298,160.0765 C2039.458,160.0775 2038.648,160.4615 2038.088,161.1345 L2030.448,170.1855 L2011.398,168.4255 L2018.338,142.2915 C2018.608,141.6955 2018.178,141.0125 2017.518,141.013499 L2014.078,141.0165 C2012.708,141.0185 2011.408,141.5935 2010.488,142.6015" id="Fill-21"></path>
                <path d="M2774.298,189.2425 L2763.258,208.5335 L2749.768,208.3495 C2747.348,208.3525 2743.078,210.3155 2743.078,212.7295 C2743.078,215.1445 2747.368,217.0975 2749.778,217.0945 L2762.978,216.8855 L2774.348,236.6545 C2775.038,237.4055 2776.008,237.8315 2777.028,237.830502 L2779.598,237.8275 C2780.088,237.8275 2780.418,237.3165 2780.208,236.8725 L2774.848,216.8655 L2789.288,215.4975 L2794.918,222.1305 C2795.338,222.6315 2795.938,222.9165 2796.568,222.9155 L2798.148,222.9135 C2798.448,222.9135 2798.648,222.5735 2798.518,222.2765 L2794.448,212.8615 L2794.448,212.3445 L2798.498,202.9195 C2798.628,202.6225 2798.428,202.2825 2798.128,202.2825 L2796.548,202.2845 C2795.918,202.2855 2795.318,202.5715 2794.888,203.0735 L2789.188,209.8295 L2774.968,208.5155 L2780.148,189.0105 C2780.358,188.5655 2780.028,188.0555 2779.538,188.056499 L2776.978,188.0585 C2775.958,188.0605 2774.978,188.4895 2774.298,189.2425" id="Fill-22"></path>
                <path d="M2499.818,888.9055 L2486.028,913.0055 L2469.178,912.7755 C2466.168,912.7755 2460.818,915.2255 2460.82799,918.2455 C2460.82799,921.2555 2466.178,923.6955 2469.198,923.6955 L2485.678,923.4355 L2499.888,948.1255 C2500.748,949.0655 2501.968,949.5955 2503.238,949.5955 L2506.448,949.5955 C2507.058,949.5955 2507.458,948.9555 2507.198,948.3955 L2500.498,923.4055 L2518.548,921.6955 L2525.568,929.9855 C2526.098,930.6155 2526.848,930.9655 2527.638,930.9655 L2529.608,930.9655 C2529.988,930.9655 2530.238,930.5355 2530.078,930.1655 L2524.998,918.4055 L2524.998,917.7655 L2530.048,905.9855 C2530.208,905.6155 2529.958,905.1955 2529.578,905.1955 L2527.608,905.1955 C2526.818,905.1955 2526.078,905.5555 2525.548,906.1855 L2518.428,914.6255 L2500.658,912.9755 L2507.128,888.6155 C2507.388,888.0555 2506.988,887.4255 2506.368,887.4255 L2503.168,887.4255 C2501.888,887.4255 2500.678,887.9655 2499.818,888.9055" id="Fill-23"></path>
                <path d="M1502.498,253.2975 L1520.288,222.2225 L1542.008,222.5165 C1545.898,222.5125 1552.788,219.3505 1552.788,215.4615 C1552.778,211.5715 1545.878,208.4265 1541.988,208.4305 L1520.738,208.7675 L1502.408,176.9215 C1501.298,175.7125 1499.728,175.0245 1498.088,175.026496 L1493.948,175.0315 C1493.158,175.0325 1492.638,175.8545 1492.978,176.5705 L1501.618,208.7995 L1478.338,211.0025 L1469.278,200.3185 C1468.598,199.5115 1467.628,199.0515 1466.618,199.0535 L1464.068,199.0565 C1463.588,199.0565 1463.268,199.6055 1463.468,200.0835 L1470.028,215.2495 L1470.028,216.0825 L1463.508,231.2645 C1463.298,231.7435 1463.628,232.2905 1464.108,232.2905 L1466.658,232.2875 C1467.668,232.2865 1468.638,231.8255 1469.318,231.0155 L1478.498,220.1335 L1501.408,222.2485 L1493.068,253.6705 C1492.728,254.3875 1493.258,255.2085 1494.048,255.207501 L1498.178,255.2025 C1499.828,255.2015 1501.388,254.5105 1502.498,253.2975" id="Fill-24"></path>
                <path d="M2198.358,1113.0755 L2212.828,1087.7955 L2230.498,1088.0355 C2233.658,1088.0355 2239.268,1085.4655 2239.268,1082.2955 C2239.258,1079.1355 2233.648,1076.5755 2230.488,1076.5755 L2213.188,1076.8555 L2198.288,1050.9455 C2197.378,1049.9655 2196.108,1049.4055 2194.768,1049.4055 L2191.408,1049.4055 C2190.758,1049.4055 2190.338,1050.0755 2190.608,1050.6655 L2197.638,1076.8755 L2178.708,1078.6755 L2171.338,1069.9755 C2170.778,1069.3255 2169.998,1068.9455 2169.168,1068.9455 L2167.098,1068.9555 C2166.698,1068.9555 2166.438,1069.3955 2166.608,1069.7855 L2171.938,1082.1255 L2171.948,1082.8055 L2166.638,1095.1555 C2166.468,1095.5455 2166.738,1095.9855 2167.128,1095.9855 L2169.198,1095.9855 C2170.028,1095.9855 2170.808,1095.6055 2171.368,1094.9555 L2178.838,1086.0955 L2197.468,1087.8155 L2190.678,1113.3755 C2190.408,1113.9655 2190.838,1114.6355 2191.478,1114.6355 L2194.848,1114.6255 C2196.178,1114.6255 2197.458,1114.0655 2198.358,1113.0755" id="Fill-25"></path>
                <path d="M1267.868,394.0225 L1275.908,379.9735 L1285.728,380.1075 C1287.488,380.1055 1290.608,378.6765 1290.59802,376.9175 C1290.59802,375.1595 1287.478,373.7375 1285.718,373.7395 L1276.118,373.8915 L1267.828,359.4945 C1267.328,358.9485 1266.618,358.6375 1265.878,358.638498 L1264.008,358.6405 C1263.648,358.6405 1263.408,359.0125 1263.568,359.3365 L1267.468,373.9065 L1256.948,374.9025 L1252.858,370.0725 C1252.548,369.7065 1252.108,369.4995 1251.648,369.4995 L1250.498,369.5015 C1250.278,369.5015 1250.128,369.7495 1250.228,369.9655 L1253.188,376.8225 L1253.188,377.1985 L1250.238,384.0615 C1250.148,384.2785 1250.298,384.5265 1250.518,384.5255 L1251.668,384.5245 C1252.128,384.5235 1252.558,384.3155 1252.868,383.9495 L1257.018,379.0295 L1267.378,379.9865 L1263.608,394.1915 C1263.458,394.5155 1263.688,394.8865 1264.048,394.8865 L1265.918,394.8845 C1266.658,394.8835 1267.368,394.5705 1267.868,394.0225" id="Fill-26"></path>
                <path d="M2275.358,974.8255 L2267.318,960.7755 L2257.498,960.9155 C2255.738,960.9055 2252.618,959.4755 2252.618,957.7255 C2252.628,955.9655 2255.738,954.5455 2257.498,954.5455 L2267.108,954.6955 L2275.398,940.2955 C2275.898,939.7555 2276.608,939.4455 2277.348,939.4455 L2279.218,939.4455 C2279.578,939.4455 2279.808,939.8155 2279.658,940.1355 L2275.758,954.7055 L2286.278,955.7055 L2290.368,950.8755 C2290.678,950.5155 2291.118,950.3055 2291.578,950.3055 L2292.728,950.3055 C2292.948,950.3055 2293.088,950.5555 2292.998,950.7655 L2290.038,957.6255 L2290.038,958.0055 L2292.978,964.8655 C2293.078,965.0855 2292.928,965.3255 2292.708,965.3255 L2291.558,965.3255 C2291.098,965.3255 2290.668,965.1155 2290.358,964.7555 L2286.198,959.8355 L2275.848,960.7855 L2279.618,974.9955 C2279.768,975.3155 2279.538,975.6855 2279.178,975.6855 L2277.308,975.6855 C2276.568,975.6855 2275.858,975.3755 2275.358,974.8255" id="Fill-27"></path>
                <path d="M1507.408,501.4635 L1499.368,515.5125 L1489.548,515.3785 C1487.788,515.3805 1484.678,516.8095 1484.678,518.5685 C1484.678,520.3265 1487.798,521.7485 1489.558,521.7465 L1499.168,521.5945 L1507.448,535.9915 C1507.948,536.5375 1508.658,536.8485 1509.408,536.847502 L1511.278,536.8465 C1511.628,536.8455 1511.868,536.4735 1511.718,536.1495 L1507.808,521.5805 L1518.328,520.5835 L1522.428,525.4135 C1522.738,525.7795 1523.168,525.9865 1523.628,525.9865 L1524.778,525.9845 C1524.998,525.9845 1525.148,525.7365 1525.058,525.5205 L1522.088,518.6635 L1522.088,518.2875 L1525.038,511.4245 C1525.128,511.2075 1524.988,510.9605 1524.768,510.9605 L1523.608,510.9615 C1523.158,510.9625 1522.718,511.1705 1522.408,511.5365 L1518.258,516.4565 L1507.898,515.4995 L1511.678,501.2945 C1511.828,500.9705 1511.588,500.5995 1511.228,500.5995 L1509.358,500.6025 C1508.618,500.6025 1507.908,500.9155 1507.408,501.4635" id="Fill-28"></path>
                <path d="M1316.528,536.6775 L1305.188,557.0305 L1291.048,557.0025 C1288.518,557.0345 1284.058,559.1425 1284.08785,561.6745 C1284.118,564.2045 1288.628,566.1995 1291.158,566.1675 L1304.988,565.7885 L1317.158,586.3725 C1317.888,587.1515 1318.908,587.5875 1319.978,587.573827 L1322.668,587.5395 C1323.188,587.5335 1323.518,586.9935 1323.298,586.5305 L1317.428,565.6245 L1332.558,564.0165 L1338.538,570.9005 C1338.988,571.4205 1339.618,571.7125 1340.278,571.7035 L1341.928,571.6825 C1342.248,571.6795 1342.458,571.3195 1342.318,571.0105 L1337.938,561.1905 L1337.928,560.6485 L1342.058,550.7215 C1342.188,550.4085 1341.978,550.0545 1341.658,550.0575 L1339.998,550.0785 C1339.348,550.0875 1338.718,550.3945 1338.278,550.9265 L1332.388,558.0765 L1317.468,556.8715 L1322.658,536.3635 C1322.868,535.8945 1322.528,535.3645 1322.008,535.37045 L1319.318,535.4045 C1318.248,535.4185 1317.238,535.8795 1316.528,536.6775" id="Fill-29"></path>
                <path d="M1836.818,497.1475 L1818.108,504.8805 L1808.508,497.2295 C1806.768,495.8855 1802.588,494.9125 1801.248,496.6535 C1799.898,498.3925 1801.898,502.1865 1803.638,503.5305 L1813.258,510.7375 L1810.418,531.3115 C1810.498,532.2375 1810.958,533.0865 1811.698,533.6545 L1813.548,535.0835 C1813.898,535.3575 1814.418,535.1705 1814.518,534.7345 L1821.808,517.3405 L1832.978,524.4105 L1833.328,532.3215 C1833.348,532.9185 1833.628,533.4585 1834.078,533.8075 L1835.218,534.6875 C1835.438,534.8565 1835.768,534.7225 1835.838,534.4375 L1838.158,525.3895 L1838.448,525.0165 L1846.618,520.4895 C1846.878,520.3465 1846.918,519.9905 1846.698,519.8215 L1845.558,518.9415 C1845.108,518.5915 1844.518,518.4635 1843.938,518.5895 L1836.058,520.2745 L1826.558,511.4005 L1841.158,500.2455 C1841.558,500.0405 1841.608,499.4925 1841.258,499.2195 L1839.408,497.7895 C1838.668,497.2225 1837.728,496.9895 1836.818,497.1475" id="Fill-30"></path>
                <path d="M1439.838,760.7755 L1417.588,764.8855 L1408.858,754.2955 C1407.258,752.4155 1402.918,750.3855 1401.048,751.9755 C1399.178,753.5655 1400.478,758.1755 1402.068,760.0555 L1410.908,770.1655 L1403.038,792.0155 C1402.908,793.0455 1403.218,794.0855 1403.888,794.8755 L1405.578,796.8655 C1405.908,797.2455 1406.518,797.1655 1406.718,796.7155 L1418.738,779.3755 L1429.308,789.7055 L1427.858,798.4355 C1427.748,799.0955 1427.918,799.7555 1428.328,800.2355 L1429.378,801.4655 C1429.578,801.7055 1429.968,801.6355 1430.118,801.3355 L1434.748,791.9755 L1435.158,791.6355 L1445.138,788.5855 C1445.458,788.4855 1445.588,788.1055 1445.388,787.8755 L1444.348,786.6455 C1443.938,786.1555 1443.318,785.8755 1442.648,785.8855 L1433.648,785.8955 L1425.308,773.9855 L1443.878,765.1755 C1444.358,765.0355 1444.538,764.4555 1444.218,764.0755 L1442.528,762.0755 C1441.848,761.2855 1440.878,760.8155 1439.838,760.7755" id="Fill-31"></path>
                <path d="M1294.018,1221.2055 L1287.908,1199.4155 L1297.678,1189.7655 C1299.398,1188.0055 1301.038,1183.5055 1299.278,1181.7855 C1297.528,1180.0555 1293.048,1181.7655 1291.328,1183.5255 L1282.048,1193.2455 L1259.578,1187.3755 C1258.548,1187.3455 1257.538,1187.7455 1256.808,1188.4855 L1254.978,1190.3455 C1254.628,1190.7055 1254.768,1191.3055 1255.238,1191.4755 L1273.588,1201.8755 L1264.258,1213.3355 L1255.428,1212.6755 C1254.758,1212.6255 1254.128,1212.8555 1253.678,1213.3155 L1252.548,1214.4655 C1252.338,1214.6855 1252.438,1215.0655 1252.748,1215.1855 L1262.488,1218.9655 L1262.858,1219.3255 L1266.808,1228.9955 C1266.928,1229.3055 1267.318,1229.4055 1267.538,1229.1855 L1268.668,1228.0355 C1269.108,1227.5755 1269.328,1226.9355 1269.268,1226.2755 L1268.438,1217.3055 L1279.558,1207.9355 L1290.008,1225.6255 C1290.178,1226.0955 1290.778,1226.2255 1291.128,1225.8655 L1292.968,1223.9955 C1293.688,1223.2555 1294.078,1222.2455 1294.018,1221.2055" id="Fill-32"></path>
                <path d="M3001.738,371.0735 L2997.878,349.1835 L3008.368,340.6965 C3010.218,339.1495 3012.248,334.9045 3010.698,333.0505 C3009.158,331.1965 3004.618,332.4355 3002.758,333.9825 L2992.758,342.5855 L2971.358,334.6685 C2970.348,334.5325 2969.328,334.8275 2968.548,335.4805 L2966.578,337.1255 C2966.198,337.4405 2966.278,338.0395 2966.718,338.2485 L2983.648,350.1935 L2973.418,360.4885 L2964.848,358.9885 C2964.198,358.8745 2963.558,359.0395 2963.078,359.4415 L2961.858,360.4545 C2961.628,360.6485 2961.698,361.0375 2961.978,361.1835 L2971.138,365.8165 L2971.468,366.2135 L2974.388,376.0465 C2974.478,376.3565 2974.848,376.4905 2975.078,376.2965 L2976.298,375.2835 C2976.778,374.8805 2977.058,374.2775 2977.058,373.6205 L2977.118,364.7805 L2988.888,356.6925 L2997.388,374.9985 C2997.508,375.4725 2998.088,375.6565 2998.468,375.3425 L3000.438,373.6975 C3001.218,373.0445 3001.688,372.0925 3001.738,371.0735" id="Fill-33"></path>
                <path d="M507.343,607.3245 L539.903,625.9595 L539.594,648.7215 C539.599,652.7965 542.911,660.0175 546.987,660.012503 C551.062,660.0075 554.358,652.7795 554.353,648.7045 L554,626.4315 L587.367,607.2325 C588.634,606.0685 589.355,604.4255 589.353004,602.7045 L589.347,598.3705 C589.347,597.5425 588.485,596.9945 587.735,597.3465 L553.967,606.3985 L551.658,582.0135 L562.853,572.5225 C563.699,571.8055 564.18,570.7935 564.179,569.7335 L564.175,567.0645 C564.175,566.5545 563.6,566.2165 563.099,566.4335 L547.208,573.3035 L546.335,573.3045 L530.429,566.4715 C529.927,566.2555 529.353,566.5945 529.353,567.1045 L529.357,569.7735 C529.358,570.8335 529.841,571.8445 530.689,572.5595 L542.092,582.1815 L539.874,606.1835 L506.952,597.4395 C506.201,597.0895 505.341,597.6395 505.341999,598.4675 L505.347,602.8015 C505.348,604.5225 506.073,606.1635 507.343,607.3245" id="Fill-34"></path>
                <path d="M2220.578,279.2745 L2235.368,253.4285 L2253.438,253.6735 C2256.668,253.6695 2262.408,251.0405 2262.39801,247.8055 C2262.39801,244.5695 2256.658,241.9535 2253.428,241.9575 L2235.748,242.2375 L2220.508,215.7505 C2219.578,214.7445 2218.278,214.1725 2216.908,214.174495 L2213.468,214.1785 C2212.808,214.1795 2212.378,214.8635 2212.658,215.4585 L2219.838,242.2645 L2200.488,244.0975 L2192.948,235.2105 C2192.378,234.5385 2191.578,234.1575 2190.738,234.1585 L2188.618,234.1605 C2188.208,234.1605 2187.948,234.6175 2188.118,235.0145 L2193.568,247.6295 L2193.568,248.3225 L2188.148,260.9495 C2187.978,261.3475 2188.248,261.8025 2188.648,261.8025 L2190.768,261.7995 C2191.608,261.7985 2192.408,261.4155 2192.978,260.7425 L2200.618,251.6905 L2219.668,253.4505 L2212.728,279.5845 C2212.448,280.1815 2212.888,280.8645 2213.548,280.863501 L2216.988,280.8595 C2218.348,280.8575 2219.658,280.2825 2220.578,279.2745" id="Fill-35"></path>
                <path d="M1957.318,303.3165 L1931.028,303.3165 C1928.658,303.3165 1926.728,301.3905 1926.728,299.0145 C1926.728,296.6385 1928.658,294.7115 1931.028,294.7115 L1957.318,294.7115 C1967.638,294.7115 1980.758,287.1805 1985.958,278.2655 L1994.318,263.9235 C2001.098,252.3065 2016.938,243.2075 2030.388,243.2075 L2176.868,243.2075 C2179.248,243.2075 2181.178,245.1335 2181.178,247.5105 C2181.178,249.8865 2179.248,251.8125 2176.868,251.8125 L2030.388,251.8125 C2020.068,251.8125 2006.958,259.3445 2001.758,268.2585 L1993.388,282.6005 C1986.608,294.2175 1970.768,303.3165 1957.318,303.3165" id="Fill-36"></path>
                <path d="M990.168,835.1355 C988.938,835.1355 987.718,834.6055 986.868,833.5855 L950.598,790.0255 C940.468,777.8555 919.388,772.2755 904.558,777.8355 L896.308,780.9255 C877.788,787.8755 854.528,779.6655 844.468,762.6355 L840.098,755.2455 C830.088,738.2955 833.578,713.5135 847.898,699.9965 L852.478,695.6635 C866.668,682.2645 892.148,678.9675 909.278,688.3105 L915.578,691.7445 C930.408,699.8355 950.958,706.6705 960.438,706.6705 C962.848,706.6705 965.118,705.5745 967.178,703.4115 C971.378,698.9875 973.738,691.0025 973.318,682.5745 C972.468,665.6425 982.118,642.9085 994.828,631.8955 C1005.988,622.2225 1020.098,600.5915 1025.638,584.6595 L1027.328,579.8005 C1033.728,561.4025 1054.778,546.4345 1074.258,546.4345 L1123.158,546.4345 C1138.578,546.4345 1151.118,533.8895 1151.118,518.4705 L1151.118,514.3315 C1151.118,494.1675 1167.528,477.7625 1187.688,477.7625 L1357.528,477.7625 C1359.908,477.7625 1361.828,479.6885 1361.828,482.0645 C1361.828,484.4415 1359.908,486.3675 1357.528,486.3675 L1187.688,486.3675 C1172.268,486.3675 1159.728,498.9115 1159.728,514.3315 L1159.728,518.4705 C1159.728,538.6355 1143.318,555.0395 1123.158,555.0395 L1074.258,555.0395 C1058.428,555.0395 1040.658,567.6735 1035.458,582.6265 L1033.768,587.4855 C1027.708,604.8895 1012.768,627.7285 1000.458,638.3985 C989.688,647.7355 981.188,667.7685 981.908,682.1445 C982.448,693.0085 979.278,703.1765 973.408,709.3425 C969.718,713.2235 965.228,715.2755 960.438,715.2755 C949.398,715.2755 927.878,708.2575 911.458,699.2995 L905.158,695.8655 C891.288,688.2995 869.878,691.0735 858.388,701.9195 L853.798,706.2525 C842.438,716.9825 839.558,737.4155 847.508,750.8755 L851.878,758.2655 C859.778,771.6355 878.748,778.3255 893.288,772.8755 L901.538,769.7755 C919.778,762.9455 944.748,769.5555 957.208,784.5255 L993.478,828.0755 C994.998,829.9055 994.748,832.6155 992.918,834.1355 C992.118,834.8055 991.138,835.1355 990.168,835.1355" id="Fill-37"></path>
                <path d="M1260.668,1144.1255 C1259.658,1144.1255 1258.638,1143.7655 1257.828,1143.0455 C1256.038,1141.4755 1255.868,1138.7555 1257.438,1136.9755 L1291.518,1098.2955 C1301.408,1087.0555 1321.278,1074.9655 1335.808,1071.3255 L1388.728,1058.0955 C1400.538,1055.1455 1410.508,1045.0155 1410.508,1035.9855 C1410.508,1027.2955 1400.548,1019.2455 1388.758,1018.4055 L1360.138,1016.3655 C1344.358,1015.2355 1327.458,1002.1055 1322.448,987.1055 L1304.438,933.0755 C1300.568,921.4455 1286.948,911.8955 1274.688,912.2755 L1228.328,913.6355 C1212.588,914.0855 1192.928,904.5655 1183.528,891.9555 L1130.098,820.2355 C1128.678,818.3355 1129.078,815.6355 1130.978,814.2155 C1132.888,812.7955 1135.578,813.1955 1136.998,815.0955 L1190.428,886.8155 C1198.058,897.0555 1215.288,905.4255 1228.078,905.0255 L1274.428,903.6755 C1290.418,903.2555 1307.548,915.1755 1312.608,930.3455 L1330.618,984.3855 C1334.548,996.1755 1348.348,1006.8955 1360.748,1007.7755 L1389.378,1009.8255 C1405.778,1010.9955 1419.118,1022.7255 1419.118,1035.9855 C1419.118,1049.0955 1406.688,1062.4755 1390.818,1066.4455 L1337.888,1079.6755 C1325.018,1082.8955 1306.738,1094.0255 1297.968,1103.9755 L1263.898,1142.6655 C1263.048,1143.6255 1261.858,1144.1255 1260.668,1144.1255" id="Fill-38"></path>
                <path d="M1748.068,697.7255 C1732.658,697.7255 1712.838,689.8935 1702.678,679.7295 C1694.098,671.1555 1675.848,663.9115 1662.828,663.9115 L1473.648,663.9115 C1471.268,663.9115 1469.348,661.9855 1469.348,659.6095 C1469.348,657.2325 1471.268,655.3065 1473.648,655.3065 L1662.828,655.3065 C1678.038,655.3065 1698.648,663.5335 1708.758,673.6455 C1717.218,682.1035 1735.098,689.1205 1748.078,689.1205 C1748.238,689.1205 1748.388,689.1205 1748.548,689.1185 L1792.648,688.5255 C1805.898,688.3475 1824.428,682.9185 1833.108,676.6695 L1850.218,664.3495 C1852.148,662.9625 1854.828,663.3985 1856.228,665.3275 C1857.608,667.2555 1857.178,669.9435 1855.248,671.3325 L1838.138,683.6525 C1828.098,690.8825 1807.738,696.9285 1792.768,697.1295 L1748.668,697.7225 C1748.468,697.7245 1748.268,697.7255 1748.068,697.7255" id="Fill-39"></path>
                <path d="M1964.188,1043.1455 C1963.128,1043.1455 1962.068,1042.7555 1961.238,1041.9655 C1959.508,1040.3355 1959.438,1037.6155 1961.068,1035.8855 L1994.818,1000.2555 C2003.498,991.1055 2007.588,973.2155 2003.748,961.1955 L1976.528,875.8955 C1974.008,868.0155 1974.958,860.4755 1979.188,854.6855 C1983.428,848.8855 1990.318,845.6955 1998.588,845.6955 C2013.478,845.6955 2036.758,844.1355 2041.928,840.6955 C2050.438,835.0155 2077.258,817.6655 2077.528,817.4855 C2087.668,810.9255 2091.378,796.8755 2085.798,786.1655 L2038.118,694.6115 C2034.218,687.1365 2033.968,679.8955 2037.408,674.2235 C2040.858,668.5515 2047.388,665.4285 2055.818,665.4285 L2118.648,665.4285 C2135.238,665.4285 2148.808,678.9295 2148.888,695.5225 L2148.918,702.0895 C2148.978,713.9625 2158.678,723.6205 2170.548,723.6205 L2314.498,723.6205 C2316.868,723.6205 2318.798,725.5475 2318.798,727.9235 C2318.798,730.3005 2316.868,732.2265 2314.498,732.2265 L2170.548,732.2265 C2153.958,732.2265 2140.388,718.7255 2140.308,702.1315 L2140.278,695.5645 C2140.228,683.6915 2130.518,674.0335 2118.648,674.0335 L2055.818,674.0335 C2050.518,674.0335 2046.588,675.6855 2044.768,678.6865 C2042.948,681.6885 2043.298,685.9325 2045.748,690.6375 L2093.428,782.1955 C2101.008,796.7355 2095.968,815.8055 2082.208,824.7155 C2081.938,824.8855 2055.158,842.2155 2046.698,847.8555 C2037.498,853.9855 2005.008,854.2955 1998.588,854.2955 C1993.138,854.2955 1988.708,856.2355 1986.138,859.7555 C1983.568,863.2755 1983.068,868.0755 1984.728,873.2755 L2011.948,958.5755 C2016.708,973.4755 2011.818,994.8255 2001.068,1006.1755 L1967.318,1041.8055 C1966.468,1042.6955 1965.328,1043.1455 1964.188,1043.1455" id="Fill-40"></path>
                <path d="M2665.898,814.5855 L2644.478,814.5855 C2642.108,814.5855 2640.178,812.6655 2640.178,810.2855 C2640.178,807.9055 2642.108,805.9855 2644.478,805.9855 L2665.898,805.9855 C2676.538,805.9855 2693.308,798.2055 2702.518,788.9955 L2727.498,764.0055 C2738.258,753.2555 2759.398,744.4955 2774.608,744.4955 L2925.608,744.4955 C2927.988,744.4955 2929.908,746.4255 2929.908,748.7955 C2929.908,751.1755 2927.988,753.1055 2925.608,753.1055 L2774.608,753.1055 C2761.588,753.1055 2742.798,760.8855 2733.588,770.0955 L2708.598,795.0755 C2697.658,806.0155 2678.898,814.5855 2665.898,814.5855" id="Fill-41"></path>
                <path d="M504.208,306.7395 C492.037,306.7395 478.954,303.1525 470.148,296.7935 L460.497,289.8235 C449.765,282.0715 429.514,275.5235 416.276,275.5235 L4.303,275.5235 C1.927,275.5235 0,273.5975 0,271.2215 C0,268.8455 1.927,266.9185 4.303,266.9185 L416.276,266.9185 C431.277,266.9185 453.374,274.0645 465.535,282.8475 L475.186,289.8175 C485.57,297.3165 504.635,300.3085 516.814,296.3485 L582.169,275.1085 C596.084,270.5855 615.538,267.0455 625.581,267.2435 L643.034,267.5665 C645.41,267.6105 647.301,269.5715 647.256787,271.9475 C647.213,274.2965 645.295,276.1695 642.957,276.1705 C642.93,276.1705 642.903,276.1695 642.876,276.1695 L625.422,275.8455 C616.35,275.6985 597.763,279.0885 584.828,283.2915 L519.473,304.5325 C514.872,306.0275 509.63,306.7395 504.208,306.7395" id="Fill-42"></path>
                <path d="M1404.428,519.7175 L1421.998,489.0135 L1443.458,489.3045 C1447.308,489.3005 1454.108,486.1765 1454.108,482.3335 C1454.108,478.4905 1447.288,475.3825 1443.448,475.3875 L1422.438,475.7205 L1404.338,444.2555 C1403.238,443.0605 1401.688,442.3815 1400.068,442.383496 L1395.978,442.3875 C1395.198,442.3885 1394.688,443.2015 1395.018,443.9095 L1403.548,475.7515 L1380.558,477.9285 L1371.608,467.3715 C1370.928,466.5745 1369.978,466.1205 1368.978,466.1215 L1366.458,466.1245 C1365.978,466.1255 1365.658,466.6675 1365.868,467.1395 L1372.338,482.1245 L1372.348,482.9475 L1365.898,497.9475 C1365.698,498.4205 1366.018,498.9615 1366.498,498.9615 L1369.018,498.9585 C1370.018,498.9575 1370.968,498.5015 1371.638,497.7015 L1380.718,486.9495 L1403.348,489.0405 L1395.098,520.0855 C1394.768,520.7935 1395.288,521.6055 1396.068,521.604501 L1400.158,521.5995 C1401.778,521.5975 1403.328,520.9145 1404.428,519.7175" id="Fill-43"></path>
                <path d="M2363.828,764.9455 L2381.398,734.2425 L2402.858,734.5335 C2406.708,734.5285 2413.518,731.4055 2413.50801,727.5615 C2413.50801,723.7185 2406.688,720.6105 2402.848,720.6155 L2381.848,720.9485 L2363.738,689.4845 C2362.638,688.2885 2361.088,687.6095 2359.468,687.611496 L2355.378,687.6165 C2354.598,687.6175 2354.088,688.4295 2354.418,689.1375 L2362.948,720.9795 L2339.958,723.1575 L2331.008,712.6005 C2330.328,711.8025 2329.378,711.3485 2328.378,711.3505 L2325.858,711.3535 C2325.378,711.3535 2325.058,711.8955 2325.268,712.3685 L2331.748,727.3535 L2331.748,728.1765 L2325.298,743.1755 C2325.098,743.6455 2325.418,744.1855 2325.898,744.1855 L2328.418,744.1855 C2329.418,744.1855 2330.368,743.7255 2331.038,742.9355 L2340.118,732.1775 L2362.748,734.2685 L2354.508,765.3155 C2354.178,766.0255 2354.688,766.8355 2355.478,766.8355 L2359.558,766.8255 C2361.188,766.8255 2362.728,766.1455 2363.828,764.9455" id="Fill-44"></path>
                <path d="M1435.118,635.6695 L1423.548,655.8905 L1409.408,655.6995 C1406.878,655.7015 1402.398,657.7595 1402.398,660.2905 C1402.398,662.8215 1406.888,664.8685 1409.418,664.8655 L1423.258,664.6465 L1435.178,685.3685 C1435.898,686.1565 1436.918,686.6035 1437.988,686.602502 L1440.678,686.5995 C1441.198,686.5985 1441.538,686.0635 1441.318,685.5975 L1435.698,664.6255 L1450.838,663.1915 L1456.738,670.1445 C1457.178,670.6695 1457.808,670.9685 1458.468,670.9675 L1460.128,670.9655 C1460.448,670.9655 1460.648,670.6085 1460.518,670.2975 L1456.248,660.4275 L1456.248,659.8865 L1460.498,650.0065 C1460.628,649.6955 1460.418,649.3385 1460.098,649.3395 L1458.448,649.3415 C1457.788,649.3415 1457.158,649.6415 1456.718,650.1685 L1450.738,657.2505 L1435.828,655.8735 L1441.258,635.426499 C1441.478,634.9595 1441.138,634.4255 1440.618,634.426499 L1437.928,634.4295 C1436.858,634.4305 1435.848,634.8805 1435.118,635.6695" id="Fill-45"></path>
                <path d="M2961.588,723.8655 L2973.158,744.0855 L2987.298,743.8955 C2989.828,743.8955 2994.318,745.9555 2994.30802,748.4855 C2994.30802,751.0155 2989.818,753.0655 2987.288,753.0655 L2973.458,752.8455 L2961.528,773.5655 C2960.808,774.3555 2959.788,774.7955 2958.718,774.7955 L2956.028,774.7955 C2955.518,774.7955 2955.178,774.2555 2955.388,773.7955 L2961.018,752.8255 L2945.868,751.3855 L2939.978,758.3455 C2939.528,758.8655 2938.898,759.1655 2938.238,759.1655 L2936.588,759.1655 C2936.268,759.1655 2936.058,758.8055 2936.198,758.4955 L2940.458,748.6255 L2940.458,748.0855 L2936.218,738.2055 C2936.078,737.8955 2936.298,737.5355 2936.608,737.5355 L2938.268,737.5355 C2938.928,737.5355 2939.558,737.8355 2939.998,738.3655 L2945.978,745.4455 L2960.878,744.0655 L2955.448,723.622499 C2955.228,723.1565 2955.578,722.6215 2956.088,722.622499 L2958.778,722.6255 C2959.848,722.6265 2960.868,723.0765 2961.588,723.8655" id="Fill-46"></path>
                <path d="M1134.458,774.1955 L1109.678,777.6655 L1100.548,765.5355 C1098.878,763.3855 1094.178,760.9355 1092.038,762.5955 C1089.888,764.2655 1091.098,769.4255 1092.768,771.5755 L1102.048,783.1755 L1092.298,806.9255 C1092.108,808.0555 1092.398,809.2155 1093.098,810.1255 L1094.868,812.4055 C1095.208,812.8455 1095.888,812.7855 1096.138,812.2855 L1110.248,793.7255 L1121.428,805.6355 L1119.398,815.2155 C1119.248,815.9355 1119.408,816.6755 1119.838,817.2255 L1120.938,818.6355 C1121.138,818.9055 1121.578,818.8455 1121.758,818.5255 L1127.328,808.4155 L1127.788,808.0555 L1138.968,805.1655 C1139.328,805.0755 1139.488,804.6555 1139.278,804.3955 L1138.188,802.9855 C1137.758,802.4255 1137.088,802.0955 1136.348,802.0555 L1126.408,801.6455 L1117.768,788.0855 L1138.698,779.2455 C1139.238,779.1255 1139.468,778.4855 1139.128,778.0455 L1137.358,775.7655 C1136.658,774.8555 1135.598,774.2855 1134.458,774.1955" id="Fill-47"></path>
                <path d="M690.25,311.0575 L707.823,280.3545 L729.286,280.6455 C733.13,280.6405 739.938,277.5175 739.934002,273.6745 C739.93,269.8315 733.114,266.723499 729.27,266.7275 L708.267,267.0605 L690.163,235.5965 C689.065,234.4015 687.516,233.7225 685.893,233.723499 L681.807,233.7285 C681.026,233.7295 680.51,234.5415 680.841,235.2495 L689.377,267.0925 L666.382,269.2695 L657.432,258.7125 C656.756,257.9155 655.802,257.4615 654.802,257.4625 L652.285,257.4655 C651.804,257.4665 651.486,258.0085 651.69,258.4805 L658.169,273.4655 L658.17,274.2885 L651.726,289.2885 C651.523,289.7615 651.842,290.3025 652.323,290.3025 L654.84,290.2995 C655.839,290.2985 656.792,289.8425 657.467,289.0435 L666.541,278.2905 L689.175,280.3815 L680.929,311.4265 C680.599,312.1345 681.117,312.9465 681.898,312.945501 L685.985,312.9405 C687.607,312.9385 689.155,312.2555 690.25,311.0575" id="Fill-48"></path>
            </g>
        </g>
    </g>
</svg>