<svg width="389" height="377" viewBox="0 0 389 377" fill="none" xmlns="http://www.w3.org/2000/svg">
<path fill-rule="evenodd" clip-rule="evenodd" d="M45.0241 183.996C44.2533 183.996 43.6289 183.37 43.6289 182.598C43.6289 141.375 59.6565 102.62 88.7629 73.4712C117.869 44.3223 156.566 28.2695 197.729 28.2695C198.5 28.2695 199.125 28.8956 199.125 29.6678C199.125 30.4399 198.5 31.066 197.729 31.066C157.313 31.066 119.316 46.8279 90.7362 75.4486C62.1591 104.069 46.4193 142.122 46.4193 182.598C46.4193 183.37 45.7949 183.996 45.0241 183.996Z" fill="#E5E7F1"/>
<path fill-rule="evenodd" clip-rule="evenodd" d="M201.72 29.6675C201.72 27.4595 199.934 25.6694 197.729 25.6694C195.524 25.6694 193.736 27.4595 193.736 29.6675C193.736 31.8755 195.524 33.6656 197.729 33.6656C199.934 33.6656 201.72 31.8755 201.72 29.6675Z" fill="#E5E7F1"/>
<path fill-rule="evenodd" clip-rule="evenodd" d="M49.017 182.598C49.017 180.39 47.2291 178.6 45.0241 178.6C42.8191 178.6 41.0312 180.39 41.0312 182.598C41.0312 184.807 42.8191 186.597 45.0241 186.597C47.2291 186.597 49.017 184.807 49.017 182.598Z" fill="#E5E7F1"/>
<path fill-rule="evenodd" clip-rule="evenodd" d="M197.729 337.308C162.491 337.308 129.309 325.739 101.768 303.849C75.0474 282.61 55.8586 252.752 47.7363 219.772C47.4997 218.819 48.0826 217.855 49.0363 217.62C49.9876 217.381 50.9511 217.967 51.1876 218.922C59.1222 251.137 77.8695 280.311 103.978 301.06C130.884 322.446 163.303 333.749 197.729 333.749C238.043 333.749 275.943 318.027 304.449 289.479C332.955 260.928 348.656 222.972 348.656 182.598C348.656 127.875 318.991 77.2798 271.243 50.5583C270.384 50.0787 270.079 48.9942 270.557 48.1363C271.035 47.2776 272.118 46.9701 272.977 47.4506C321.85 74.8011 352.21 126.586 352.21 182.598C352.21 223.922 336.141 262.774 306.964 291.995C277.787 321.215 238.992 337.308 197.729 337.308Z" fill="#E5E7F1"/>
<path fill-rule="evenodd" clip-rule="evenodd" d="M55.2758 219.347C55.2758 216.13 52.6733 213.524 49.4609 213.524C46.251 213.524 43.646 216.13 43.646 219.347C43.646 222.565 46.251 225.171 49.4609 225.171C52.6733 225.171 55.2758 222.565 55.2758 219.347Z" fill="#E5E7F1"/>
<path fill-rule="evenodd" clip-rule="evenodd" d="M277.756 49.0046C277.756 45.882 275.229 43.3506 272.109 43.3506C268.992 43.3506 266.465 45.882 266.465 49.0046C266.465 52.1272 268.992 54.6586 272.109 54.6586C275.229 54.6586 277.756 52.1272 277.756 49.0046Z" fill="#E5E7F1"/>
<path fill-rule="evenodd" clip-rule="evenodd" d="M11.3811 135.175C11.3811 132.028 8.83215 129.477 5.69053 129.477C2.54891 129.477 0 132.028 0 135.175C0 138.322 2.54891 140.874 5.69053 140.874C8.83215 140.874 11.3811 138.322 11.3811 135.175Z" fill="#E5E7F1"/>
<path fill-rule="evenodd" clip-rule="evenodd" d="M268.065 370.544C268.065 367.395 265.516 364.845 262.374 364.845C259.233 364.845 256.684 367.395 256.684 370.544C256.684 373.69 259.233 376.24 262.374 376.24C265.516 376.24 268.065 373.69 268.065 370.544Z" fill="#E5E7F1"/>
<path fill-rule="evenodd" clip-rule="evenodd" d="M197.729 365.895C148.839 365.895 102.878 346.83 68.3083 312.208C33.7407 277.587 14.7031 231.559 14.7031 182.598C14.7031 153.035 21.5132 124.813 34.9505 98.7159C47.7658 73.8208 66.4545 51.8363 88.9971 35.1384C90.0801 34.3349 91.6119 34.5643 92.4144 35.6503C93.2144 36.7369 92.9876 38.269 91.9021 39.0727C69.9596 55.3267 51.7684 76.7265 39.2922 100.958C26.2183 126.355 19.5887 153.823 19.5887 182.598C19.5887 230.252 38.1189 275.052 71.7645 308.75C105.41 342.445 150.147 361.003 197.729 361.003C245.312 361.003 290.046 342.445 323.692 308.75C357.34 275.052 375.868 230.252 375.868 182.598C375.868 181.248 376.963 180.151 378.312 180.151C379.661 180.151 380.756 181.248 380.756 182.598C380.756 231.559 361.716 277.587 327.148 312.208C292.578 346.83 246.617 365.895 197.729 365.895Z" fill="#E5E7F1"/>
<path fill-rule="evenodd" clip-rule="evenodd" d="M389 182.598C389 176.687 384.214 171.894 378.311 171.894C372.409 171.894 367.623 176.687 367.623 182.598C367.623 188.51 372.409 193.302 378.311 193.302C384.214 193.302 389 188.51 389 182.598Z" fill="#E5E7F1"/>
<path fill-rule="evenodd" clip-rule="evenodd" d="M98.0075 37.105C98.0075 32.925 94.622 29.5361 90.4486 29.5361C86.2752 29.5361 82.8921 32.925 82.8921 37.105C82.8921 41.285 86.2752 44.6739 90.4486 44.6739C94.622 44.6739 98.0075 41.285 98.0075 37.105Z" fill="#E5E7F1"/>
<path fill-rule="evenodd" clip-rule="evenodd" d="M197.729 313.178C125.833 313.178 67.3423 254.598 67.3423 182.598C67.3423 158.034 74.1914 134.099 87.1457 113.382C99.7488 93.229 117.581 76.8887 138.714 66.1284C139.4 65.7776 140.243 66.0527 140.592 66.7413C140.941 67.4292 140.668 68.2712 139.98 68.621C119.299 79.1519 101.846 95.1432 89.5117 114.866C76.8354 135.138 70.1351 158.559 70.1351 182.598C70.1351 253.057 127.372 310.381 197.729 310.381C268.084 310.381 325.323 253.057 325.323 182.598C325.323 112.138 268.084 54.8153 197.729 54.8153C196.959 54.8153 196.332 54.1892 196.332 53.417C196.332 52.6451 196.959 52.019 197.729 52.019C269.623 52.019 328.114 110.597 328.114 182.598C328.114 254.598 269.623 313.178 197.729 313.178Z" fill="#E5E7F1"/>
<path fill-rule="evenodd" clip-rule="evenodd" d="M201.01 53.4169C201.01 51.6024 199.542 50.1313 197.729 50.1313C195.917 50.1313 194.449 51.6024 194.449 53.4169C194.449 55.2316 195.917 56.7026 197.729 56.7026C199.542 56.7026 201.01 55.2316 201.01 53.4169Z" fill="#E5E7F1"/>
<path fill-rule="evenodd" clip-rule="evenodd" d="M144.992 67.3747C144.992 64.2521 142.465 61.7207 139.348 61.7207C136.229 61.7207 133.702 64.2521 133.702 67.3747C133.702 70.4975 136.229 73.0287 139.348 73.0287C142.465 73.0287 144.992 70.4975 144.992 67.3747Z" fill="#E5E7F1"/>
<path fill-rule="evenodd" clip-rule="evenodd" d="M197.305 299.303C133.048 299.303 80.77 246.95 80.77 182.598C80.77 118.247 133.048 65.8926 197.305 65.8926C230.831 65.8926 262.757 80.374 284.897 105.623C285.407 106.203 285.349 107.087 284.771 107.596C284.19 108.106 283.309 108.048 282.8 107.468C261.189 82.8235 230.029 68.689 197.305 68.689C134.587 68.689 83.5628 119.789 83.5628 182.598C83.5628 245.409 134.587 296.506 197.305 296.506C217.394 296.506 237.139 291.191 254.406 281.134C271.16 271.375 285.253 257.393 295.156 240.702C295.552 240.037 296.408 239.817 297.071 240.213C297.732 240.606 297.952 241.466 297.557 242.128C287.412 259.23 272.975 273.552 255.808 283.553C238.117 293.856 217.887 299.303 197.305 299.303Z" fill="#E5E7F1"/>
<path fill-rule="evenodd" clip-rule="evenodd" d="M287.841 106.546C287.841 104.338 286.053 102.548 283.848 102.548C281.643 102.548 279.858 104.338 279.858 106.546C279.858 108.754 281.643 110.544 283.848 110.544C286.053 110.544 287.841 108.754 287.841 106.546Z" fill="#E5E7F1"/>
<path fill-rule="evenodd" clip-rule="evenodd" d="M300.35 241.415C300.35 239.207 298.562 237.417 296.357 237.417C294.152 237.417 292.366 239.207 292.366 241.415C292.366 243.624 294.152 245.414 296.357 245.414C298.562 245.414 300.35 243.624 300.35 241.415Z" fill="#E5E7F1"/>
<path fill-rule="evenodd" clip-rule="evenodd" d="M359.632 104.149C358.988 104.149 358.371 103.792 358.066 103.177C343.485 73.7092 321.087 48.8141 293.292 31.1835C264.737 13.0697 231.692 3.49534 197.729 3.49534C179.814 3.49534 162.132 6.13962 145.17 11.3542C144.248 11.6351 143.273 11.1189 142.99 10.1965C142.707 9.27343 143.226 8.29584 144.146 8.01248C161.439 2.69607 179.467 0 197.729 0C232.355 0 266.047 9.76174 295.161 28.2304C323.494 46.204 346.329 71.5832 361.193 101.625C361.623 102.489 361.269 103.538 360.406 103.967C360.157 104.09 359.891 104.149 359.632 104.149Z" fill="#E5E7F1"/>
<path fill-rule="evenodd" clip-rule="evenodd" d="M149.32 9.68349C149.32 7.10638 147.232 5.01709 144.658 5.01709C142.085 5.01709 140 7.10638 140 9.68349C140 12.2606 142.085 14.3496 144.658 14.3496C147.232 14.3496 149.32 12.2606 149.32 9.68349Z" fill="#E5E7F1"/>
<path fill-rule="evenodd" clip-rule="evenodd" d="M364.289 102.401C364.289 99.8239 362.204 97.7349 359.63 97.7349C357.057 97.7349 354.972 99.8239 354.972 102.401C354.972 104.978 357.057 107.067 359.63 107.067C362.204 107.067 364.289 104.978 364.289 102.401Z" fill="#E5E7F1"/>
<path fill-rule="evenodd" clip-rule="evenodd" d="M112.079 243.574C111.637 243.574 111.203 243.364 110.932 242.974C98.5853 225.203 92.0581 204.327 92.0581 182.598C92.0581 124.245 139.46 76.7715 197.729 76.7715C255.996 76.7715 303.398 124.245 303.398 182.598C303.398 183.37 302.774 183.996 302.003 183.996C301.232 183.996 300.608 183.37 300.608 182.598C300.608 125.787 254.457 79.5677 197.729 79.5677C141.002 79.5677 94.8509 125.787 94.8509 182.598C94.8509 203.753 101.202 224.079 113.223 241.376C113.664 242.011 113.508 242.881 112.874 243.323C112.632 243.491 112.354 243.574 112.079 243.574Z" fill="#E5E7F1"/>
<path fill-rule="evenodd" clip-rule="evenodd" d="M308.913 182.598C308.913 178.775 305.82 175.677 302.003 175.677C298.186 175.677 295.093 178.775 295.093 182.598C295.093 186.421 298.186 189.519 302.003 189.519C305.82 189.519 308.913 186.421 308.913 182.598Z" fill="#E5E7F1"/>
<path fill-rule="evenodd" clip-rule="evenodd" d="M115.174 242.175C115.174 240.462 113.789 239.075 112.076 239.075C110.366 239.075 108.981 240.462 108.981 242.175C108.981 243.887 110.366 245.277 112.076 245.277C113.789 245.277 115.174 243.887 115.174 242.175Z" fill="#E5E7F1"/>
<path fill-rule="evenodd" clip-rule="evenodd" d="M197.729 287.724C174.13 287.724 151.842 280.066 133.272 265.578C132.967 265.341 132.914 264.902 133.15 264.599C133.387 264.294 133.826 264.24 134.131 264.477C152.451 278.772 174.445 286.327 197.729 286.327C198.115 286.327 198.427 286.64 198.427 287.026C198.427 287.412 198.115 287.724 197.729 287.724Z" fill="#E5E7F1"/>
<path fill-rule="evenodd" clip-rule="evenodd" d="M136.797 265.027C136.797 263.314 135.412 261.927 133.702 261.927C131.989 261.927 130.604 263.314 130.604 265.027C130.604 266.741 131.989 268.129 133.702 268.129C135.412 268.129 136.797 266.741 136.797 265.027Z" fill="#E5E7F1"/>
<path fill-rule="evenodd" clip-rule="evenodd" d="M200.825 287.027C200.825 285.314 199.439 283.927 197.73 283.927C196.017 283.927 194.632 285.314 194.632 287.027C194.632 288.739 196.017 290.129 197.73 290.129C199.439 290.129 200.825 288.739 200.825 287.027Z" fill="#E5E7F1"/>
</svg>
