<?xml version="1.0" encoding="UTF-8"?>
<svg width="635px" height="704px" viewBox="0 0 635 704" version="1.1" xmlns="http://www.w3.org/2000/svg" xmlns:xlink="http://www.w3.org/1999/xlink">
    <title>waves lessors group</title>
    <defs>
        <polygon id="path-1" points="488 0 334.750154 267.14954 158.170713 254.171092 151.675169 466 0 435.751369 0 433.045068 148.45083 462.652151 154.918254 251.295186 332.688076 264.362123 484.335126 0"></polygon>
        <linearGradient x1="75.5442983%" y1="82.120419%" x2="79.7884017%" y2="9.87550138%" id="linearGradient-3">
            <stop stop-color="#2B5DC1" stop-opacity="0" offset="0%"></stop>
            <stop stop-color="#2B5DC1" offset="31.1583053%"></stop>
            <stop stop-color="#912BC1" offset="77.6382733%"></stop>
            <stop stop-color="#912BC1" stop-opacity="0" offset="100%"></stop>
        </linearGradient>
        <polygon id="path-4" points="506 1 347.790139 281.812701 169.307841 267.113704 159.756224 476 0 445.762484 0 443.133455 156.635212 472.781833 166.158542 264.285841 345.753466 279.080572 502.426394 1"></polygon>
        <polygon id="path-6" points="635 8 635 10.4867095 514.112098 11.3401364 357.839849 296.39944 179.009255 279.970972 166.484155 486 164.631719 485.668929 0 455.872559 0 453.319635 163.493929 482.902649 175.990819 277.189977 355.855768 293.706731 512.005775 8.86078404 513.049534 8.85342691"></polygon>
        <polygon id="path-8" points="635 18 635 20.4263207 522.189471 22.0512203 368.851029 308.901143 189.174145 290.747853 173.649415 494 171.872205 493.691196 0 464.090083 0 461.612295 170.772027 491.022243 186.277951 288.012728 366.904561 306.2616 520.101955 19.6543095 521.117503 19.6396046"></polygon>
        <polygon id="path-10" points="635 28 635 30.3714649 530.257441 32.6913762 379.862209 321.987999 199.339035 302.066221 180.814675 503 179.122094 502.727502 0 473.356689 0 470.941035 178.050126 500.135094 196.565082 299.370705 377.953354 319.388226 528.198134 30.3714649 529.185473 30.3420057"></polygon>
        <polygon id="path-12" points="635 41 635 43.3046233 538.316008 46.2203767 390.863986 337.427568 209.513327 315.765582 187.979935 514 0 484.783562 0 482.442123 185.328224 511.246233 206.842811 313.114897 388.992744 334.872603 536.294314 43.9820205 537.253443 43.9525685"></polygon>
        <polygon id="path-14" points="635 54 635 56.233547 546.383977 59.6352978 401.875167 352.185868 219.678217 328.836486 195.145195 524 0 495.382679 0 493.112396 192.606323 521.362357 217.129942 326.242926 400.041537 349.687822 544.390493 57.48257"></polygon>
        <polygon id="path-16" points="635 64 635 66.1797513 554.451947 69.986952 412.876944 365.173879 229.843107 340.025735 202.310455 533 0 504.957794 0 502.748587 199.875019 530.452047 227.417074 337.485146 411.09033 362.721659 552.486673 67.902933"></polygon>
        <polygon id="path-18" points="635 76 635 78.1262995 562.519917 82.2238559 423.888124 380.142044 240.0174 353.186767 209.475714 544 208.09344 543.822808 0 516.646043 0 514.497594 207.153117 541.548849 237.694802 350.691319 422.139123 377.735191 560.582852 80.2083011 561.457352 80.1566202"></polygon>
        <polygon id="path-20" points="635 88 635 90.0568697 570.587887 94.3033104 434.889901 393.765846 250.191693 365.102372 216.650378 553 215.333926 552.83781 0 526.540841 0 524.469227 214.431216 550.655611 247.981934 362.669515 433.178513 391.414085 568.679032 92.3717697"></polygon>
        <polygon id="path-22" points="635 98 635 99.9998247 578.646453 104.279892 445.901081 406.002518 260.356582 375.562382 223.815637 561 222.574411 560.859791 0 535.489321 0 533.474738 221.699911 558.749275 258.259662 373.186207 444.23671 403.692758 576.775211 102.420277"></polygon>
        <polygon id="path-24" points="635 111 635 112.939031 586.70502 117.104629 456.912261 420.529747 455.83089 420.345429 270.530875 388.369855 230.990301 571 229.814897 570.874663 0 546.581485 0 544.642454 228.968607 568.839787 268.546794 386.054815 455.285503 418.273689 584.880794 115.327798"></polygon>
        <polygon id="path-26" points="635 126 635 127.863401 594.77299 131.7516 467.914038 435.640041 280.705168 401.893407 238.164964 581 237.055383 580.889957 0 557.883556 0 556.012818 236.237302 578.945857 278.824522 399.655858 280.028136 399.875945 466.334296 433.453846 592.986376 130.064269"></polygon>
        <polygon id="path-28" points="635 138 635 139.808207 602.831556 143.292314 478.915815 449.724626 290.879461 414.177919 245.339627 591 244.295869 590.904444 0 569.117753 0 567.316896 243.505997 589.037434 289.102251 412.002191 290.258848 412.222704 477.373686 447.593 601.082556 141.675218"></polygon>
        <polygon id="path-30" points="635 150 635 151.749571 610.890123 154.653271 489.926995 463.077677 301.053754 425.785347 252.51429 600 251.526951 599.919137 0 579.490321 0 577.755452 250.774693 598.118108 299.379979 423.668219 300.48956 423.888753 488.431882 460.997305 609.188139 153.109532 609.865171 153.028669"></polygon>
        <polygon id="path-32" points="635 165 635 166.684322 618.958093 168.817307 500.928772 479.37985 499.93203 479.173907 311.228047 440.324168 259.688953 612 258.767437 611.933804 0 592.972307 0 591.29534 258.043388 610.205351 309.648304 438.27209 310.710869 438.492744 499.471272 477.357192 617.293721 167.353638"></polygon>
        <polygon id="path-34" points="635 176 635 177.627048 627.007256 178.797639 511.930549 491.617828 510.962017 491.411687 321.40234 450.779664 266.863616 620 265.998519 619.941102 0 602.544206 0 600.931883 265.30268 618.284606 319.926033 448.799231 320.941582 449.012735 510.520065 489.652119 625.389901 177.406182"></polygon>
        <polygon id="path-36" points="635 190 635 191.780185 522.94173 506.093222 521.992004 505.879894 331.576633 463.537968 274.047683 630 273.239005 629.955863 0 614.243154 0 612.698365 272.571376 628.366938 330.203761 461.632728 331.162891 461.846056 521.578262 504.187983 633.495483 190.242753"></polygon>
        <polygon id="path-38" points="635 220 635 225.705294 533.943507 519.210949 533.012587 518.997185 341.760329 474.821702 281.231749 639 280.470087 638.955773 0 624.994757 0 623.51315 279.840071 637.444681 340.48149 472.986278 341.3842 473.192671 532.627055 517.360783"></polygon>
        <polygon id="path-40" points="635 258 635 263.594758 544.945284 533.733253 351.944025 487.657473 288.406412 649 287.70117 648.970554 0 636.905016 0 635.484241 287.099363 647.527695 350.749815 485.898068 351.605509 486.104191 543.675848 531.951764"></polygon>
        <polygon id="path-42" points="635 297 635 302.523337 555.956464 547.349644 362.127721 499.637416 295.590478 658 294.932252 657.977965 0 647.908159 0 646.556704 294.358655 656.611821 361.01814 497.955443 361.826818 498.153754 554.724641 545.638291"></polygon>
        <polygon id="path-44" points="635 337 635 342.460915 566.948838 562.057692 372.311417 512.303508 302.774545 669 302.163335 668.985221 0 660.937945 0 659.644765 301.617948 667.677261 371.286465 510.685185 372.048127 510.877315 565.773434 560.395032"></polygon>
        <polygon id="path-46" points="635 379 635 384.333482 577.960018 574.032057 577.141937 573.819012 382.495113 522.827694 309.958611 676 309.394417 675.985307 0 670.152271 0 668.932769 308.87724 674.751113 381.55479 521.292297 382.269436 521.483304 576.83163 572.445236"></polygon>
        <polygon id="path-48" points="635 425 635 430.258681 588.961795 589.276787 588.181327 589.070853 392.678809 536.270752 317.142677 687 316.6255 686.992645 0 683.410858 0 682.256155 316.136532 685.830587 391.823116 534.814502 392.490745 534.991017 587.880424 587.761699"></polygon>
        <polygon id="path-50" points="635 472 635 477.188788 599.963572 603.299206 599.211313 603.085159 402.871909 548.355629 324.326744 697 323.856582 697 0 695.767386 0 694.667629 323.386421 695.892862 402.082038 546.968016 402.712054 547.145158 598.929217 601.845165"></polygon>
        <polygon id="path-52" points="634 522 634 527.071001 609.98102 617.400057 412.200316 560.45509 332.447153 704 331 704 411.486137 559.142857 609.003722 616.006273"></polygon>
        <polygon id="path-54" points="421.702405 572 422.238154 572.155181 620.042328 630.42199 634 575.990371 634 580.933998 620.97284 631.737334 620.286705 631.537816 422.341544 573.234059 345.372269 704 344 704"></polygon>
        <polygon id="path-56" points="432.187088 584 432.684672 584.148276 631.098986 644.363277 634 632.523415 634 637.334981 631.972107 645.608798 631.324308 645.408625 432.75978 585.149141 359.28621 704 358 704"></polygon>
        <polygon id="path-58" points="441.444743 596 441.897704 596.14142 634 655.827981 634 656.743487 441.96376 597.079256 372.21733 704 371 704"></polygon>
        <polygon id="path-60" points="452.38899 610 452.793323 610.131837 634 667.063581 634 667.905875 452.830935 610.98878 388.128369 704 387 704"></polygon>
        <polygon id="path-62" points="462.29228 621 462.671358 621.126468 635 676.965672 635 677.754235 462.690312 621.915031 403.061417 704 402 704"></polygon>
        <polygon id="path-64" points="473.57099 634 473.910167 634.110759 635 687.408228 635 688.117089 473.919588 634.827004 420.979842 704 420 704"></polygon>
    </defs>
    <g id="Page-1" stroke="none" stroke-width="1" fill="none" fill-rule="evenodd">
        <g id="waves-lessors-group">
            <mask id="mask-2" fill="white">
                <use xlink:href="#path-1"></use>
            </mask>
            <g id="Clip-520"></g>
            <polygon id="Fill-519" fill="url(#linearGradient-3)" mask="url(#mask-2)" points="0 704 635 704 635 1 0 1"></polygon>
            <mask id="mask-5" fill="white">
                <use xlink:href="#path-4"></use>
            </mask>
            <g id="Clip-523"></g>
            <polygon id="Fill-522" fill="url(#linearGradient-3)" mask="url(#mask-5)" points="0 704 635 704 635 1 0 1"></polygon>
            <mask id="mask-7" fill="white">
                <use xlink:href="#path-6"></use>
            </mask>
            <g id="Clip-526"></g>
            <polygon id="Fill-525" fill="url(#linearGradient-3)" mask="url(#mask-7)" points="0 704 635 704 635 1 0 1"></polygon>
            <mask id="mask-9" fill="white">
                <use xlink:href="#path-8"></use>
            </mask>
            <g id="Clip-529"></g>
            <polygon id="Fill-528" fill="url(#linearGradient-3)" mask="url(#mask-9)" points="0 704 635 704 635 1 0 1"></polygon>
            <mask id="mask-11" fill="white">
                <use xlink:href="#path-10"></use>
            </mask>
            <g id="Clip-532"></g>
            <polygon id="Fill-531" fill="url(#linearGradient-3)" mask="url(#mask-11)" points="0 704 635 704 635 1 0 1"></polygon>
            <mask id="mask-13" fill="white">
                <use xlink:href="#path-12"></use>
            </mask>
            <g id="Clip-535"></g>
            <polygon id="Fill-534" fill="url(#linearGradient-3)" mask="url(#mask-13)" points="0 704 635 704 635 1 0 1"></polygon>
            <mask id="mask-15" fill="white">
                <use xlink:href="#path-14"></use>
            </mask>
            <g id="Clip-538"></g>
            <polygon id="Fill-537" fill="url(#linearGradient-3)" mask="url(#mask-15)" points="0 704 635 704 635 1 0 1"></polygon>
            <mask id="mask-17" fill="white">
                <use xlink:href="#path-16"></use>
            </mask>
            <g id="Clip-541"></g>
            <polygon id="Fill-540" fill="url(#linearGradient-3)" mask="url(#mask-17)" points="0 704 635 704 635 1 0 1"></polygon>
            <mask id="mask-19" fill="white">
                <use xlink:href="#path-18"></use>
            </mask>
            <g id="Clip-544"></g>
            <polygon id="Fill-543" fill="url(#linearGradient-3)" mask="url(#mask-19)" points="0 704 635 704 635 1 0 1"></polygon>
            <mask id="mask-21" fill="white">
                <use xlink:href="#path-20"></use>
            </mask>
            <g id="Clip-547"></g>
            <polygon id="Fill-546" fill="url(#linearGradient-3)" mask="url(#mask-21)" points="0 704 635 704 635 1 0 1"></polygon>
            <mask id="mask-23" fill="white">
                <use xlink:href="#path-22"></use>
            </mask>
            <g id="Clip-550"></g>
            <polygon id="Fill-549" fill="url(#linearGradient-3)" mask="url(#mask-23)" points="0 704 635 704 635 1 0 1"></polygon>
            <mask id="mask-25" fill="white">
                <use xlink:href="#path-24"></use>
            </mask>
            <g id="Clip-553"></g>
            <polygon id="Fill-552" fill="url(#linearGradient-3)" mask="url(#mask-25)" points="0 704 635 704 635 1 0 1"></polygon>
            <mask id="mask-27" fill="white">
                <use xlink:href="#path-26"></use>
            </mask>
            <g id="Clip-556"></g>
            <polygon id="Fill-555" fill="url(#linearGradient-3)" mask="url(#mask-27)" points="0 704 635 704 635 1 0 1"></polygon>
            <mask id="mask-29" fill="white">
                <use xlink:href="#path-28"></use>
            </mask>
            <g id="Clip-559"></g>
            <polygon id="Fill-558" fill="url(#linearGradient-3)" mask="url(#mask-29)" points="0 704 635 704 635 1 0 1"></polygon>
            <mask id="mask-31" fill="white">
                <use xlink:href="#path-30"></use>
            </mask>
            <g id="Clip-562"></g>
            <polygon id="Fill-561" fill="url(#linearGradient-3)" mask="url(#mask-31)" points="0 704 635 704 635 1 0 1"></polygon>
            <mask id="mask-33" fill="white">
                <use xlink:href="#path-32"></use>
            </mask>
            <g id="Clip-565"></g>
            <polygon id="Fill-564" fill="url(#linearGradient-3)" mask="url(#mask-33)" points="0 704 635 704 635 1 0 1"></polygon>
            <mask id="mask-35" fill="white">
                <use xlink:href="#path-34"></use>
            </mask>
            <g id="Clip-568"></g>
            <polygon id="Fill-567" fill="url(#linearGradient-3)" mask="url(#mask-35)" points="0 704 635 704 635 1 0 1"></polygon>
            <mask id="mask-37" fill="white">
                <use xlink:href="#path-36"></use>
            </mask>
            <g id="Clip-571"></g>
            <polygon id="Fill-570" fill="url(#linearGradient-3)" mask="url(#mask-37)" points="0 704 635 704 635 1 0 1"></polygon>
            <mask id="mask-39" fill="white">
                <use xlink:href="#path-38"></use>
            </mask>
            <g id="Clip-574"></g>
            <polygon id="Fill-573" fill="url(#linearGradient-3)" mask="url(#mask-39)" points="0 704 635 704 635 1 0 1"></polygon>
            <mask id="mask-41" fill="white">
                <use xlink:href="#path-40"></use>
            </mask>
            <g id="Clip-577"></g>
            <polygon id="Fill-576" fill="url(#linearGradient-3)" mask="url(#mask-41)" points="0 704 635 704 635 1 0 1"></polygon>
            <mask id="mask-43" fill="white">
                <use xlink:href="#path-42"></use>
            </mask>
            <g id="Clip-580"></g>
            <polygon id="Fill-579" fill="url(#linearGradient-3)" mask="url(#mask-43)" points="0 704 635 704 635 1 0 1"></polygon>
            <mask id="mask-45" fill="white">
                <use xlink:href="#path-44"></use>
            </mask>
            <g id="Clip-583"></g>
            <polygon id="Fill-582" fill="url(#linearGradient-3)" mask="url(#mask-45)" points="0 704 635 704 635 1 0 1"></polygon>
            <mask id="mask-47" fill="white">
                <use xlink:href="#path-46"></use>
            </mask>
            <g id="Clip-586"></g>
            <polygon id="Fill-585" fill="url(#linearGradient-3)" mask="url(#mask-47)" points="0 704 635 704 635 1 0 1"></polygon>
            <mask id="mask-49" fill="white">
                <use xlink:href="#path-48"></use>
            </mask>
            <g id="Clip-589"></g>
            <polygon id="Fill-588" fill="url(#linearGradient-3)" mask="url(#mask-49)" points="0 704 635 704 635 1 0 1"></polygon>
            <mask id="mask-51" fill="white">
                <use xlink:href="#path-50"></use>
            </mask>
            <g id="Clip-592"></g>
            <polygon id="Fill-591" fill="url(#linearGradient-3)" mask="url(#mask-51)" points="0 704 635 704 635 1 0 1"></polygon>
            <mask id="mask-53" fill="white">
                <use xlink:href="#path-52"></use>
            </mask>
            <g id="Clip-595"></g>
            <polygon id="Fill-594" fill="url(#linearGradient-3)" mask="url(#mask-53)" points="0 704 635 704 635 1 0 1"></polygon>
            <mask id="mask-55" fill="white">
                <use xlink:href="#path-54"></use>
            </mask>
            <g id="Clip-598"></g>
            <polygon id="Fill-597" fill="url(#linearGradient-3)" mask="url(#mask-55)" points="0 704 635 704 635 1 0 1"></polygon>
            <mask id="mask-57" fill="white">
                <use xlink:href="#path-56"></use>
            </mask>
            <g id="Clip-601"></g>
            <polygon id="Fill-600" fill="url(#linearGradient-3)" mask="url(#mask-57)" points="0 704 635 704 635 1 0 1"></polygon>
            <mask id="mask-59" fill="white">
                <use xlink:href="#path-58"></use>
            </mask>
            <g id="Clip-604"></g>
            <polygon id="Fill-603" fill="url(#linearGradient-3)" mask="url(#mask-59)" points="0 704 635 704 635 1 0 1"></polygon>
            <mask id="mask-61" fill="white">
                <use xlink:href="#path-60"></use>
            </mask>
            <g id="Clip-607"></g>
            <polygon id="Fill-606" fill="url(#linearGradient-3)" mask="url(#mask-61)" points="0 704 635 704 635 1 0 1"></polygon>
            <mask id="mask-63" fill="white">
                <use xlink:href="#path-62"></use>
            </mask>
            <g id="Clip-610"></g>
            <polygon id="Fill-609" fill="url(#linearGradient-3)" mask="url(#mask-63)" points="0 704 635 704 635 1 0 1"></polygon>
            <mask id="mask-65" fill="white">
                <use xlink:href="#path-64"></use>
            </mask>
            <g id="Clip-613"></g>
            <polygon id="Fill-612" fill="url(#linearGradient-3)" mask="url(#mask-65)" points="0 704 635 704 635 1 0 1"></polygon>
        </g>
    </g>
</svg>