<?xml version="1.0" encoding="UTF-8"?>
<svg width="940px" height="92px" viewBox="0 0 940 92" version="1.1" xmlns="http://www.w3.org/2000/svg" xmlns:xlink="http://www.w3.org/1999/xlink">
    <title>Group 4</title>
    <defs>
        <linearGradient x1="65.8678645%" y1="49.0834036%" x2="235.726244%" y2="50.3642306%" id="linearGradient-1">
            <stop stop-color="#DEE4F0" offset="0%"></stop>
            <stop stop-color="#D8DEF0" offset="100%"></stop>
        </linearGradient>
        <linearGradient x1="65.8678645%" y1="-60.634635%" x2="235.726244%" y2="93.9632075%" id="linearGradient-2">
            <stop stop-color="#DEE4F0" offset="0%"></stop>
            <stop stop-color="#D8DEF0" offset="100%"></stop>
        </linearGradient>
    </defs>
    <g id="Page-1" stroke="none" stroke-width="1" fill="none" fill-rule="evenodd">
        <g id="Artboard" transform="translate(-779.000000, -1007.000000)">
            <g id="Group-4" transform="translate(1248.935734, 1052.940808) rotate(-180.000000) translate(-1248.935734, -1052.940808) translate(779.580727, 1007.652305)">
                <path d="M693.060013,69.845 C682.910013,69.845 671.900013,66.576 664.870013,60.899 L613.270013,19.248 C604.670013,12.313 588.090013,6.453 577.040013,6.453 L440.870013,6.453 C429.900013,6.453 413.900013,12.813 405.930013,20.342 L363.070013,60.81 L361.800013,60.819 C312.270013,61.16 134.810013,61.16 86.6100131,60.819 C84.8300131,60.806 83.3900131,59.351 83.4098072,57.569 C83.4200131,55.795 84.8600131,54.365 86.6300131,54.365 C86.6400131,54.365 86.6500131,54.365 86.6600131,54.365 C134.430013,54.703 309.280013,54.706 360.490013,54.374 L401.500013,15.649 C410.640013,7.02 428.300013,0 440.870013,0 L577.040013,0 C589.530013,0 607.600013,6.382 617.320013,14.227 L668.920013,55.877 C677.240013,62.596 692.840013,65.369 702.970013,61.933 L743.920013,48.045 C755.430013,44.14 774.680013,40.964 786.830013,40.964 L935.480013,40.964 C937.260013,40.964 938.710013,42.408 938.710013,44.19 C938.710013,45.973 937.260013,47.417 935.480013,47.417 L786.830013,47.417 C775.270013,47.417 756.940013,50.44 745.990013,54.156 L705.040013,68.045 C701.440013,69.266 697.320013,69.845 693.060013,69.845" id="Fill-14" fill="url(#linearGradient-1)"></path>
                <path d="M41.8200131,25.477 L27.0300131,51.324 L8.96001307,51.079 C5.72001307,51.082 -0.00998692835,53.712 0,56.947 C0,60.182 5.74001307,62.798 8.97001307,62.794 L26.6500131,62.514 L41.8900131,89.001 C42.8200131,90.007 44.1200131,90.579 45.4900131,90.5770052 L48.9300131,90.574 C49.5800131,90.573 50.0200131,89.8889989 49.7400131,89.293 L42.5500131,62.488 L61.9100131,60.655 L69.4500131,69.541 C70.0200131,70.213 70.8200131,70.595 71.6600131,70.594 L73.7800131,70.592 C74.1800131,70.591 74.4500131,70.135 74.2800131,69.737 L68.8300131,57.122 L68.8200131,56.43 L74.2500131,43.803 C74.4200131,43.405 74.1500131,42.949 73.7500131,42.95 L71.6300131,42.952 C70.7900131,42.953 69.9800131,43.337 69.4200131,44.01 L61.7800131,53.061 L42.7300131,51.301 L49.6700131,25.167 C49.9400131,24.571 49.5100131,23.888 48.8500131,23.8889989 L45.4100131,23.892 C44.0400131,23.894 42.7400131,24.469 41.8200131,25.477" id="Fill-21" fill="url(#linearGradient-2)"></path>
            </g>
        </g>
    </g>
</svg>