<?xml version="1.0" encoding="UTF-8"?>
<svg width="3229px" height="80px" viewBox="0 0 3229 80" version="1.1" xmlns="http://www.w3.org/2000/svg" xmlns:xlink="http://www.w3.org/1999/xlink">
    <title>Group</title>
    <defs>
        <linearGradient x1="3.2769913%" y1="0%" x2="113.231143%" y2="0%" id="linearGradient-1">
            <stop stop-color="#FFFFFF" offset="0%"></stop>
            <stop stop-color="#2B5DC1" offset="100%"></stop>
        </linearGradient>
        <linearGradient x1="-390.983907%" y1="50%" x2="100%" y2="50%" id="linearGradient-2">
            <stop stop-color="#DEE4F0" offset="0%"></stop>
            <stop stop-color="#2B5DC1" offset="100%"></stop>
        </linearGradient>
    </defs>
    <g id="Page-1" stroke="none" stroke-width="1" fill="none" fill-rule="evenodd">
        <g id="Artboard" transform="translate(-287.000000, -498.000000)">
            <g id="Group" transform="translate(287.752000, 498.307999)">
                <path d="M470.148,63.0700011 L460.497,56.1000011 C449.765,48.3480011 429.514,41.8000011 416.276,41.8000011 L4.303,41.8000011 C1.927,41.8000011 0,39.8740011 0,37.4980011 C0,35.1220011 1.927,33.1950011 4.303,33.1950011 L416.276,33.1950011 C431.277,33.1950011 453.374,40.3410011 465.535,49.1240011 L475.186,56.0940011 C485.57,63.5930011 504.635,66.5850011 516.814,62.6250011 L582.169,41.3850011 C596.084,36.8620011 615.538,33.3220011 625.581,33.5200011 L1556.58912,33.8430011 C1558.96512,33.8870011 1560.85612,35.8480011 1560.8134,38.2240011 C1560.76812,40.5730011 1558.85012,42.4460011 1556.51212,42.4470011 C1556.48512,42.4470011 1556.45812,42.4460011 1556.43112,42.4460011 L625.422,42.1220011 C616.35,41.9750011 597.763,45.3650011 584.828,49.5680011 L519.473,70.8090011 C514.872,72.3040011 509.63,73.0160011 504.208,73.0160011 C492.037,73.0160011 478.954,69.4290011 470.148,63.0700011 Z" id="Fill-42" fill="url(#linearGradient-1)"></path>
                <path d="M1670.88725,42.5270822 C1668.51125,42.5270822 1666.58425,40.6010822 1666.58425,38.2250822 C1666.58425,35.8490822 1668.51125,33.9220822 1670.88725,33.9220822 C2078.37725,34.0067488 2285.46992,34.1150822 2292.16525,34.2470822 L3223.17337,34.5700822 C3225.54937,34.6140822 3227.44037,36.5750822 3227.39836,38.9510822 C3227.35237,41.3000822 3225.43437,43.1730822 3223.09637,43.1740822 C3223.06937,43.1740822 3223.04237,43.1730822 3223.01537,43.1730822 L2292.00625,42.8490822 C2285.95825,42.7510822 2078.91858,42.6437488 1670.88725,42.5270822 Z" id="Fill-42-Copy" fill="#F7F7F7" transform="translate(2446.991306, 38.548082) rotate(-180.000000) translate(-2446.991306, -38.548082) "></path>
                <path d="M1606.25,77.3340011 L1623.823,46.6310011 L1645.286,46.9220011 C1649.13,46.9170011 1655.938,43.7940011 1655.934,39.9510011 C1655.93,36.1080011 1649.114,33 1645.27,33.0040011 L1624.267,33.3370011 L1606.163,1.8730011 C1605.065,0.678001103 1603.516,-0.000998896994 1601.893,0 L1597.807,0.00500110301 C1597.026,0.00600110301 1596.51,0.818001103 1596.841,1.5260011 L1605.377,33.3690011 L1582.382,35.5460011 L1573.432,24.9890011 C1572.756,24.1920011 1571.802,23.7380011 1570.802,23.7390011 L1568.285,23.7420011 C1567.804,23.7430011 1567.486,24.2850011 1567.69,24.7570011 L1574.169,39.7420011 L1574.17,40.5650011 L1567.726,55.5650011 C1567.523,56.0380011 1567.842,56.5790011 1568.323,56.5790011 L1570.84,56.5760011 C1571.839,56.5750011 1572.792,56.1190011 1573.467,55.3200011 L1582.541,44.5670011 L1605.175,46.6580011 L1596.929,77.7030011 C1596.599,78.4110011 1597.117,79.2230011 1597.898,79.222002 L1601.985,79.2170011 C1603.607,79.2150011 1605.155,78.5320011 1606.25,77.3340011" id="Fill-48" fill="url(#linearGradient-2)"></path>
            </g>
        </g>
    </g>
</svg>