<?xml version="1.0" encoding="UTF-8"?>
<svg width="1503px" height="79px" viewBox="0 0 1503 79" version="1.1" xmlns="http://www.w3.org/2000/svg" xmlns:xlink="http://www.w3.org/1999/xlink">
    <title>Group 2</title>
    <defs>
        <linearGradient x1="0%" y1="49.9065221%" x2="100%" y2="50.1491204%" id="linearGradient-1">
            <stop stop-color="#DEE4F0" offset="0%"></stop>
            <stop stop-color="#FFFFFF" offset="100%"></stop>
        </linearGradient>
        <linearGradient x1="65.8678645%" y1="-60.5588756%" x2="235.726244%" y2="93.9331027%" id="linearGradient-2">
            <stop stop-color="#DEE4F0" offset="0%"></stop>
            <stop stop-color="#D8DEF0" offset="100%"></stop>
        </linearGradient>
    </defs>
    <g id="Page-1" stroke="none" stroke-width="1" fill="none" fill-rule="evenodd">
        <g id="Artboard" transform="translate(-493.000000, -1435.000000)">
            <g id="Group-2" transform="translate(493.000000, 1435.000000)">
                <path d="M846.12,78.51 C831.15,78.51 810.36,69.9 799.78,59.31 L784.29,43.83 C774.91,34.45 755.78,26.52 742.51,26.52 L724.31,26.52 C711.05,26.52 691.91,34.45 682.53,43.83 L668.3,58.06 C657.71,68.64 636.92,77.25 621.95,77.25 L558.05,77.25 C543.08,77.25 522.29,68.64 511.7,58.06 L492.95,39.31 C483.57,29.93 464.43,22 451.17,22 L49.3147994,22 C47.5347994,22 46.0847994,20.56 46.0847994,18.77 C46.0847994,16.99 47.5347994,15.55 49.3147994,15.55 L451.17,15.55 C466.14,15.55 486.93,24.16 497.52,34.74 L516.26,53.49 C525.65,62.88 544.78,70.8 558.05,70.8 L621.95,70.8 C635.22,70.8 654.36,62.88 663.74,53.49 L677.97,39.27 C688.55,28.68 709.34,20.07 724.31,20.07 L742.51,20.07 C757.48,20.07 778.27,28.68 788.86,39.27 L804.34,54.75 C813.72,64.13 832.86,72.06 846.12,72.06 L1498.96845,72.06 C1500.74845,72.06 1502.19845,73.5 1502.19845,75.28 C1502.19845,77.07 1500.74845,78.51 1498.96845,78.51 L846.12,78.51 Z" id="Fill-9" fill="url(#linearGradient-1)"></path>
                <path d="M22.74,35.38 L14.7,21.33 L4.88,21.47 C3.12,21.46 0,20.03 0,18.28 C0.01,16.52 3.12,15.1 4.88,15.1 L14.49,15.25 L22.78,0.85 C23.28,0.31 23.99,0 24.73,0 L26.6,0 C26.96,0 27.19,0.37 27.04,0.69 L23.14,15.26 L33.66,16.26 L37.75,11.43 C38.06,11.07 38.5,10.86 38.96,10.86 L40.11,10.86 C40.33,10.86 40.47,11.11 40.38,11.32 L37.42,18.18 L37.42,18.56 L40.36,25.42 C40.46,25.64 40.31,25.88 40.09,25.88 L38.94,25.88 C38.48,25.88 38.05,25.67 37.74,25.31 L33.58,20.39 L23.23,21.34 L27,35.55 C27.15,35.87 26.92,36.24 26.56,36.24 L24.69,36.24 C23.95,36.24 23.24,35.93 22.74,35.38" id="Fill-27" fill="url(#linearGradient-2)"></path>
            </g>
        </g>
    </g>
</svg>