<?xml version="1.0" standalone="no"?>
<!DOCTYPE svg PUBLIC "-//W3C//DTD SVG 20010904//EN"
 "http://www.w3.org/TR/2001/REC-SVG-20010904/DTD/svg10.dtd">
<svg version="1.0" xmlns="http://www.w3.org/2000/svg"
 width="700.000000pt" height="700.000000pt" viewBox="0 0 700.000000 700.000000"
 preserveAspectRatio="xMidYMid meet">
<metadata>
Created by potrace 1.14, written by Peter Selinger 2001-2017
</metadata>
<g transform="translate(0.000000,700.000000) scale(0.100000,-0.100000)"
fill="#000000" stroke="none">
<path d="M1527 5774 c-1 -1 -18 -4 -37 -7 -82 -11 -184 -82 -234 -164 -48 -78
-62 -188 -36 -283 13 -50 49 -103 285 -419 116 -156 239 -323 275 -371 83
-113 381 -516 573 -775 81 -110 156 -210 165 -223 20 -27 148 -200 236 -319
34 -45 69 -92 78 -105 34 -46 178 -241 472 -638 164 -223 359 -486 432 -585
73 -99 137 -185 141 -190 179 -229 376 -372 618 -448 78 -24 100 -29 215 -47
30 -5 435 -8 900 -7 l845 2 57 27 c92 43 173 141 196 235 15 64 6 167 -20 223
-19 41 -388 552 -626 865 -9 13 -25 34 -34 46 -19 26 -460 624 -560 759 -35
47 -65 87 -68 90 -3 3 -23 30 -45 60 -22 30 -89 123 -151 205 -61 83 -202 274
-314 425 -112 151 -260 352 -330 445 -69 94 -157 213 -195 265 -100 135 -311
420 -337 455 -99 129 -221 236 -363 319 -128 74 -298 132 -445 152 -43 6
-1687 13 -1693 8z"/>
<path d="M1878 3692 c-37 -19 -62 -52 -273 -356 -82 -119 -175 -253 -205 -296
-30 -44 -96 -139 -147 -212 -51 -73 -158 -227 -238 -343 -80 -115 -166 -239
-191 -275 -122 -176 -260 -375 -359 -517 -60 -87 -118 -175 -128 -195 -38 -76
-16 -189 49 -250 65 -61 1 -58 1338 -57 l1221 0 76 23 c293 86 445 424 314
700 -18 39 -422 595 -498 686 -7 8 -23 31 -37 50 -13 19 -28 40 -33 45 -5 6
-172 229 -372 497 -200 267 -373 492 -385 498 -35 19 -96 19 -132 2z"/>
</g>
</svg>
