<svg width="160" height="195" viewBox="0 0 160 195" fill="none" xmlns="http://www.w3.org/2000/svg">
<path d="M4 2C4 0.895431 3.10457 3.70216e-08 2 2.38498e-08C0.89543 1.06779e-08 3.70216e-08 0.895431 2.38498e-08 2C1.06779e-08 3.10457 0.89543 4 2 4C3.10457 4 4 3.10457 4 2Z" fill="#F1F1F1"/>
<path d="M21.2871 19.2871C21.2871 18.1825 20.3917 17.2871 19.2871 17.2871C18.1825 17.2871 17.2871 18.1825 17.2871 19.2871C17.2871 20.3917 18.1825 21.2871 19.2871 21.2871C20.3917 21.2871 21.2871 20.3917 21.2871 19.2871Z" fill="#F1F1F1"/>
<path d="M21.2871 2C21.2871 0.895431 20.3917 3.70216e-08 19.2871 2.38498e-08C18.1825 1.06779e-08 17.2871 0.895431 17.2871 2C17.2871 3.10457 18.1825 4 19.2871 4C20.3917 4 21.2871 3.10457 21.2871 2Z" fill="#F1F1F1"/>
<path d="M38.5742 19.2871C38.5742 18.1825 37.6788 17.2871 36.5742 17.2871C35.4696 17.2871 34.5742 18.1825 34.5742 19.2871C34.5742 20.3917 35.4696 21.2871 36.5742 21.2871C37.6788 21.2871 38.5742 20.3917 38.5742 19.2871Z" fill="#F1F1F1"/>
<path d="M38.5742 2C38.5742 0.895431 37.6788 3.70216e-08 36.5742 2.38498e-08C35.4696 1.06779e-08 34.5742 0.895431 34.5742 2C34.5742 3.10457 35.4696 4 36.5742 4C37.6788 4 38.5742 3.10457 38.5742 2Z" fill="#F1F1F1"/>
<path d="M55.8613 19.2871C55.8613 18.1825 54.9659 17.2871 53.8613 17.2871C52.7568 17.2871 51.8613 18.1825 51.8613 19.2871C51.8613 20.3917 52.7568 21.2871 53.8613 21.2871C54.9659 21.2871 55.8613 20.3917 55.8613 19.2871Z" fill="#F1F1F1"/>
<path d="M55.8613 2C55.8613 0.895431 54.9659 3.70216e-08 53.8613 2.38498e-08C52.7568 1.06779e-08 51.8613 0.895431 51.8613 2C51.8613 3.10457 52.7568 4 53.8613 4C54.9659 4 55.8613 3.10457 55.8613 2Z" fill="#F1F1F1"/>
<path d="M73.1484 19.2871C73.1484 18.1825 72.253 17.2871 71.1484 17.2871C70.0439 17.2871 69.1484 18.1825 69.1484 19.2871C69.1484 20.3917 70.0439 21.2871 71.1484 21.2871C72.253 21.2871 73.1484 20.3917 73.1484 19.2871Z" fill="#F1F1F1"/>
<path d="M73.1484 2C73.1484 0.895431 72.253 3.70216e-08 71.1484 2.38498e-08C70.0439 1.06779e-08 69.1484 0.895431 69.1484 2C69.1484 3.10457 70.0439 4 71.1484 4C72.253 4 73.1484 3.10457 73.1484 2Z" fill="#F1F1F1"/>
<path d="M90.4355 19.2871C90.4355 18.1825 89.5401 17.2871 88.4355 17.2871C87.331 17.2871 86.4355 18.1825 86.4355 19.2871C86.4355 20.3917 87.331 21.2871 88.4355 21.2871C89.5401 21.2871 90.4355 20.3917 90.4355 19.2871Z" fill="#F1F1F1"/>
<path d="M90.4355 2C90.4355 0.895431 89.5401 3.70216e-08 88.4355 2.38498e-08C87.331 1.06779e-08 86.4355 0.895431 86.4355 2C86.4355 3.10457 87.331 4 88.4355 4C89.5401 4 90.4355 3.10457 90.4355 2Z" fill="#F1F1F1"/>
<path d="M107.723 19.2871C107.723 18.1825 106.827 17.2871 105.723 17.2871C104.618 17.2871 103.723 18.1825 103.723 19.2871C103.723 20.3917 104.618 21.2871 105.723 21.2871C106.827 21.2871 107.723 20.3917 107.723 19.2871Z" fill="#F1F1F1"/>
<path d="M107.723 36.2871C107.723 35.1825 106.827 34.2871 105.723 34.2871C104.618 34.2871 103.723 35.1825 103.723 36.2871C103.723 37.3917 104.618 38.2871 105.723 38.2871C106.827 38.2871 107.723 37.3917 107.723 36.2871Z" fill="#F1F1F1"/>
<path d="M107.723 2C107.723 0.895431 106.827 3.70216e-08 105.723 2.38498e-08C104.618 1.06779e-08 103.723 0.895431 103.723 2C103.723 3.10457 104.618 4 105.723 4C106.827 4 107.723 3.10457 107.723 2Z" fill="#F1F1F1"/>
<path d="M125.009 19.2871C125.009 18.1825 124.113 17.2871 123.009 17.2871C121.904 17.2871 121.009 18.1825 121.009 19.2871C121.009 20.3917 121.904 21.2871 123.009 21.2871C124.113 21.2871 125.009 20.3917 125.009 19.2871Z" fill="#F1F1F1"/>
<path d="M125.009 36.2871C125.009 35.1825 124.113 34.2871 123.009 34.2871C121.904 34.2871 121.009 35.1825 121.009 36.2871C121.009 37.3917 121.904 38.2871 123.009 38.2871C124.113 38.2871 125.009 37.3917 125.009 36.2871Z" fill="#F1F1F1"/>
<path d="M125.009 2C125.009 0.895431 124.113 3.70216e-08 123.009 2.38498e-08C121.904 1.06779e-08 121.009 0.895431 121.009 2C121.009 3.10457 121.904 4 123.009 4C124.113 4 125.009 3.10457 125.009 2Z" fill="#F1F1F1"/>
<path d="M142.296 19.2871C142.296 18.1825 141.4 17.2871 140.296 17.2871C139.191 17.2871 138.296 18.1825 138.296 19.2871C138.296 20.3917 139.191 21.2871 140.296 21.2871C141.4 21.2871 142.296 20.3917 142.296 19.2871Z" fill="#F1F1F1"/>
<path d="M142.296 2C142.296 0.895431 141.4 3.70216e-08 140.296 2.38498e-08C139.191 1.06779e-08 138.296 0.895431 138.296 2C138.296 3.10457 139.191 4 140.296 4C141.4 4 142.296 3.10457 142.296 2Z" fill="#F1F1F1"/>
<path d="M159.583 19.2871C159.583 18.1825 158.688 17.2871 157.583 17.2871C156.478 17.2871 155.583 18.1825 155.583 19.2871C155.583 20.3917 156.478 21.2871 157.583 21.2871C158.688 21.2871 159.583 20.3917 159.583 19.2871Z" fill="#F1F1F1"/>
<path d="M159.583 2C159.583 0.895431 158.688 3.70216e-08 157.583 2.38498e-08C156.478 1.06779e-08 155.583 0.895431 155.583 2C155.583 3.10457 156.478 4 157.583 4C158.688 4 159.583 3.10457 159.583 2Z" fill="#F1F1F1"/>
<path d="M140 39C141.105 39 142 38.1046 142 37C142 35.8954 141.105 35 140 35C138.895 35 138 35.8954 138 37C138 38.1046 138.895 39 140 39Z" fill="#F1F1F1"/>
<path d="M157.287 39C158.392 39 159.287 38.1046 159.287 37C159.287 35.8954 158.392 35 157.287 35C156.183 35 155.287 35.8954 155.287 37C155.287 38.1046 156.183 39 157.287 39Z" fill="#F1F1F1"/>
<path d="M140 56.2871C141.105 56.2871 142 55.3917 142 54.2871C142 53.1825 141.105 52.2871 140 52.2871C138.895 52.2871 138 53.1825 138 54.2871C138 55.3917 138.895 56.2871 140 56.2871Z" fill="#F1F1F1"/>
<path d="M123 56.2871C124.105 56.2871 125 55.3917 125 54.2871C125 53.1825 124.105 52.2871 123 52.2871C121.895 52.2871 121 53.1825 121 54.2871C121 55.3917 121.895 56.2871 123 56.2871Z" fill="#F1F1F1"/>
<path d="M157.287 56.2871C158.392 56.2871 159.287 55.3917 159.287 54.2871C159.287 53.1825 158.392 52.2871 157.287 52.2871C156.183 52.2871 155.287 53.1825 155.287 54.2871C155.287 55.3917 156.183 56.2871 157.287 56.2871Z" fill="#F1F1F1"/>
<path d="M140 73.5742C141.105 73.5742 142 72.6788 142 71.5742C142 70.4696 141.105 69.5742 140 69.5742C138.895 69.5742 138 70.4696 138 71.5742C138 72.6788 138.895 73.5742 140 73.5742Z" fill="#F1F1F1"/>
<path d="M157.287 73.5742C158.392 73.5742 159.287 72.6788 159.287 71.5742C159.287 70.4696 158.392 69.5742 157.287 69.5742C156.183 69.5742 155.287 70.4696 155.287 71.5742C155.287 72.6788 156.183 73.5742 157.287 73.5742Z" fill="#F1F1F1"/>
<path d="M140 90.8608C141.105 90.8608 142 89.9654 142 88.8608C142 87.7563 141.105 86.8608 140 86.8608C138.895 86.8608 138 87.7563 138 88.8608C138 89.9654 138.895 90.8608 140 90.8608Z" fill="#F1F1F1"/>
<path d="M157.287 90.8608C158.392 90.8608 159.287 89.9654 159.287 88.8608C159.287 87.7563 158.392 86.8608 157.287 86.8608C156.183 86.8608 155.287 87.7563 155.287 88.8608C155.287 89.9654 156.183 90.8608 157.287 90.8608Z" fill="#F1F1F1"/>
<path d="M140 108.148C141.105 108.148 142 107.253 142 106.148C142 105.043 141.105 104.148 140 104.148C138.895 104.148 138 105.043 138 106.148C138 107.253 138.895 108.148 140 108.148Z" fill="#F1F1F1"/>
<path d="M157.287 108.148C158.392 108.148 159.287 107.253 159.287 106.148C159.287 105.043 158.392 104.148 157.287 104.148C156.183 104.148 155.287 105.043 155.287 106.148C155.287 107.253 156.183 108.148 157.287 108.148Z" fill="#F1F1F1"/>
<path d="M140 125.435C141.105 125.435 142 124.54 142 123.435C142 122.33 141.105 121.435 140 121.435C138.895 121.435 138 122.33 138 123.435C138 124.54 138.895 125.435 140 125.435Z" fill="#F1F1F1"/>
<path d="M157.287 125.435C158.392 125.435 159.287 124.54 159.287 123.435C159.287 122.33 158.392 121.435 157.287 121.435C156.183 121.435 155.287 122.33 155.287 123.435C155.287 124.54 156.183 125.435 157.287 125.435Z" fill="#F1F1F1"/>
<path d="M140 142.722C141.105 142.722 142 141.827 142 140.722C142 139.618 141.105 138.722 140 138.722C138.895 138.722 138 139.618 138 140.722C138 141.827 138.895 142.722 140 142.722Z" fill="#F1F1F1"/>
<path d="M157.287 142.722C158.392 142.722 159.287 141.827 159.287 140.722C159.287 139.618 158.392 138.722 157.287 138.722C156.183 138.722 155.287 139.618 155.287 140.722C155.287 141.827 156.183 142.722 157.287 142.722Z" fill="#F1F1F1"/>
<path d="M140 160.009C141.105 160.009 142 159.113 142 158.009C142 156.904 141.105 156.009 140 156.009C138.895 156.009 138 156.904 138 158.009C138 159.113 138.895 160.009 140 160.009Z" fill="#F1F1F1"/>
<path d="M157.287 160.009C158.392 160.009 159.287 159.113 159.287 158.009C159.287 156.904 158.392 156.009 157.287 156.009C156.183 156.009 155.287 156.904 155.287 158.009C155.287 159.113 156.183 160.009 157.287 160.009Z" fill="#F1F1F1"/>
<path d="M140 177.296C141.105 177.296 142 176.4 142 175.296C142 174.191 141.105 173.296 140 173.296C138.895 173.296 138 174.191 138 175.296C138 176.4 138.895 177.296 140 177.296Z" fill="#F1F1F1"/>
<path d="M157.287 177.296C158.392 177.296 159.287 176.4 159.287 175.296C159.287 174.191 158.392 173.296 157.287 173.296C156.183 173.296 155.287 174.191 155.287 175.296C155.287 176.4 156.183 177.296 157.287 177.296Z" fill="#F1F1F1"/>
<path d="M157.287 194.583C158.392 194.583 159.287 193.688 159.287 192.583C159.287 191.478 158.392 190.583 157.287 190.583C156.183 190.583 155.287 191.478 155.287 192.583C155.287 193.688 156.183 194.583 157.287 194.583Z" fill="#F1F1F1"/>
</svg>
