<svg width="200" height="200" viewBox="0 0 200 200" fill="none" xmlns="http://www.w3.org/2000/svg">
<rect width="200" height="200" fill="none"/>
<path d="M36.4153 51.0803C31.4949 44.4307 36.2299 35 44.4892 35H87.5896C98.5022 35 108.77 40.1805 115.271 48.9664L189.973 149.92C194.893 156.569 190.158 166 181.899 166H138.799C127.886 166 117.618 160.819 111.117 152.034L36.4153 51.0803Z" fill="#2B5DC1"/>
<path d="M51.9938 95.8709C53.6092 93.5433 57.0222 93.4846 58.7162 95.7552L93.7562 142.724C100.916 152.321 94.0885 166 82.1378 166H15.2299C10.2059 166 7.25535 160.334 10.1258 156.198L51.9938 95.8709Z" fill="#2B5DC1"/>
</svg>
