<?xml version="1.0" encoding="UTF-8"?>
<svg width="508px" height="670px" viewBox="0 0 508 670" version="1.1" xmlns="http://www.w3.org/2000/svg" xmlns:xlink="http://www.w3.org/1999/xlink">
    <title>waves lines investors</title>
    <defs>
        <path d="M191.379011,666.907936 C194.694756,667.975193 197.9747,669.005381 201.21922,669.999266 L193.781578,670 C192.757541,669.67529 191.730086,669.347033 190.699203,669.015208 C139.970176,652.681278 110.446231,654.122172 88.4395998,669.996875 L84.4347185,669.988525 C107.112423,651.874708 137.483622,649.559643 191.379011,666.907936 Z M105.866692,56.7657661 C181.257422,42.362296 327.265117,61.0029694 393.803234,124.100289 C421.622496,150.482733 433.262323,181.842569 428.413025,217.318762 C417.765168,295.219583 440.613426,349.010938 464.561013,399.942497 L467.327232,405.807733 C467.788467,406.78356 468.249648,407.758632 468.710544,408.733099 C483.537916,440.085382 497.541965,469.692935 504.634631,504.323197 C513.441924,547.322125 507.05928,612.466293 460.084533,654.558867 C454.126976,659.89729 447.190062,665.139913 439.130371,669.994386 L434.739732,669.994386 C444.073097,664.700344 451.961581,658.863953 458.611616,652.904772 C504.883894,611.446645 511.153236,547.193725 502.466798,504.768821 C495.427006,470.402912 481.475831,440.908654 466.708887,409.677218 C464.888511,405.827912 463.063704,401.969281 461.248523,398.092029 L458.534729,392.261023 C436.009226,343.533565 416.086106,291.170399 426.222531,217.016644 C430.966082,182.288193 419.545304,151.570358 392.277442,125.709067 C326.252958,63.0951357 181.204548,44.6130742 106.282131,58.9410148 C100.073216,60.1268275 94.1739914,60.6857456 88.561797,60.6857456 C51.2158647,60.6919488 26.0675183,35.795048 1,3.62359624 L1,0 C29.9854339,37.5597496 58.6679052,65.7831661 105.866692,56.7657661 Z" id="path-1"></path>
        <linearGradient x1="43.4697578%" y1="25.6467814%" x2="46.211854%" y2="92.4366874%" id="linearGradient-3">
            <stop stop-color="#FFFFFF" stop-opacity="0" offset="0%"></stop>
            <stop stop-color="#26B6BA" offset="18.0843327%"></stop>
            <stop stop-color="#2B5DC1" offset="100%"></stop>
        </linearGradient>
        <path d="M186.22884,663.104698 C194.074697,665.613082 201.714243,667.907088 209.152745,669.997523 L201.390196,670 C196.21447,668.480542 190.944814,666.864635 185.579576,665.148858 C132.272476,648.189833 102.807929,651.129123 80.635764,669.991095 L77.1006517,669.995049 C99.8995315,649.020795 130.041548,645.222997 186.22884,663.104698 Z M101.67032,62.0327427 L104.338574,61.6464252 C178.316883,49.9245627 321.328527,68.1786859 386.405884,131.864455 C412.489674,157.390056 423.345966,187.554617 418.672778,221.528407 C408.718317,293.783465 427.460708,344.814456 448.751764,392.260622 L451.369792,398.05364 C453.121265,401.905306 454.88261,405.737882 456.639603,409.560962 C469.941958,438.526182 483.704837,468.471995 490.62025,501.970574 C499.38531,544.377467 493.194656,608.659136 446.915747,650.22121 C439.142478,657.204087 429.664092,664.025175 418.148539,669.996176 L413.346969,669.996176 C426.424901,663.683074 436.986931,656.251802 445.481327,648.622088 C491.080775,607.663456 497.165734,544.256779 488.521468,502.400527 C481.651352,469.143325 468.552836,440.638229 454.684262,410.458582 C453.801099,408.536619 452.916847,406.612282 452.033296,404.684355 L449.38653,398.888594 C426.937274,349.512429 406.106026,297.012018 416.543797,221.234229 C421.118841,187.977027 410.473937,158.42345 384.903518,133.403233 C320.316884,70.2077599 178.226288,52.1195833 104.678305,63.7660156 C59.0201459,71.0091402 30.4237082,45.2858888 2,10.42049 L2,7 C29.9993113,41.6773553 57.8104381,67.7855074 101.67032,62.0327427 Z" id="path-4"></path>
        <path d="M180.078676,659.282457 C193.198985,663.458322 205.724857,667.012761 217.682409,670 L209.282068,669.994822 C199.693621,667.452913 189.754529,664.555349 179.452408,661.276136 C124.025117,643.801049 94.9501029,648.252998 72.6956956,669.992423 L69.5405911,669.989117 C92.3999019,646.268459 122.026042,640.983631 180.078676,659.282457 Z M101.817704,65.0148588 C177.92069,55.5146728 316.235566,75.7006801 377.964549,138.305245 C402.343763,163.022342 412.424428,192.066631 407.927365,224.622515 C396.835615,304.679329 420.58856,358.131091 443.564327,409.82328 C456.006705,437.825418 468.879172,466.779085 475.609676,499.199036 C484.324622,541.126725 478.326022,604.697922 432.751758,645.847774 C423.035453,654.621349 410.591017,663.144033 394.741831,669.995745 L389.282333,669.995745 C407.127805,662.953165 420.857781,653.776503 431.355857,644.299651 C476.273671,603.738841 482.174181,541.013448 473.572415,499.621938 C466.879638,467.420989 454.05999,438.573048 441.662885,410.669083 C438.668895,403.933981 435.661718,397.169057 432.719426,390.319551 L430.215173,384.426553 C411.579762,340.054558 396.547632,291.540426 405.859923,224.335546 C410.258896,192.459326 400.374411,164.004078 376.478104,139.770297 C316.067785,78.5043971 181.558387,58.2078906 105.262983,66.7150437 L102.074247,67.0916085 C58.4671658,72.5347949 29.3950123,47.3084428 2,15.1865974 L2.00536972,12 C30.1481694,45.4544423 58.1336935,70.472112 101.817704,65.0148588 Z" id="path-6"></path>
        <path d="M173.932704,655.476028 C193.839117,661.723231 212.334638,666.497257 229.516143,670 L219.840912,669.998209 C205.254761,666.727252 189.768771,662.568158 173.329424,657.408354 C115.964535,639.39805 87.4294031,645.382393 65.0105089,669.994333 L62.5163281,669.991187 C85.4515166,644.227255 114.910892,636.9523 173.932704,655.476028 Z M96.5896694,69.5962043 L99.2918282,69.3925039 C175.659595,62.576526 312.038686,85.2587117 369.470987,145.628802 C392.169414,169.488499 401.497639,197.356262 397.176642,228.454633 C386.159233,307.378072 408.699299,359.860348 430.500347,410.614097 C442.083332,437.576083 454.05845,465.458942 460.596502,496.708277 C469.246035,537.9891 463.492248,600.60099 418.804247,641.172287 C406.760247,652.110389 390.406513,662.672906 368.381674,669.997515 L361.573907,669.997515 C386.442058,662.777597 404.480896,651.45084 417.446866,639.677754 C461.493881,599.672568 467.157177,537.883426 458.620758,497.123425 C452.120411,466.070343 440.182999,438.285609 428.64526,411.414201 C427.833624,409.524927 427.020975,407.633272 426.209064,405.737965 L423.777297,400.039821 C403.560233,352.442827 384.899605,301.769798 395.170735,228.175352 C399.401239,197.718573 390.26154,170.416921 368.008032,147.025209 C311.013109,87.1155562 175.455988,64.6220742 99.4728124,71.4154076 C57.6085173,75.1467063 29.0134774,51.3294256 2,21.0460008 L2,18 C28.523022,48.0185026 56.3421746,72.0587657 96.5896694,69.5962043 L96.5896694,69.5962043 Z" id="path-8"></path>
        <path d="M167.150188,651.652363 C197.20264,660.986108 223.942695,666.854705 247.723876,670 L234.485283,669.99864 C213.952779,666.584243 191.378852,661.231112 166.568596,653.525955 C107.460205,635.168256 79.5498127,642.673169 56.8802925,669.99312 L54.5108808,669.99851 C77.6452638,641.660041 106.475369,632.809534 167.150188,651.652363 Z M93.1993788,73.0595284 L95.969391,72.954154 C172.074835,68.9576612 304.519155,90.9421493 360.729627,152.256962 C381.833102,175.276459 390.428576,202.005366 386.281902,231.695757 C376.542911,300.828369 392.261887,349.244343 410.367764,394.12435 L412.690341,399.835827 C414.245,403.632439 415.809836,407.408734 417.370629,411.175304 C428.111195,437.103402 439.221864,463.907856 445.574056,493.983543 C454.192189,534.749281 448.633077,596.585375 404.613374,636.71651 C389.760442,650.251063 368.19483,663.230823 337.247744,669.99819 L326.807739,669.99819 C362.793207,664.109932 387.093695,650.02422 403.291575,635.258432 C446.69192,595.693908 452.160394,534.643514 443.655558,494.391502 C437.341132,464.497131 426.268228,437.775779 415.557875,411.930785 L413.204293,406.244073 C393.203184,357.822255 373.700222,306.948618 384.340745,231.416229 C388.404335,202.337777 379.97503,176.145262 359.286978,153.579053 C303.499481,92.7401933 171.780263,70.9370206 96.075135,74.9184038 C55.8438795,77.0105278 27.6893182,54.455147 1,25.8908431 L1,23 C27.1848296,51.2685036 54.5870195,73.9742493 93.1993788,73.0595284 L93.1993788,73.0595284 Z" id="path-10"></path>
        <path d="M93.4922902,77.3017993 C165.490323,79.4766237 301.447186,99.9109115 354.362494,162.701415 C372.222354,183.890851 379.340633,208.387831 375.528618,235.505173 C365.859511,303.59594 380.55117,351.133942 397.588619,395.139962 L399.822388,400.861247 C400.196297,401.811922 400.570863,402.761278 400.945858,403.709489 L403.199181,409.386421 C403.574992,410.330754 403.950781,411.274292 404.326321,412.217209 C414.207368,437.031352 424.420551,462.683708 430.557519,491.485029 C439.125118,531.681523 433.780748,592.674776 390.512482,632.297359 C357.668758,662.38243 291.09813,689.816934 160.447894,649.658197 C99.9163543,631.04692 72.8223767,640.072522 49.8773387,670 L47.6227579,670 C70.9743405,639.205632 98.9927032,628.782514 161.006486,647.838292 C290.788639,687.732727 356.755383,660.645591 389.236777,630.900336 C431.90116,591.813908 437.162496,531.583354 428.700576,491.885257 C422.601351,463.242517 412.410814,437.658124 402.559961,412.919496 C382.94129,363.653682 362.650798,312.71144 373.64903,235.240872 C377.38556,208.682339 370.403155,184.683755 352.905625,163.924754 C300.428133,101.64775 165.112895,81.3644921 93.4319018,79.2047707 C54.9121755,78.0359524 27.3450769,56.4055578 1.00470991,29.7182452 L1,27 C27.4754083,54.0375113 55.0069239,76.1392246 93.4922902,77.3017993 Z" id="path-12"></path>
        <path d="M91.1343869,81.3638625 C155.197575,83.0932294 290.560549,103.128209 344.279256,166.616363 C362.261109,187.867185 369.444776,212.252013 365.641214,239.106286 C355.150242,312.243445 371.554387,359.099428 389.965574,407.409643 L392.228344,413.334334 L392.228344,413.334334 C401.264641,436.986635 410.618532,461.43943 416.531824,488.9054 C425.069046,528.552457 419.927052,588.740466 377.324125,627.889102 C345.428643,657.197717 280.91175,684.08975 154.683375,645.786917 C93.3485888,627.167821 66.4692386,638.3787 43.3381689,670 L41.0128968,670 C64.7195559,636.813858 91.8825975,624.81307 155.22026,644.027343 C280.624403,682.088517 344.536356,655.521213 376.076435,626.537327 C418.112231,587.909765 423.171045,528.461835 414.732127,489.290543 C408.849081,461.968057 399.525437,437.575677 390.504264,413.983791 C371.985526,365.538863 352.831601,315.440087 363.818831,238.849524 C367.546776,212.538982 360.49922,188.637471 342.87277,167.801998 C289.577521,104.812265 154.864857,84.9207699 91.0814547,83.2065067 C54.1305417,82.2096294 26.9880045,61.8860057 1,36.5762816 L1,34 C27.1168399,59.6236012 54.2319524,80.3702659 91.1343869,81.3638625 Z" id="path-14"></path>
        <path d="M88.5993237,85.2838756 C174.41034,91.244031 290.570721,117.932534 335.535543,173.530435 C352.010049,193.888633 358.516723,217.132484 354.881752,242.597229 C344.631133,313.484703 359.140553,359.194946 375.964117,405.684669 L378.122647,411.625762 C378.483921,412.617316 378.84581,413.609724 379.208098,414.603234 C387.392451,437.0388 395.856417,460.229772 401.509138,486.27618 C410.003333,525.391116 405.076095,584.78871 363.232361,623.480618 C332.369112,652.019867 270.075831,678.375991 148.557457,641.904977 C86.0377328,623.14097 60.1334269,635.96722 36.6137862,670 L34.4299899,670 C58.538907,634.474972 84.6880993,620.886798 149.063783,640.205313 C269.788661,676.434597 331.507602,650.403297 362.023223,622.18132 C403.322845,583.995533 408.166954,525.308021 399.771002,486.653883 C394.140953,460.72834 385.707215,437.590246 377.537976,415.207559 C359.348005,365.32053 342.155574,318.198287 353.128501,242.347945 C356.680344,217.389322 350.302141,194.606269 334.160148,174.648436 C289.550511,119.496225 173.934242,92.9890194 88.4784099,87.0515263 C53.177362,84.5974139 26.6067292,65.2390594 1,41.4318537 L1,39 C26.7467662,63.0951826 53.3168468,82.8307484 88.5993237,85.2838756 Z" id="path-16"></path>
        <path d="M86.0645222,90.2321132 C155.807601,98.1898104 279.804526,120.592048 326.710239,181.304375 C341.723692,200.734733 347.576523,222.782457 344.117689,246.84412 C334.095825,315.463961 346.799905,360.005065 362.090343,404.683788 L364.142626,410.643892 C364.830651,412.632283 365.522016,414.623072 366.214954,416.618384 C373.540432,437.708167 381.115127,459.51452 386.484627,483.975954 C394.935358,522.497242 390.230438,581.014602 349.139795,619.181378 C319.309241,646.893775 259.240324,672.667663 142.425388,638.076194 C78.9103868,619.272733 54.0550432,633.689229 30.0215932,670 L27.9489338,670 C52.5656386,632.268173 77.6109876,617.10277 142.91627,636.439398 C258.930691,670.789495 318.470965,645.33995 347.976781,617.929266 C388.531229,580.252776 393.168181,522.421814 384.808074,484.345553 C379.468783,459.982177 371.909192,438.22108 364.598818,417.176554 C363.235222,413.250053 361.877619,409.34093 360.539396,405.433071 L358.548269,399.570214 C344.077802,356.553329 332.762141,312.714241 342.41848,246.602749 C345.816898,223.016285 340.069796,201.398503 325.358424,182.35283 C278.830313,122.13833 155.339374,99.8567782 85.8757212,91.9292524 C52.1922541,88.0879751 26.2250171,69.6371019 1,47.2874787 L1,45 C26.3730066,67.6108019 52.3771648,86.3923384 86.0645222,90.2321132 Z" id="path-18"></path>
        <path d="M84.5279293,93.4269098 C133.294273,101.291219 195.86341,113.242551 247.376729,136.042249 C311.877803,164.590976 341.1361,202.869991 334.351677,249.8141 C324.735726,315.15467 335.105973,358.318 348.520209,400.578156 L350.410014,406.471201 C351.680781,410.398844 352.971069,414.327234 354.267242,418.273495 C360.734707,437.960709 367.421024,458.312725 372.454628,481.112423 C380.869125,519.157246 376.386424,576.979939 336.057216,614.745243 C307.259264,641.715064 249.399226,666.977552 137.301536,634.152938 C72.8745756,615.297638 49.1659269,631.360187 24.498566,670 L22.5313,670 C47.7970857,630.005157 71.6606229,613.217909 137.76188,632.574032 C249.127548,665.172009 306.444227,640.211704 334.932768,613.544066 C374.756352,576.247145 379.171132,519.089255 370.854742,481.475042 C365.828684,458.750891 359.157461,438.436647 352.705089,418.787206 C336.7666,370.256637 321.711066,324.415496 332.721604,249.572353 C348.886493,137.734473 149.715747,105.612434 84.2713437,95.0586972 C52.4269745,89.9184507 26.3527268,71.6902002 2,51.1372293 L2,49 C27.0025104,70.2742668 52.4077484,88.2472574 84.5279293,93.4269098 Z" id="path-20"></path>
        <path d="M81.9884185,97.6532462 L89.4384578,99.2166774 C176.456123,117.471814 338.434153,151.444345 323.571777,253.528098 C313.652139,320.284439 323.936863,363.533146 336.872908,406.302601 L338.651699,412.133992 C339.547663,415.050365 340.452244,417.969376 341.359877,420.898324 C346.970028,438.987299 352.768692,457.695604 357.428737,478.586671 C365.79872,516.086363 361.538323,573.117616 321.958105,610.428488 C294.20143,636.598968 238.574973,661.289097 131.167726,630.28482 C65.9678949,611.475013 43.4795584,629.155249 18.0218056,670 L16.1769294,670 C41.6706454,629.015122 65.1488278,609.592787 131.612617,628.766706 C238.295973,659.559504 293.417215,635.163934 320.879809,609.272908 C359.962354,572.415205 364.162426,516.025941 355.875389,478.926548 C351.230425,458.103456 345.446842,439.432915 339.844231,421.366598 C338.326123,416.466521 336.816495,411.594205 335.341216,406.715641 L333.589025,400.856188 C321.462277,359.788554 312.489359,317.320193 322.003348,253.293961 C336.654589,152.690558 175.626665,118.914401 89.1142152,100.772556 L81.6641759,99.2091246 C51.3813055,92.8230816 25.9485012,75.3344916 2,56.0383044 L2,54 C26.0936616,73.4944345 51.6319327,91.2519973 81.9884185,97.6532462 Z" id="path-22"></path>
        <path d="M79.4472505,101.005443 C86.4914924,102.865865 94.153518,104.794352 102.252513,106.843841 C146.446654,117.99125 201.452012,131.876353 244.915361,154.859376 C296.613316,182.198509 318.815862,215.481919 312.788703,256.607841 C301.593255,331.327243 314.077008,374.222835 328.534655,423.8946 C333.281043,440.192202 338.178109,457.041881 342.39712,475.759545 C350.729667,512.786487 346.691471,569.120984 307.876568,606.034486 C281.161187,631.445133 227.745492,655.600373 125.042707,626.363004 C59.167255,607.607977 37.9662483,626.94385 11.5502811,670 L9.77958255,670 C36.148499,626.955347 58.3470187,605.786298 125.457074,624.895841 C206.213468,647.878864 268.926055,640.974125 306.836884,604.930333 C345.184681,568.455467 349.162606,512.725986 340.912933,476.092303 C336.708989,457.427578 331.811923,440.593025 327.073069,424.31811 C313.172934,376.552144 300.041262,331.425558 311.281913,256.38096 C317.203597,215.973494 295.264739,183.204348 244.20717,156.205535 C200.902034,133.313265 146.002151,119.45085 101.883349,108.318566 C93.7768205,106.276639 86.107261,104.34059 79.0554852,102.480168 C50.3137429,94.9032817 25.5286861,78.0589059 2,59.9228264 L2,58 C25.686402,76.314521 50.5932892,93.4037077 79.4472505,101.005443 Z" id="path-24"></path>
        <path d="M76.1465621,105.820753 C86.6585982,109.159263 98.5450528,112.595965 111.126268,116.22905 C197.042529,141.07905 314.706347,175.098624 301.996751,260.74426 C290.525643,336.185536 302.276166,379.012131 315.88442,428.606385 C319.758468,442.730853 323.768447,457.346278 327.438597,473.427022 C336.432732,512.771596 329.507777,567.728616 293.772896,601.831275 C268.006324,626.40936 216.654424,649.960211 118.300431,622.542126 C51.8261439,603.994755 30.9991696,626.188404 4.07392572,670 L2.35868605,670 C29.8706424,625.074454 50.7644143,602.193315 118.693122,621.129679 C196.015491,642.694041 256.210491,635.654466 292.760961,600.773829 C328.088048,567.071489 334.91483,512.688511 326.018868,473.75181 C322.348718,457.701278 318.34629,443.108512 314.472243,428.991598 C300.82623,379.238726 289.037948,336.276174 300.546815,260.532771 C313.075169,176.148517 196.121215,142.33288 110.726026,117.633944 C98.1297065,113.993306 86.2357002,110.556604 75.7085606,107.21054 C48.4262715,98.5496178 24.1791018,83.0813714 1,66.7878224 L1,65 C24.3411462,81.4429138 48.7301078,97.109669 76.1465621,105.820753 Z" id="path-26"></path>
        <path d="M73.8267581,111.175587 C87.0796919,116.140049 102.436747,121.112056 118.694486,126.370764 C159.323697,139.513762 205.372155,154.414693 240.059874,175.955027 C280.378765,200.996136 297.416089,230.269863 292.117943,265.45115 C280.250096,342.422947 290.891801,383.511793 304.364229,435.533018 C307.33876,447.001077 310.404115,458.853919 313.386215,471.710216 C322.377925,510.460181 315.717399,564.624122 280.575553,598.28891 C255.772661,622.047407 206.492334,644.983523 112.52593,619.361467 C48.0759238,601.778889 27.4877683,623.003369 1,665 L1.00559093,662.373146 C27.2695856,621.060563 48.4304514,600.435341 112.889232,618.010952 C186.768094,638.155502 244.411922,630.99551 279.60675,597.285454 C314.355019,563.997906 320.92472,510.392278 312.023834,472.027096 C309.049304,459.185889 305.976379,447.340592 303.009417,435.880078 C289.499145,383.707957 278.819596,342.49085 290.732856,265.247441 C300.229329,202.111932 235.029086,168.434629 166.295721,143.802644 L161.19897,141.994289 C160.348792,141.695551 159.498342,141.398115 158.647757,141.101943 L153.543671,139.339762 C152.693073,139.04849 151.842607,138.758404 150.992406,138.469467 L145.895447,136.749312 C136.560781,133.619829 127.290577,130.619981 118.263066,127.698644 C101.990189,122.432391 86.6179963,117.460384 73.3347874,112.488377 C47.4259848,102.789408 23.779648,87.8682653 1,72.6797577 L1.00551829,71 C23.9528312,86.3254791 47.7716616,101.422608 73.8267581,111.175587 Z" id="path-28"></path>
        <path d="M1.02495983,72.6874222 L0,72 C22.6772363,87.2517086 46.130729,103.017095 71.0538332,113.94031 C86.4659131,120.693667 104.583585,127.205293 123.756364,134.102177 C161.295517,147.608891 203.831351,162.905924 234.813776,183.687227 C270.498959,207.626139 285.413631,235.183461 280.401879,267.930443 C268.124971,348.05668 277.907308,388.176455 291.45788,443.714128 C293.372143,451.555273 295.354235,459.668367 297.351399,468.242259 C306.289652,506.496173 299.936408,560.00935 265.615326,593.330443 C231.671068,626.281385 176.496576,633.699502 106.053197,614.776505 C46.5131289,598.776716 25.5116194,616.869587 1.02717375,654 L1.02925088,651.575499 C25.3630899,615.065689 46.8424003,597.488725 106.399875,613.484756 C176.36092,632.279333 231.098297,624.974527 264.688341,592.371073 C298.640135,559.412576 304.902941,506.43574 296.055126,468.544423 C294.057962,459.985638 292.07587,451.872545 290.161607,444.031399 C276.580889,388.350199 266.768406,348.117113 279.082997,267.726483 C284.011848,235.546058 269.285587,208.419319 234.067666,184.797678 C203.228433,164.107025 160.767965,148.840208 123.311712,135.36371 C104.108788,128.459272 85.9760426,121.932538 70.5187439,115.164073 C46.1321285,104.4801 23.2042132,89.2091137 1.02457025,74.3008292 L1.02495983,72.6874222 Z" id="path-30"></path>
        <path d="M9.36011944,82.3852086 C28.5573526,94.778932 48.404315,107.588299 68.7045768,117.790449 C85.9903972,126.473612 106.449314,134.506861 128.101919,143.01621 C133.743376,145.232068 139.444,147.471207 145.154428,149.749456 L150.050331,151.712188 C215.330348,178.019501 280.04884,210.025785 270.521062,271.359262 C257.322492,356.35451 266.335597,394.238495 281.256705,456.993055 L283.288997,465.555304 C292.234107,503.295703 286.152339,556.120171 252.419303,589.076895 C219.8724,620.884933 167.251885,628.411852 100.246666,610.849039 C45.1620005,596.408552 23.8263649,611.584843 1.00536556,644 L1,641.851193 C23.3187645,610.780843 45.7889691,595.258662 100.571531,609.617224 C167.115895,627.06668 219.31333,619.64556 251.535369,588.170037 C284.913321,555.553385 290.911984,503.235246 282.049979,465.850033 L280.017686,457.287784 C265.058803,394.38208 256.023034,356.40741 269.266933,271.162776 C278.065527,214.516005 222.075373,183.065492 161.585842,157.817039 L156.738224,155.810033 C154.310759,154.812786 151.878667,153.824651 149.445807,152.844414 L144.580207,150.894109 L144.580207,150.894109 L139.719418,148.962702 C135.67267,147.360471 131.63808,145.775673 127.63351,144.202683 C105.950684,135.685776 85.4691028,127.637413 68.1379525,118.924021 C47.7772507,108.691642 27.9000683,95.8671613 8.67261522,83.4583236 C6.10724163,81.8023566 3.55002974,80.1516721 1,78.5121814 L1,77 C3.77981769,78.7837641 6.56516407,80.5813603 9.36011944,82.3852086 Z" id="path-32"></path>
        <path d="M23.7817876,96.3360103 C37.6373866,105.139305 51.9608763,114.244859 66.1409801,122.352958 C84.9396169,133.120937 107.217247,142.634541 130.807989,152.71488 C137.233095,155.459392 143.67879,158.21274 150.075979,161.001805 L154.863697,163.100721 C214.569494,189.43138 268.493898,219.491906 259.704302,275.432056 C245.893983,363.38944 253.123648,400.378392 268.231986,463.414517 C277.15964,500.630163 271.378928,552.762293 238.347361,585.353376 C207.308102,615.979774 157.44002,623.611815 94.11631,607.395617 C43.9144267,594.541525 21.9170263,607.718592 1,635 L1.00471172,632.998219 C21.8976682,606.168957 44.2277816,593.375425 94.4181749,606.224363 C157.296634,622.319658 206.772292,614.80852 237.502139,584.484381 C270.194108,552.23334 275.899354,500.577268 267.054713,463.701663 C251.916188,400.506852 244.663884,363.427222 258.511936,275.243144 C267.161264,220.210586 213.746496,190.400848 154.521961,164.270607 L149.708351,162.159577 C148.100311,161.458305 146.489137,160.759294 144.875941,160.062121 L140.031396,157.975688 C139.223331,157.628726 138.415037,157.282117 137.606655,156.935808 L132.7564,154.861124 C131.948216,154.515801 131.14022,154.170671 130.332552,153.825682 C106.711623,143.737786 84.3962601,134.20907 65.5372503,123.403308 C51.3420532,115.280096 37.0034703,106.166986 23.1327781,97.3561346 C15.6976936,92.6334746 8.32297711,87.9490695 1,83.4222152 L1,82 C8.53611977,86.6519756 16.1269629,91.4737257 23.7817876,96.3360103 Z" id="path-34"></path>
        <path d="M49.0846823,114.886742 C54.2702724,118.282565 59.4332509,121.670825 64.5660807,124.991017 C84.6300936,137.991953 109.435002,149.465146 133.425894,160.560185 C137.442631,162.418051 141.468236,164.279998 145.482054,166.15381 L150.291656,168.408577 L150.291656,168.408577 L155.082011,170.677722 C209.233688,196.487456 258.149242,225.643046 249.875555,277.719865 C236.399051,362.592754 239.127515,397.594691 254.171757,459.672455 C263.080721,496.398774 257.608717,547.903352 225.296763,580.167454 C195.77357,609.655904 148.628416,617.362684 88.9790551,602.470978 C43.2697577,591.052581 21.5762172,601.728575 2,625 L2.00879613,623.186323 C21.5884354,600.306901 43.5466563,589.9533 89.2579313,601.359205 C148.500283,616.145028 195.261041,608.536569 224.482746,579.358204 C256.485675,547.404189 261.897381,496.353396 253.056252,459.944726 C237.974325,397.693011 235.238323,362.60788 248.744976,277.545914 C257.127626,224.783874 205.50797,195.692492 149.924198,169.505762 L145.0822,167.235471 C142.65757,166.10348 140.228517,164.975842 137.799646,163.850851 L132.943513,161.60389 L132.943513,161.60389 C108.922473,150.493725 84.0723412,138.997842 63.9404935,125.959092 C58.8076637,122.631336 53.6446852,119.250639 48.4590951,115.847253 C33.0545541,105.759977 17.5096693,95.5800342 2.00264819,86.3381854 L2.00456551,85 C17.7234058,94.3458301 33.4764255,104.663509 49.0846823,114.886742 Z" id="path-36"></path>
        <path d="M62.0144205,130.531241 C83.1391422,145.876136 109.076234,158.767961 134.162311,171.237103 C136.635799,172.466561 139.103491,173.693136 141.560797,174.918999 L146.460198,177.37042 C200.171348,204.339773 247.373763,231.665645 239.175901,282.478154 C225.958829,364.448423 224.362237,397.410132 239.251212,457.868866 C247.874316,492.853415 242.828482,544.94152 211.371098,576.642729 C183.355424,604.8719 138.929495,612.631149 82.8981472,599.082656 C41.5027864,589.075478 20.3469216,597.511157 2.0031293,617 L2.00483573,615.386336 C20.3770171,596.21114 41.7464417,588.021478 83.1542044,598.033497 C138.786404,611.483867 182.858372,603.822741 210.602926,575.872842 C241.766598,544.47355 246.752183,492.830771 238.196859,458.125495 C223.270228,397.485611 224.866821,364.440875 238.114017,282.304552 C246.797369,228.427593 191.8505,201.119266 133.680321,172.203235 C108.556588,159.718997 82.5743101,146.804528 61.3818085,131.406798 C42.865125,117.955647 22.6827591,104.10202 2,92.2413729 L2,91 C22.9103673,102.949331 43.3100008,116.943781 62.0144205,130.531241 Z" id="path-38"></path>
        <path d="M58.6196998,134.207232 C80.6730509,152.077549 107.479605,166.352655 133.403421,180.159477 L138.209391,182.721125 C189.353729,210.014457 236.152617,236.562279 228.090234,285.780152 L226.679363,294.398086 C214.984976,365.524366 209.650826,397.994566 223.940613,455.094988 C232.586915,489.634701 227.856346,541.108164 197.005798,572.505843 C170.425587,599.56812 128.58986,607.377886 76.0179302,595.104317 C38.6888575,586.385375 18.2353635,592.906253 1.00470619,609 L1.00293954,607.782515 C18.2438,592.155592 39.2197669,585.463892 76.251818,594.107325 C128.454054,606.297812 169.957812,598.578681 196.281501,571.788311 C226.845348,540.677645 231.530647,489.612042 222.952249,455.344236 C208.609648,398.032331 213.958887,365.501707 225.668364,294.23192 L227.08678,285.613986 C235.280396,235.58314 185.560388,209.102442 132.920556,181.065833 C106.951471,167.236352 80.0996487,152.931035 57.9783947,135.000294 C39.1178699,119.714336 19.8619847,106.610877 1,96.1655582 L1,95 C20.072234,105.520125 39.5498472,118.751179 58.6196998,134.207232 Z" id="path-40"></path>
        <path d="M57.2345577,138.776623 C80.0497158,159.274695 107.440005,174.844475 133.92283,189.901048 C183.82579,218.263256 226.915207,242.76132 219.073205,289.749905 C216.978475,302.293276 214.906433,313.810234 213.068818,323.968704 C203.661441,376.164826 198.481334,404.911938 210.6716,452.745804 C219.368131,486.806113 214.944244,537.613559 184.695443,568.692741 C159.551127,594.519105 120.288183,602.353051 71.1490061,591.3493 C38.0030958,583.926889 18.1706374,589.113986 2,602 L2.00340124,600.739617 C18.2358187,588.036869 38.2005374,582.995401 71.3607477,590.413453 C120.86291,601.500223 158.749534,593.960615 184.007282,568.028592 C213.998969,537.213559 218.377482,486.791019 209.749012,452.979766 C197.498248,404.949674 202.693479,376.12709 212.123543,323.802667 C213.953595,313.644196 216.0332,302.127238 218.12793,289.591414 C225.864061,243.259432 183.039321,218.919858 133.446412,190.731235 C106.918213,175.65202 79.490113,160.059599 56.5917707,139.486055 C40.3997677,124.933474 21.626249,111.643722 2.00714005,101.076092 L2.00598644,100 C21.8645692,110.64138 40.8662999,124.064398 57.2345577,138.776623 Z" id="path-42"></path>
        <path d="M53.8647986,142.571869 C77.2877082,165.859072 106.238394,183.401847 131.776873,198.876326 C176.69669,226.10386 215.489699,249.61752 208.089,293.097031 C205.002848,311.228591 201.742294,326.725716 198.868457,340.396097 C190.277276,381.278915 184.597846,408.287542 195.425919,449.932761 C204.168753,483.561446 200.074104,533.78934 170.410645,564.587327 C146.373538,589.550303 110.666681,597.181863 64.2834059,587.2631 C34.8401868,580.975269 16.1597629,584.749729 1,595 L1,593.873125 C16.2178095,583.757397 35.0019422,580.088288 64.472973,586.387471 C110.52261,596.230749 145.948908,588.689771 169.758535,563.968348 C199.18693,533.411913 203.243665,483.553897 194.55391,450.159217 C183.680342,408.310187 189.374937,381.218527 197.988866,340.214932 C200.862703,326.552099 204.115674,311.062524 207.201826,292.94606 C214.503951,250.062883 175.946004,226.700194 131.306746,199.646276 C105.722772,184.141603 76.7341723,166.568634 53.2278532,143.205945 C37.8432358,127.913447 19.9975735,114.924684 1.00279473,105.010255 L1.00550341,104 C20.2371775,113.983598 38.3048965,127.10504 53.8647986,142.571869 Z" id="path-44"></path>
        <path d="M51.2180912,147.175342 C74.9962452,173.354698 103.850804,192.065015 129.308484,208.579888 C171.046975,235.641948 204.017129,257.023012 197.072063,297.144572 C193.372566,318.525636 189.022442,335.923214 185.186768,351.276236 C176.592437,385.671534 170.381217,410.52306 180.193583,447.717361 C189.24184,481.961768 183.938472,531.891156 156.301947,561.065671 C133.855309,584.755347 100.824631,592.360185 58.0950692,583.668941 C32.3258037,578.431768 15.0507282,581.056538 1,589 L1,588.248355 C15.1660686,580.401369 32.6759107,577.654449 58.2615088,582.854137 C100.673323,591.485025 133.454341,583.955632 155.689147,560.499834 C183.128971,531.544109 188.379381,481.954224 179.391647,447.928606 C169.518758,410.530605 175.752674,385.588544 184.377267,351.072535 C188.212941,335.734602 192.555499,318.352113 196.24743,297.008771 C203.101712,257.42287 170.335824,236.177606 128.846993,209.273981 C103.351486,192.736474 74.4439687,173.995979 50.5977257,147.733634 C36.7472118,132.47888 19.6339956,119.536013 1.00861664,109.935069 L1.00491135,109 C19.8696917,118.664731 37.2056036,131.740239 51.2180912,147.175342 Z" id="path-46"></path>
        <path d="M48.5802189,150.043841 C72.5516059,179.30817 101.05914,199.132637 126.215511,216.629259 C163.297193,242.424496 192.597232,262.793134 186.091144,299.811906 C182.000309,323.075233 176.56599,341.342765 171.765674,357.463843 C162.587713,388.292666 155.953314,410.573462 165.025609,444.45569 C174.112998,478.353034 169.214563,527.842401 142.276944,556.84976 C121.43029,579.296831 91.0358397,586.884999 51.9313826,579.349736 C29.8220377,575.103497 13.9711248,576.984511 1,583 L1,582.108618 C14.0210545,576.160542 29.9353954,574.332831 52.0823359,578.593943 C90.8999817,586.061184 121.060455,578.571269 141.710869,556.328263 C168.459797,527.524967 173.312946,478.345476 164.285937,444.652196 C155.160809,410.558346 161.817851,388.194412 171.026003,357.244663 C175.818771,341.146259 181.25309,322.893843 185.32883,299.683421 C191.751894,263.148357 162.632999,242.900646 125.777746,217.264126 C100.583637,199.737272 72.0232692,179.882573 47.9839533,150.535106 C35.1717095,134.894282 18.9726662,122.058076 1.00681416,112.864412 L1.00305832,112 C19.2034002,121.253059 35.6159793,134.221093 48.5802189,150.043841 Z" id="path-48"></path>
        <path d="M45.9401287,154.742615 C69.9537662,187.122233 97.8818525,207.915582 122.520296,226.261766 C155.296277,250.672992 181.191861,269.955746 175.10941,303.944149 C170.780933,328.128785 164.231759,346.626029 158.457947,362.940462 C148.92777,389.86683 141.392456,411.128464 149.883799,442.292053 C154.385415,458.802863 155.333916,479.195905 152.480885,498.236963 C150.124688,513.954711 144.019653,536.311527 128.324219,553.547423 C109.07567,574.68821 81.3056676,582.173211 45.7895729,575.798498 C26.9334811,572.413115 12.7651472,573.564811 1,577.939909 L1,577.165653 C12.8065848,572.838063 27.0226972,571.719494 45.9100175,575.103624 C81.1626397,581.425467 108.721864,574.015995 127.797274,553.071586 C153.850942,524.460904 158.284808,475.781959 149.206298,442.480877 C140.654733,411.098252 148.220158,389.745982 157.795502,362.70632 C163.561786,346.414546 170.095904,327.947514 174.416853,303.815748 C180.416499,270.257865 155.958722,252.047634 122.09874,226.82824 C97.4226575,208.459396 69.4494045,187.628282 45.3755447,155.165581 C33.6809986,139.397839 18.3531647,126.656017 1.002027,117.787188 L1.00768738,117 C18.5833598,125.924682 34.1092962,138.794413 45.9401287,154.742615 Z" id="path-50"></path>
        <path d="M0.58675699,121.302357 L0,121 C17.4823493,129.753238 31.9406433,142.505149 42.9761882,158.92314 C66.950477,194.578602 95.3179207,217.210032 118.103651,235.389253 C148.103482,259.328377 169.783401,276.623203 164.088849,307.773544 C159.597901,332.340059 151.90988,350.700694 145.124562,366.907035 C134.796135,391.594493 126.634194,411.096527 134.668252,440.039661 C143.65767,472.384312 139.572938,522.061585 114.28973,550.422682 C96.6117951,570.257308 71.3812446,577.627262 39.3352859,572.343572 C23.6278902,569.751914 11.1527785,570.466441 0.583925859,573.561897 L0.586819193,572.878438 C11.1877642,569.813382 23.7002808,569.119047 39.4406013,571.708622 C71.2608842,576.954518 96.2883265,569.645035 113.815811,549.991823 C138.941046,521.804582 142.995687,472.391871 134.051405,440.205957 C125.957167,411.051173 134.15672,391.458433 144.537805,366.657591 C151.308078,350.481486 158.981054,332.151086 163.456957,307.652601 C169.083806,276.887766 147.53177,259.691205 117.704957,235.895701 C94.8816143,217.686244 66.4765579,195.024579 42.4420889,159.285969 C31.7514957,143.382 17.2788626,130.712278 0.594484893,122.118838 L0.58675699,121.302357 Z" id="path-52"></path>
        <path d="M1.55857173,126.294551 L1,126 C17.7647002,134.466441 31.4119664,147.154774 41.564385,163.710028 C65.4697455,202.681336 92.9529844,226.086778 115.031664,244.8927 C141.39776,267.338966 160.442037,283.561906 155.097864,311.967156 C150.485873,336.46017 141.609111,354.41265 133.774011,370.257961 C122.54219,392.991224 113.665428,410.951258 121.349564,437.92907 C125.878524,453.804591 127.033408,473.796268 124.512287,492.783452 C122.436514,508.402186 116.873441,530.561453 102.146773,547.381047 C85.9708378,565.847103 63.1750725,573.059816 34.4086282,568.822819 C21.4876904,566.920732 10.8040039,567.247039 1.55791524,569.266784 L1.56126777,568.654456 C10.8361914,566.651461 21.5487341,566.339337 34.4916592,568.248823 C63.0543002,572.455609 85.6689071,565.31087 101.708974,546.995865 C126.278582,518.938034 129.879105,469.944453 120.790992,438.087674 C113.038922,410.890837 121.960973,392.847725 133.25318,370.001174 C141.073184,354.193625 149.927301,336.271355 154.524196,311.86142 C159.807982,283.78093 140.869381,267.656174 114.654251,245.33075 C92.545378,226.50217 65.0168495,203.058965 41.0661994,164.012131 C31.0884101,147.738764 17.5293944,135.13867 1.56524004,126.854218 L1.55857173,126.294551 Z" id="path-54"></path>
        <path d="M0.696206257,130.377133 L0,130 C16.0430137,138.236586 28.9228295,150.878087 38.2686417,167.585082 C61.9472219,209.929584 88.3198176,233.983132 109.508704,253.314973 C133.338633,275.045381 149.078948,289.399066 144.06929,315.187426 C139.400168,339.293772 129.312745,356.672064 120.42098,371.998752 C108.721688,392.152744 98.6191297,409.568749 106.00497,434.798952 C113.950802,461.937448 113.640536,513.566967 88.0700914,543.405736 C73.4346251,560.474779 53.100862,567.481911 27.5833892,564.223481 C17.3854198,562.923561 8.55333883,563.057568 0.701148039,564.312077 L0.695900104,563.77201 C8.56855426,562.529421 17.4251605,562.405151 27.6514963,563.71058 C52.9570802,566.931297 73.1621966,559.992048 87.6690161,543.066316 C113.118382,513.3784 113.42108,461.967619 105.505518,434.949805 C98.0591377,409.500865 108.214668,392.001891 119.9745,371.734759 C128.843562,356.445784 138.900716,339.112748 143.562271,315.089371 C148.511389,289.587633 132.854316,275.309374 109.160601,253.692106 C87.9414446,234.337637 61.5385791,210.253919 37.8145942,167.841533 C28.6777455,151.50589 15.9359099,138.983766 0.703869856,130.898193 L0.696206257,130.377133 Z" id="path-56"></path>
        <path d="M0.97840444,134.543393 L0,134 C15.2405307,142.067873 27.2899577,154.724395 35.8171287,171.622399 C58.9752092,217.493802 84.8954006,243.169108 103.816237,261.916157 C105.053725,263.141993 106.265752,264.342602 107.449828,265.521738 L110.915707,268.99848 C127.238073,285.527655 137.159759,298.331246 133.085582,318.851639 C128.41182,342.406205 117.1978,359.107984 107.308389,373.839964 C94.7697593,392.519089 83.9395748,408.647287 91.0066653,432.352795 C95.4847472,447.364019 96.9071967,467.560115 94.8149164,486.367541 C93.076367,501.997629 88.1542401,524.065412 74.5769969,540.465306 C61.609375,556.13313 43.8249927,562.887803 21.7055262,560.548196 C14.069831,559.739122 7.22101595,559.736432 0.979482914,560.399992 L0.977039035,559.937254 C7.23541553,559.277912 14.102671,559.28413 21.7582095,560.095368 C43.6970475,562.427429 61.3610108,555.718038 74.2307923,540.170968 C98.5328533,510.812667 98.3446986,458.5564 90.5701464,432.481096 C83.4428464,408.571816 94.3257142,392.3606 106.932079,373.583362 C116.798912,358.889117 127.975301,342.225074 132.641537,318.761074 C137.224986,295.651789 123.805793,282.361308 103.492611,262.240683 C84.549196,243.470993 58.5988998,217.765498 35.4107145,171.833719 C27.1431183,155.447608 15.3236585,142.974171 0.984763769,135.019157 L0.97840444,134.543393 Z" id="path-58"></path>
        <path d="M34.4405785,175.018337 C57.1635436,224.561736 81.5484277,250.751445 99.3536234,269.877572 C117.438324,289.291082 128.35411,301.013302 124.070891,322.090611 C119.334422,344.922472 106.915355,360.872255 95.9466895,374.938919 C82.4322664,392.287806 70.7535084,407.277123 77.6051472,429.624969 C82.1225452,444.357154 83.693814,464.496685 81.8128239,483.494245 C80.2566634,499.217146 75.6637236,521.360799 62.6629846,537.58284 C51.2335145,551.838573 35.785222,558.297138 16.7713579,556.784593 C11.505195,556.364856 6.60015944,556.334403 2,556.639229 L2,556.233962 C6.61051936,555.932684 11.5253338,555.967124 16.8015746,556.391332 C35.656801,557.903876 51.0068891,551.490687 62.3608175,537.33327 C84.9478075,509.154564 85.5068166,456.744894 77.2274383,429.73841 C70.3229203,407.193933 82.0545576,392.136551 95.6369682,374.696912 C106.575417,360.660498 118.971822,344.756092 123.678074,322.007421 C127.923522,301.134306 117.068169,289.472587 99.0665647,270.142267 C81.2462606,251.001015 56.8311598,224.781055 34.077978,175.184717 C26.5571097,158.777729 15.5472177,146.343853 2.01208492,138.461014 L2.01018015,138 C15.7059302,145.914815 26.8416227,158.450434 34.4405785,175.018337 Z" id="path-60"></path>
        <path d="M31.0408555,178.727959 C53.2260374,231.784967 75.9349201,258.279494 92.5263698,277.623745 C107.827542,295.488109 117.072,306.2626 113.064551,325.108522 C108.336063,347.057678 94.6439428,362.143476 82.568464,375.447368 C68.0338683,391.469422 55.4802279,405.301845 62.1289516,426.284544 C66.6904618,440.675701 68.4361313,460.722144 66.79672,479.907836 C65.4381337,495.710927 61.2257574,517.901698 48.846684,533.863348 C38.957087,546.623607 25.8114369,552.724371 9.77404749,551.931573 C6.73226394,551.784615 3.81177401,551.761723 1,551.852254 L1,551.516497 C2.09883565,551.48134 3.21436639,551.463446 4.34729243,551.463446 C6.12332136,551.463446 7.92970976,551.508748 9.78922723,551.599354 C10.6924214,551.644656 11.5880258,551.667308 12.4684504,551.667308 C27.177613,551.667308 39.3214006,545.619398 48.5810386,533.667036 C70.1742109,505.805878 70.1134919,452.545008 61.8101772,426.3827 C55.1007346,405.21879 67.7150939,391.318413 82.3255883,375.228405 C94.3707076,361.954715 108.032469,346.906669 112.738186,325.040568 C116.715277,306.353206 107.508768,295.624017 92.2683144,277.842708 C75.6692747,258.483356 52.9376224,231.966178 30.7296709,178.856316 C23.9145194,162.557506 13.7096209,150.219382 1.00444374,142.390627 L1.00537001,142 C13.8481503,149.856204 24.1604856,162.283251 31.0408555,178.727959 Z" id="path-62"></path>
        <path d="M28.3727697,184.41553 C49.6852022,240.945454 71.2016175,268.724323 85.4350889,287.105403 C98.5277672,304.009365 105.742717,313.316718 102.025696,330.062418 C97.3718643,351.028455 82.5415541,365.189197 69.4564308,377.684413 C54.014172,392.440524 40.6797362,405.176902 47.0938642,424.869302 C51.5965972,438.698446 53.5684316,459.197231 52.2312106,478.369625 C50.6673419,500.880608 44.8424977,520.022856 35.8294768,532.261837 C27.6550522,543.362834 17.0026134,548.984927 4.16680242,548.984927 L2.51982961,548.977391 L1.00884539,549 L1,548.716381 C1.50340839,548.709536 2.01000092,548.706084 2.51982961,548.706084 L3.71350715,548.71362 L4.16680242,548.721156 C16.9119544,548.721156 27.4963988,543.129208 35.6103841,532.103574 C44.6007403,519.902275 50.4029197,500.812781 51.9667884,478.354552 C53.2964545,459.212304 51.332175,438.7512 46.8369969,424.952201 C40.3699844,405.101539 53.7648596,392.30487 69.2751127,377.496005 C82.3300164,365.023398 97.1225519,350.885265 101.761273,330.002127 C105.448075,313.384545 98.2708999,304.107337 85.2235511,287.271202 C70.9825248,268.875049 49.4509996,241.081108 28.1159024,184.505966 C22.038252,168.382412 12.7415513,156.157447 1.01448178,148.345939 L1.01860504,148 C13.0312855,155.884999 22.2275495,168.11795 28.3727697,184.41553 Z" id="path-64"></path>
    </defs>
    <g id="Page-1" stroke="none" stroke-width="1" fill="none" fill-rule="evenodd">
        <g id="waves-lines-investors">
            <mask id="mask-2" fill="white">
                <use xlink:href="#path-1"></use>
            </mask>
            <g id="Clip-423"></g>
            <polygon id="Fill-422" fill="url(#linearGradient-3)" mask="url(#mask-2)" points="1 670 510 670 510 -50 1 -50"></polygon>
            <mask id="mask-5" fill="white">
                <use xlink:href="#path-4"></use>
            </mask>
            <g id="Clip-426"></g>
            <polygon id="Fill-425" fill="url(#linearGradient-3)" mask="url(#mask-5)" points="1 670 510 670 510 -50 1 -50"></polygon>
            <mask id="mask-7" fill="white">
                <use xlink:href="#path-6"></use>
            </mask>
            <g id="Clip-429"></g>
            <polygon id="Fill-428" fill="url(#linearGradient-3)" mask="url(#mask-7)" points="1 670 510 670 510 -50 1 -50"></polygon>
            <mask id="mask-9" fill="white">
                <use xlink:href="#path-8"></use>
            </mask>
            <g id="Clip-432"></g>
            <polygon id="Fill-431" fill="url(#linearGradient-3)" mask="url(#mask-9)" points="1 670 510 670 510 -50 1 -50"></polygon>
            <mask id="mask-11" fill="white">
                <use xlink:href="#path-10"></use>
            </mask>
            <g id="Clip-435"></g>
            <polygon id="Fill-434" fill="url(#linearGradient-3)" mask="url(#mask-11)" points="1 670 510 670 510 -50 1 -50"></polygon>
            <mask id="mask-13" fill="white">
                <use xlink:href="#path-12"></use>
            </mask>
            <g id="Clip-438"></g>
            <polygon id="Fill-437" fill="url(#linearGradient-3)" mask="url(#mask-13)" points="1 670 510 670 510 -50 1 -50"></polygon>
            <mask id="mask-15" fill="white">
                <use xlink:href="#path-14"></use>
            </mask>
            <g id="Clip-441"></g>
            <polygon id="Fill-440" fill="url(#linearGradient-3)" mask="url(#mask-15)" points="1 670 510 670 510 -50 1 -50"></polygon>
            <mask id="mask-17" fill="white">
                <use xlink:href="#path-16"></use>
            </mask>
            <g id="Clip-444"></g>
            <polygon id="Fill-443" fill="url(#linearGradient-3)" mask="url(#mask-17)" points="1 670 510 670 510 -50 1 -50"></polygon>
            <mask id="mask-19" fill="white">
                <use xlink:href="#path-18"></use>
            </mask>
            <g id="Clip-447"></g>
            <polygon id="Fill-446" fill="url(#linearGradient-3)" mask="url(#mask-19)" points="1 670 510 670 510 -50 1 -50"></polygon>
            <mask id="mask-21" fill="white">
                <use xlink:href="#path-20"></use>
            </mask>
            <g id="Clip-450"></g>
            <polygon id="Fill-449" fill="url(#linearGradient-3)" mask="url(#mask-21)" points="1 670 510 670 510 -50 1 -50"></polygon>
            <mask id="mask-23" fill="white">
                <use xlink:href="#path-22"></use>
            </mask>
            <g id="Clip-453"></g>
            <polygon id="Fill-452" fill="url(#linearGradient-3)" mask="url(#mask-23)" points="1 670 510 670 510 -50 1 -50"></polygon>
            <mask id="mask-25" fill="white">
                <use xlink:href="#path-24"></use>
            </mask>
            <g id="Clip-456"></g>
            <polygon id="Fill-455" fill="url(#linearGradient-3)" mask="url(#mask-25)" points="1 670 510 670 510 -50 1 -50"></polygon>
            <mask id="mask-27" fill="white">
                <use xlink:href="#path-26"></use>
            </mask>
            <g id="Clip-459"></g>
            <polygon id="Fill-458" fill="url(#linearGradient-3)" mask="url(#mask-27)" points="1 670 510 670 510 -50 1 -50"></polygon>
            <mask id="mask-29" fill="white">
                <use xlink:href="#path-28"></use>
            </mask>
            <g id="Clip-462"></g>
            <polygon id="Fill-461" fill="url(#linearGradient-3)" mask="url(#mask-29)" points="1 670 510 670 510 -50 1 -50"></polygon>
            <mask id="mask-31" fill="white">
                <use xlink:href="#path-30"></use>
            </mask>
            <g id="Clip-465"></g>
            <polygon id="Fill-464" fill="url(#linearGradient-3)" mask="url(#mask-31)" points="1 670 510 670 510 -50 1 -50"></polygon>
            <mask id="mask-33" fill="white">
                <use xlink:href="#path-32"></use>
            </mask>
            <g id="Clip-468"></g>
            <polygon id="Fill-467" fill="url(#linearGradient-3)" mask="url(#mask-33)" points="1 670 510 670 510 -50 1 -50"></polygon>
            <mask id="mask-35" fill="white">
                <use xlink:href="#path-34"></use>
            </mask>
            <g id="Clip-471"></g>
            <polygon id="Fill-470" fill="url(#linearGradient-3)" mask="url(#mask-35)" points="1 670 510 670 510 -50 1 -50"></polygon>
            <mask id="mask-37" fill="white">
                <use xlink:href="#path-36"></use>
            </mask>
            <g id="Clip-474"></g>
            <polygon id="Fill-473" fill="url(#linearGradient-3)" mask="url(#mask-37)" points="1 670 510 670 510 -50 1 -50"></polygon>
            <mask id="mask-39" fill="white">
                <use xlink:href="#path-38"></use>
            </mask>
            <g id="Clip-477"></g>
            <polygon id="Fill-476" fill="url(#linearGradient-3)" mask="url(#mask-39)" points="1 670 510 670 510 -50 1 -50"></polygon>
            <mask id="mask-41" fill="white">
                <use xlink:href="#path-40"></use>
            </mask>
            <g id="Clip-480"></g>
            <polygon id="Fill-479" fill="url(#linearGradient-3)" mask="url(#mask-41)" points="1 670 510 670 510 -50 1 -50"></polygon>
            <mask id="mask-43" fill="white">
                <use xlink:href="#path-42"></use>
            </mask>
            <g id="Clip-483"></g>
            <polygon id="Fill-482" fill="url(#linearGradient-3)" mask="url(#mask-43)" points="1 670 510 670 510 -50 1 -50"></polygon>
            <mask id="mask-45" fill="white">
                <use xlink:href="#path-44"></use>
            </mask>
            <g id="Clip-486"></g>
            <polygon id="Fill-485" fill="url(#linearGradient-3)" mask="url(#mask-45)" points="1 670 510 670 510 -50 1 -50"></polygon>
            <mask id="mask-47" fill="white">
                <use xlink:href="#path-46"></use>
            </mask>
            <g id="Clip-489"></g>
            <polygon id="Fill-488" fill="url(#linearGradient-3)" mask="url(#mask-47)" points="1 670 510 670 510 -50 1 -50"></polygon>
            <mask id="mask-49" fill="white">
                <use xlink:href="#path-48"></use>
            </mask>
            <g id="Clip-492"></g>
            <polygon id="Fill-491" fill="url(#linearGradient-3)" mask="url(#mask-49)" points="1 670 510 670 510 -50 1 -50"></polygon>
            <mask id="mask-51" fill="white">
                <use xlink:href="#path-50"></use>
            </mask>
            <g id="Clip-495"></g>
            <polygon id="Fill-494" fill="url(#linearGradient-3)" mask="url(#mask-51)" points="1 670 510 670 510 -50 1 -50"></polygon>
            <mask id="mask-53" fill="white">
                <use xlink:href="#path-52"></use>
            </mask>
            <g id="Clip-498"></g>
            <polygon id="Fill-497" fill="url(#linearGradient-3)" mask="url(#mask-53)" points="1 670 510 670 510 -50 1 -50"></polygon>
            <mask id="mask-55" fill="white">
                <use xlink:href="#path-54"></use>
            </mask>
            <g id="Clip-501"></g>
            <polygon id="Fill-500" fill="url(#linearGradient-3)" mask="url(#mask-55)" points="1 670 510 670 510 -50 1 -50"></polygon>
            <mask id="mask-57" fill="white">
                <use xlink:href="#path-56"></use>
            </mask>
            <g id="Clip-504"></g>
            <polygon id="Fill-503" fill="url(#linearGradient-3)" mask="url(#mask-57)" points="1 670 510 670 510 -50 1 -50"></polygon>
            <mask id="mask-59" fill="white">
                <use xlink:href="#path-58"></use>
            </mask>
            <g id="Clip-507"></g>
            <polygon id="Fill-506" fill="url(#linearGradient-3)" mask="url(#mask-59)" points="1 670 510 670 510 -50 1 -50"></polygon>
            <mask id="mask-61" fill="white">
                <use xlink:href="#path-60"></use>
            </mask>
            <g id="Clip-510"></g>
            <polygon id="Fill-509" fill="url(#linearGradient-3)" mask="url(#mask-61)" points="1 670 510 670 510 -50 1 -50"></polygon>
            <mask id="mask-63" fill="white">
                <use xlink:href="#path-62"></use>
            </mask>
            <g id="Clip-513"></g>
            <polygon id="Fill-512" fill="url(#linearGradient-3)" mask="url(#mask-63)" points="1 670 510 670 510 -50 1 -50"></polygon>
            <mask id="mask-65" fill="white">
                <use xlink:href="#path-64"></use>
            </mask>
            <g id="Clip-516"></g>
            <polygon id="Fill-515" fill="url(#linearGradient-3)" mask="url(#mask-65)" points="1 670 510 670 510 -50 1 -50"></polygon>
        </g>
    </g>
</svg>