<?xml version="1.0" encoding="UTF-8"?>
<svg width="239px" height="362px" viewBox="0 0 239 362" version="1.1" xmlns="http://www.w3.org/2000/svg" xmlns:xlink="http://www.w3.org/1999/xlink">
    <title>pattern-home</title>
    <defs>
        <filter x="-37.5%" y="-37.5%" width="175.0%" height="175.0%" filterUnits="objectBoundingBox" id="filter-1">
            <feGaussianBlur stdDeviation="4" in="SourceGraphic"></feGaussianBlur>
        </filter>
        <filter x="-86.5%" y="-86.5%" width="273.0%" height="273.0%" filterUnits="objectBoundingBox" id="filter-2">
            <feGaussianBlur stdDeviation="4" in="SourceGraphic"></feGaussianBlur>
        </filter>
        <filter x="-3.5%" y="-3.9%" width="106.9%" height="107.7%" filterUnits="objectBoundingBox" id="filter-3">
            <feGaussianBlur stdDeviation="0" in="SourceGraphic"></feGaussianBlur>
        </filter>
    </defs>
    <g id="Page-1" stroke="none" stroke-width="1" fill="none" fill-rule="evenodd">
        <g id="pattern-home" transform="translate(2.160908, 0.000000)">
            <path d="M152.839092,200.936 C152.839092,198.21 155.049092,196 157.775092,196 L179.903092,196 C182.629092,196 184.839092,198.21 184.839092,200.936 L184.839092,223.064 C184.839092,225.79 182.629092,228 179.903092,228 L157.775092,228 C155.049092,228 152.839092,225.79 152.839092,223.064 L152.839092,200.936 Z M157.775092,198.383 C156.365092,198.383 155.222092,199.526 155.222092,200.936 L155.222092,223.064 C155.222092,224.474 156.365092,225.617 157.775092,225.617 L179.903092,225.617 C181.313092,225.617 182.456092,224.474 182.456092,223.064 L182.456092,200.936 C182.456092,199.526 181.313092,198.383 179.903092,198.383 L157.775092,198.383 Z" id="Shape" fill="#64B798" filter="url(#filter-1)"></path>
            <circle id="Oval" stroke="#2B5DC1" stroke-width="3" transform="translate(218.223092, 302.384000) rotate(119.889000) translate(-218.223092, -302.384000) " cx="218.223092" cy="302.384" r="12"></circle>
            <circle id="Oval" stroke="#2B5DC1" stroke-width="3" filter="url(#filter-2)" transform="translate(105.495092, 157.656000) rotate(119.889000) translate(-105.495092, -157.656000) " cx="105.495092" cy="157.656" r="7.80476"></circle>
            <circle id="Oval" stroke="#2B5DC1" stroke-width="3" transform="translate(185.148092, 123.312000) rotate(-134.657000) translate(-185.148092, -123.312000) " cx="185.148092" cy="123.312" r="26.3832"></circle>
            <path d="M25.6476924,51.75 L42.8915924,81.6172 C44.6235924,84.6172 42.4585924,88.3672 38.9944924,88.3672 L4.50669241,88.3672 C1.04259241,88.3672 -1.12243759,84.6172 0.609592413,81.6172 L17.8534924,51.75 C19.5854924,48.75 23.9156924,48.75 25.6476924,51.75 Z" id="Path" stroke="#64B798" stroke-width="3" filter="url(#filter-3)"></path>
            <circle id="Oval" fill="#F1F1F1" fill-rule="nonzero" cx="108.265092" cy="2" r="2"></circle>
            <circle id="Oval" fill="#F1F1F1" fill-rule="nonzero" cx="140.978092" cy="273" r="2"></circle>
            <circle id="Oval" fill="#F1F1F1" fill-rule="nonzero" cx="125.265092" cy="2" r="2"></circle>
            <circle id="Oval" fill="#F1F1F1" fill-rule="nonzero" cx="157.978092" cy="273" r="2"></circle>
            <circle id="Oval" fill="#F1F1F1" fill-rule="nonzero" cx="142.265092" cy="2" r="2"></circle>
            <circle id="Oval" fill="#F1F1F1" fill-rule="nonzero" cx="174.978092" cy="273" r="2"></circle>
            <circle id="Oval" fill="#F1F1F1" fill-rule="nonzero" cx="159.265092" cy="2" r="2"></circle>
            <circle id="Oval" fill="#F1F1F1" fill-rule="nonzero" cx="176.265092" cy="2" r="2"></circle>
            <circle id="Oval" fill="#F1F1F1" fill-rule="nonzero" cx="193.265092" cy="2" r="2"></circle>
            <circle id="Oval" fill="#F1F1F1" fill-rule="nonzero" cx="210.265092" cy="2" r="2"></circle>
            <circle id="Oval" fill="#F1F1F1" fill-rule="nonzero" cx="55.8390924" cy="122" r="2"></circle>
            <circle id="Oval" fill="#F1F1F1" fill-rule="nonzero" cx="73.1259924" cy="122" r="2"></circle>
            <circle id="Oval" fill="#F1F1F1" fill-rule="nonzero" cx="108.265092" cy="19" r="2"></circle>
            <circle id="Oval" fill="#F1F1F1" fill-rule="nonzero" cx="140.978092" cy="290" r="2"></circle>
            <circle id="Oval" fill="#F1F1F1" fill-rule="nonzero" cx="125.265092" cy="19" r="2"></circle>
            <circle id="Oval" fill="#F1F1F1" fill-rule="nonzero" cx="157.978092" cy="290" r="2"></circle>
            <circle id="Oval" fill="#F1F1F1" fill-rule="nonzero" cx="142.265092" cy="19" r="2"></circle>
            <circle id="Oval" fill="#F1F1F1" fill-rule="nonzero" cx="174.978092" cy="290" r="2"></circle>
            <circle id="Oval" fill="#F1F1F1" fill-rule="nonzero" cx="159.265092" cy="19" r="2"></circle>
            <circle id="Oval" fill="#F1F1F1" fill-rule="nonzero" cx="176.265092" cy="19" r="2"></circle>
            <circle id="Oval" fill="#F1F1F1" fill-rule="nonzero" cx="193.265092" cy="19" r="2"></circle>
            <circle id="Oval" fill="#F1F1F1" fill-rule="nonzero" cx="210.265092" cy="19" r="2"></circle>
            <circle id="Oval" fill="#F1F1F1" fill-rule="nonzero" cx="55.8390924" cy="139.287" r="2"></circle>
            <circle id="Oval" fill="#F1F1F1" fill-rule="nonzero" cx="73.1259924" cy="139.287" r="2"></circle>
            <circle id="Oval" fill="#F1F1F1" fill-rule="nonzero" cx="108.265092" cy="37" r="2"></circle>
            <circle id="Oval" fill="#F1F1F1" fill-rule="nonzero" cx="140.978092" cy="308" r="2"></circle>
            <circle id="Oval" fill="#F1F1F1" fill-rule="nonzero" cx="125.265092" cy="37" r="2"></circle>
            <circle id="Oval" fill="#F1F1F1" fill-rule="nonzero" cx="157.978092" cy="308" r="2"></circle>
            <circle id="Oval" fill="#F1F1F1" fill-rule="nonzero" cx="142.265092" cy="37" r="2"></circle>
            <circle id="Oval" fill="#F1F1F1" fill-rule="nonzero" cx="174.978092" cy="308" r="2"></circle>
            <circle id="Oval" fill="#F1F1F1" fill-rule="nonzero" cx="159.265092" cy="37" r="2"></circle>
            <circle id="Oval" fill="#F1F1F1" fill-rule="nonzero" cx="176.265092" cy="37" r="2"></circle>
            <circle id="Oval" fill="#F1F1F1" fill-rule="nonzero" cx="193.265092" cy="37" r="2"></circle>
            <circle id="Oval" fill="#F1F1F1" fill-rule="nonzero" cx="210.265092" cy="37" r="2"></circle>
            <circle id="Oval" fill="#F1F1F1" fill-rule="nonzero" cx="55.8390924" cy="156.574" r="2"></circle>
            <circle id="Oval" fill="#F1F1F1" fill-rule="nonzero" cx="73.1259924" cy="156.574" r="2"></circle>
            <circle id="Oval" fill="#F1F1F1" fill-rule="nonzero" cx="108.265092" cy="54" r="2"></circle>
            <circle id="Oval" fill="#F1F1F1" fill-rule="nonzero" cx="140.978092" cy="325" r="2"></circle>
            <circle id="Oval" fill="#F1F1F1" fill-rule="nonzero" cx="125.265092" cy="54" r="2"></circle>
            <circle id="Oval" fill="#F1F1F1" fill-rule="nonzero" cx="157.978092" cy="325" r="2"></circle>
            <circle id="Oval" fill="#F1F1F1" fill-rule="nonzero" cx="142.265092" cy="54" r="2"></circle>
            <circle id="Oval" fill="#F1F1F1" fill-rule="nonzero" cx="174.978092" cy="325" r="2"></circle>
            <circle id="Oval" fill="#F1F1F1" fill-rule="nonzero" cx="159.265092" cy="54" r="2"></circle>
            <circle id="Oval" fill="#F1F1F1" fill-rule="nonzero" cx="176.265092" cy="54" r="2"></circle>
            <circle id="Oval" fill="#F1F1F1" fill-rule="nonzero" cx="193.265092" cy="54" r="2"></circle>
            <circle id="Oval" fill="#F1F1F1" fill-rule="nonzero" cx="210.265092" cy="54" r="2"></circle>
            <circle id="Oval" fill="#F1F1F1" fill-rule="nonzero" cx="55.8390924" cy="173.861" r="2"></circle>
            <circle id="Oval" fill="#F1F1F1" fill-rule="nonzero" cx="73.1259924" cy="173.861" r="2"></circle>
            <circle id="Oval" fill="#F1F1F1" fill-rule="nonzero" cx="107.839092" cy="71" r="2"></circle>
            <circle id="Oval" fill="#F1F1F1" fill-rule="nonzero" cx="140.978092" cy="342" r="2"></circle>
            <circle id="Oval" fill="#F1F1F1" fill-rule="nonzero" cx="125.265092" cy="71" r="2"></circle>
            <circle id="Oval" fill="#F1F1F1" fill-rule="nonzero" cx="157.978092" cy="342" r="2"></circle>
            <circle id="Oval" fill="#F1F1F1" fill-rule="nonzero" cx="142.265092" cy="71" r="2"></circle>
            <circle id="Oval" fill="#F1F1F1" fill-rule="nonzero" cx="174.978092" cy="342" r="2"></circle>
            <circle id="Oval" fill="#F1F1F1" fill-rule="nonzero" cx="159.265092" cy="71" r="2"></circle>
            <circle id="Oval" fill="#F1F1F1" fill-rule="nonzero" cx="176.265092" cy="71" r="2"></circle>
            <circle id="Oval" fill="#F1F1F1" fill-rule="nonzero" cx="193.265092" cy="71" r="2"></circle>
            <circle id="Oval" fill="#F1F1F1" fill-rule="nonzero" cx="210.265092" cy="71" r="2"></circle>
            <circle id="Oval" fill="#F1F1F1" fill-rule="nonzero" cx="227.265092" cy="71" r="2"></circle>
            <circle id="Oval" fill="#F1F1F1" fill-rule="nonzero" cx="55.8390924" cy="191.148" r="2"></circle>
            <circle id="Oval" fill="#F1F1F1" fill-rule="nonzero" cx="73.1259924" cy="191.148" r="2"></circle>
            <circle id="Oval" fill="#F1F1F1" fill-rule="nonzero" cx="140.839092" cy="359.435" r="2"></circle>
            <circle id="Oval" fill="#F1F1F1" fill-rule="nonzero" cx="158.126092" cy="359.435" r="2"></circle>
            <circle id="Oval" fill="#F1F1F1" fill-rule="nonzero" cx="175.413092" cy="359.435" r="2"></circle>
            <circle id="Oval" fill="#F1F1F1" fill-rule="nonzero" cx="55.8390924" cy="208.435" r="2"></circle>
            <circle id="Oval" fill="#F1F1F1" fill-rule="nonzero" cx="73.1259924" cy="208.435" r="2"></circle>
            <circle id="Oval" fill="#F1F1F1" fill-rule="nonzero" cx="55.8390924" cy="225.722" r="2"></circle>
            <circle id="Oval" fill="#F1F1F1" fill-rule="nonzero" cx="73.1259924" cy="225.722" r="2"></circle>
            <circle id="Oval" fill="#F1F1F1" fill-rule="nonzero" cx="55.8390924" cy="243.009" r="2"></circle>
            <circle id="Oval" fill="#F1F1F1" fill-rule="nonzero" cx="73.1259924" cy="243.009" r="2"></circle>
            <circle id="Oval" fill="#F1F1F1" fill-rule="nonzero" cx="55.8390924" cy="260.296" r="2"></circle>
            <circle id="Oval" fill="#F1F1F1" fill-rule="nonzero" cx="73.1259924" cy="260.296" r="2"></circle>
            <circle id="Oval" fill="#F1F1F1" fill-rule="nonzero" cx="55.8390924" cy="277.583" r="2"></circle>
            <circle id="Oval" fill="#F1F1F1" fill-rule="nonzero" cx="73.1259924" cy="277.583" r="2"></circle>
        </g>
    </g>
</svg>