<svg width="245" height="362" viewBox="0 0 245 362" fill="none" xmlns="http://www.w3.org/2000/svg">
<path fill-rule="evenodd" clip-rule="evenodd" d="M163 200.936C163 198.21 165.21 196 167.936 196H190.064C192.79 196 195 198.21 195 200.936V223.064C195 225.79 192.79 228 190.064 228H167.936C165.21 228 163 225.79 163 223.064V200.936ZM167.936 198.383C166.526 198.383 165.383 199.526 165.383 200.936V223.064C165.383 224.474 166.526 225.617 167.936 225.617H190.064C191.474 225.617 192.617 224.474 192.617 223.064V200.936C192.617 199.526 191.474 198.383 190.064 198.383H167.936Z" fill="#64B798"/>
<circle cx="228.384" cy="302.384" r="12" transform="rotate(119.889 228.384 302.384)" stroke="#2B5DC1" stroke-width="3"/>
<circle cx="115.656" cy="157.656" r="7.80476" transform="rotate(119.889 115.656 157.656)" stroke="#2B5DC1" stroke-width="3"/>
<circle cx="195.309" cy="123.312" r="26.3832" transform="rotate(-134.657 195.309 123.312)" stroke="#2B5DC1" stroke-width="3"/>
<path d="M35.8086 51.75L53.0525 81.6172C54.7845 84.6172 52.6195 88.3672 49.1554 88.3672H14.6676C11.2035 88.3672 9.03847 84.6172 10.7705 81.6172L28.0144 51.75C29.7464 48.75 34.0766 48.75 35.8086 51.75Z" stroke="#64B798" stroke-width="3"/>
<circle cx="118.426" cy="2" r="2" fill="#F1F1F1"/>
<circle cx="151.139" cy="273" r="2" fill="#F1F1F1"/>
<circle cx="135.426" cy="2" r="2" fill="#F1F1F1"/>
<circle cx="168.139" cy="273" r="2" fill="#F1F1F1"/>
<circle cx="152.426" cy="2" r="2" fill="#F1F1F1"/>
<circle cx="185.139" cy="273" r="2" fill="#F1F1F1"/>
<circle cx="169.426" cy="2" r="2" fill="#F1F1F1"/>
<circle cx="186.426" cy="2" r="2" fill="#F1F1F1"/>
<circle cx="203.426" cy="2" r="2" fill="#F1F1F1"/>
<circle cx="220.426" cy="2" r="2" fill="#F1F1F1"/>
<circle cx="66" cy="122" r="2" fill="#F1F1F1"/>
<circle cx="83.2869" cy="122" r="2" fill="#F1F1F1"/>
<circle cx="118.426" cy="19" r="2" fill="#F1F1F1"/>
<circle cx="151.139" cy="290" r="2" fill="#F1F1F1"/>
<circle cx="135.426" cy="19" r="2" fill="#F1F1F1"/>
<circle cx="168.139" cy="290" r="2" fill="#F1F1F1"/>
<circle cx="152.426" cy="19" r="2" fill="#F1F1F1"/>
<circle cx="185.139" cy="290" r="2" fill="#F1F1F1"/>
<circle cx="169.426" cy="19" r="2" fill="#F1F1F1"/>
<circle cx="186.426" cy="19" r="2" fill="#F1F1F1"/>
<circle cx="203.426" cy="19" r="2" fill="#F1F1F1"/>
<circle cx="220.426" cy="19" r="2" fill="#F1F1F1"/>
<circle cx="66" cy="139.287" r="2" fill="#F1F1F1"/>
<circle cx="83.2869" cy="139.287" r="2" fill="#F1F1F1"/>
<circle cx="118.426" cy="37" r="2" fill="#F1F1F1"/>
<circle cx="151.139" cy="308" r="2" fill="#F1F1F1"/>
<circle cx="135.426" cy="37" r="2" fill="#F1F1F1"/>
<circle cx="168.139" cy="308" r="2" fill="#F1F1F1"/>
<circle cx="152.426" cy="37" r="2" fill="#F1F1F1"/>
<circle cx="185.139" cy="308" r="2" fill="#F1F1F1"/>
<circle cx="169.426" cy="37" r="2" fill="#F1F1F1"/>
<circle cx="186.426" cy="37" r="2" fill="#F1F1F1"/>
<circle cx="203.426" cy="37" r="2" fill="#F1F1F1"/>
<circle cx="220.426" cy="37" r="2" fill="#F1F1F1"/>
<circle cx="66" cy="156.574" r="2" fill="#F1F1F1"/>
<circle cx="83.2869" cy="156.574" r="2" fill="#F1F1F1"/>
<circle cx="118.426" cy="54" r="2" fill="#F1F1F1"/>
<circle cx="151.139" cy="325" r="2" fill="#F1F1F1"/>
<circle cx="135.426" cy="54" r="2" fill="#F1F1F1"/>
<circle cx="168.139" cy="325" r="2" fill="#F1F1F1"/>
<circle cx="152.426" cy="54" r="2" fill="#F1F1F1"/>
<circle cx="185.139" cy="325" r="2" fill="#F1F1F1"/>
<circle cx="169.426" cy="54" r="2" fill="#F1F1F1"/>
<circle cx="186.426" cy="54" r="2" fill="#F1F1F1"/>
<circle cx="203.426" cy="54" r="2" fill="#F1F1F1"/>
<circle cx="220.426" cy="54" r="2" fill="#F1F1F1"/>
<circle cx="66" cy="173.861" r="2" fill="#F1F1F1"/>
<circle cx="83.2869" cy="173.861" r="2" fill="#F1F1F1"/>
<circle cx="118" cy="71" r="2" fill="#F1F1F1"/>
<circle cx="151.139" cy="342" r="2" fill="#F1F1F1"/>
<circle cx="135.426" cy="71" r="2" fill="#F1F1F1"/>
<circle cx="168.139" cy="342" r="2" fill="#F1F1F1"/>
<circle cx="152.426" cy="71" r="2" fill="#F1F1F1"/>
<circle cx="185.139" cy="342" r="2" fill="#F1F1F1"/>
<circle cx="169.426" cy="71" r="2" fill="#F1F1F1"/>
<circle cx="186.426" cy="71" r="2" fill="#F1F1F1"/>
<circle cx="203.426" cy="71" r="2" fill="#F1F1F1"/>
<circle cx="220.426" cy="71" r="2" fill="#F1F1F1"/>
<circle cx="237.426" cy="71" r="2" fill="#F1F1F1"/>
<circle cx="66" cy="191.148" r="2" fill="#F1F1F1"/>
<circle cx="83.2869" cy="191.148" r="2" fill="#F1F1F1"/>
<circle cx="151" cy="359.435" r="2" fill="#F1F1F1"/>
<circle cx="168.287" cy="359.435" r="2" fill="#F1F1F1"/>
<circle cx="185.574" cy="359.435" r="2" fill="#F1F1F1"/>
<circle cx="66" cy="208.435" r="2" fill="#F1F1F1"/>
<circle cx="83.2869" cy="208.435" r="2" fill="#F1F1F1"/>
<circle cx="66" cy="225.722" r="2" fill="#F1F1F1"/>
<circle cx="83.2869" cy="225.722" r="2" fill="#F1F1F1"/>
<circle cx="66" cy="243.009" r="2" fill="#F1F1F1"/>
<circle cx="83.2869" cy="243.009" r="2" fill="#F1F1F1"/>
<circle cx="66" cy="260.296" r="2" fill="#F1F1F1"/>
<circle cx="83.2869" cy="260.296" r="2" fill="#F1F1F1"/>
<circle cx="66" cy="277.583" r="2" fill="#F1F1F1"/>
<circle cx="83.2869" cy="277.583" r="2" fill="#F1F1F1"/>
</svg>
