<?xml version="1.0" encoding="UTF-8"?>
<svg width="871px" height="545px" viewBox="0 0 871 545" version="1.1" xmlns="http://www.w3.org/2000/svg" xmlns:xlink="http://www.w3.org/1999/xlink">
    <title>Group 3</title>
    <defs>
        <linearGradient x1="65.8678645%" y1="-1.9134131%" x2="235.726244%" y2="70.6289843%" id="linearGradient-1">
            <stop stop-color="#DEE4F0" offset="0%"></stop>
            <stop stop-color="#D8DEF0" offset="100%"></stop>
        </linearGradient>
        <linearGradient x1="65.8678645%" y1="-59.7970963%" x2="235.726244%" y2="93.6303923%" id="linearGradient-2">
            <stop stop-color="#DEE4F0" offset="0%"></stop>
            <stop stop-color="#D8DEF0" offset="100%"></stop>
        </linearGradient>
    </defs>
    <g id="Page-1" stroke="none" stroke-width="1" fill="none" fill-rule="evenodd">
        <g id="Artboard" transform="translate(-2948.000000, -807.000000)">
            <g id="Group-3" transform="translate(2948.020254, 807.705250)">
                <path d="M101.419746,543.99475 L75.7897455,543.99475 C60.6297455,543.99475 41.1697455,533.94475 32.3997455,521.58475 L0.599745515,476.79475 C-0.440254485,475.34475 -0.0902544851,473.33475 1.35974551,472.29475 C2.80974551,471.26475 4.82974551,471.60475 5.85974551,473.06475 L37.6597455,517.85475 C45.2397455,528.52475 62.6997455,537.53475 75.7897455,537.53475 L101.419746,537.53475 C114.709746,537.53475 134.049746,529.77475 143.649746,520.59475 L172.159746,493.32475 C182.769746,483.16475 202.979746,471.88475 217.199746,468.17475 L233.059746,464.04475 C247.049746,460.39475 270.199746,457.42475 284.659746,457.42475 L379.679746,457.42475 C392.829746,457.42475 410.879746,448.74475 419.089746,438.46475 L526.349746,304.25475 C535.769746,292.46875 555.709746,282.87875 570.799746,282.87875 L597.509746,282.87875 C610.599746,282.87875 628.149746,273.90575 635.809746,263.28475 L679.629746,202.57275 C688.489746,190.29275 708.019746,180.30275 723.169746,180.30275 L744.179746,180.30275 C756.729746,180.30275 767.479746,170.10975 768.159746,157.58075 L771.419746,96.7587504 C772.229746,81.6667504 782.809746,62.6127504 795.019746,54.2817504 L815.829746,40.0747504 C817.299746,39.0697504 819.309746,39.4477504 820.319746,40.9207504 C821.319746,42.3927504 820.939746,44.3997504 819.469746,45.4047504 L798.659746,59.6117504 C788.089746,66.8267504 778.569746,83.9957504 777.859746,97.1037504 L774.599746,157.92675 C773.749746,173.82375 760.099746,186.75675 744.179746,186.75675 L723.169746,186.75675 C710.069746,186.75675 692.529746,195.72875 684.859746,206.34975 L641.039746,267.06175 C632.179746,279.34175 612.649746,289.33175 597.509746,289.33175 L570.799746,289.33175 C557.649746,289.33175 539.599746,298.01075 531.389746,308.28375 L424.129746,442.49475 C414.709746,454.28475 394.769746,463.87475 379.679746,463.87475 L284.659746,463.87475 C270.659746,463.87475 248.239746,466.75475 234.689746,470.28475 L218.829746,474.42475 C205.729746,477.84475 186.399746,488.63475 176.619746,497.99475 L148.109746,525.25475 C137.309746,535.58475 116.359746,543.99475 101.419746,543.99475" id="Fill-12" fill="url(#linearGradient-1)"></path>
                <path d="M861.469746,38.9527504 L857.609746,17.0627504 L868.099746,8.57575037 C869.949746,7.02875037 871.979746,2.78375037 870.429746,0.929750366 C868.889746,-0.924249634 864.349746,0.314750366 862.489746,1.86175037 L852.489746,10.4647504 L831.089746,2.54775037 C830.079746,2.41175037 829.059746,2.70675037 828.279746,3.35975037 L826.309746,5.00475037 C825.929746,5.31975037 826.009746,5.91875037 826.449746,6.12775037 L843.379746,18.0727504 L833.149746,28.3677504 L824.579746,26.8677504 C823.929746,26.7537504 823.289746,26.9187504 822.809746,27.3207504 L821.589746,28.3337504 C821.359746,28.5277504 821.429746,28.9167504 821.709746,29.0627504 L830.869746,33.6957504 L831.199746,34.0927504 L834.119746,43.9257504 C834.209746,44.2357504 834.579746,44.3697504 834.809746,44.1757504 L836.029746,43.1627504 C836.509746,42.7597504 836.789746,42.1567504 836.789746,41.4997504 L836.849746,32.6597504 L848.619746,24.5717504 L857.119746,42.8777504 C857.239746,43.3517504 857.819746,43.5357504 858.199746,43.2217504 L860.169746,41.5767504 C860.949746,40.9237504 861.419746,39.9717504 861.469746,38.9527504" id="Fill-33" fill="url(#linearGradient-2)"></path>
            </g>
        </g>
    </g>
</svg>