<svg width="110" height="96" viewBox="0 0 110 96" fill="none" xmlns="http://www.w3.org/2000/svg">
<path fill-rule="evenodd" clip-rule="evenodd" d="M100.241 29.7462L71.1932 8.65164C67.2269 5.77136 61.6676 8.60479 61.6676 13.5065L61.6676 33.5585C61.6676 41.8804 56.5145 49.3327 48.7285 52.2707L11.5787 66.2889C5.81225 68.4648 6.68123 76.879 12.7706 77.8306L77.7105 87.9787C82.077 88.661 86.2928 86.072 87.6591 81.869L102.422 36.456C103.226 33.9832 102.345 31.274 100.241 29.7462ZM75.3064 2.98758C66.7127 -3.25302 54.6676 2.88604 54.6676 13.5066L54.6676 33.5585C54.6676 38.9678 51.3181 43.8117 46.2572 45.7214L9.10742 59.7396C-3.38653 64.4541 -1.50389 82.6849 11.6898 84.7466L76.6297 94.8947C84.3924 96.1078 91.8872 91.505 94.3162 84.033L109.079 38.6201C110.821 33.2623 108.913 27.3925 104.355 24.0821L75.3064 2.98758Z" fill="#2662BC"/>
<path fill-rule="evenodd" clip-rule="evenodd" d="M79.5 71C74.8056 71 71 74.8056 71 79.5C71 84.1944 74.8056 88 79.5 88C84.1944 88 88 84.1944 88 79.5C88 74.8056 84.1944 71 79.5 71ZM64 79.5C64 70.9396 70.9396 64 79.5 64C88.0604 64 95 70.9396 95 79.5C95 88.0604 88.0604 95 79.5 95C70.9396 95 64 88.0604 64 79.5Z" fill="#2B5DC1"/>
<path fill-rule="evenodd" clip-rule="evenodd" d="M31 16.5C26.3056 16.5 22.5 20.3056 22.5 25C22.5 29.6944 26.3056 33.5 31 33.5C35.6944 33.5 39.5 29.6944 39.5 25C39.5 20.3056 35.6944 16.5 31 16.5ZM15.5 25C15.5 16.4396 22.4396 9.5 31 9.5C39.5604 9.5 46.5 16.4396 46.5 25C46.5 33.5604 39.5604 40.5 31 40.5C22.4396 40.5 15.5 33.5604 15.5 25Z" fill="#2B5DC1"/>
</svg>
