<svg width="88" height="97" viewBox="0 0 88 97" fill="none" xmlns="http://www.w3.org/2000/svg">
<path fill-rule="evenodd" clip-rule="evenodd" d="M0.5 15.0583C0.5 -0.553478 21.7853 -5.13919 28.2137 9.08763L45.5703 47.4999H61.6917C86.4656 47.4999 97.0834 78.9556 77.3774 93.9696C70.34 99.3315 60.1442 96.7533 56.5012 88.691L41.0519 54.4999H15C6.99187 54.4999 0.5 48.008 0.5 39.9999V15.0583ZM37.8889 47.4999L21.8347 11.97C18.5096 4.61131 7.5 6.98322 7.5 15.0583V39.9999C7.5 44.142 10.8579 47.4999 15 47.4999H37.8889ZM48.7333 54.4999L62.8802 85.8086C64.6697 89.769 69.6782 91.0355 73.1351 88.4016C87.5115 77.4482 79.7653 54.4999 61.6917 54.4999H48.7333Z" fill="#2662BC"/>
<path fill-rule="evenodd" clip-rule="evenodd" d="M25 69.5C20.3056 69.5 16.5 73.3056 16.5 78C16.5 82.6944 20.3056 86.5 25 86.5C29.6944 86.5 33.5 82.6944 33.5 78C33.5 73.3056 29.6944 69.5 25 69.5ZM9.5 78C9.5 69.4396 16.4396 62.5 25 62.5C33.5604 62.5 40.5 69.4396 40.5 78C40.5 86.5604 33.5604 93.5 25 93.5C16.4396 93.5 9.5 86.5604 9.5 78Z" fill="#2662BC"/>
<path fill-rule="evenodd" clip-rule="evenodd" d="M63 13.5C58.3056 13.5 54.5 17.3056 54.5 22C54.5 26.6944 58.3056 30.5 63 30.5C67.6944 30.5 71.5 26.6944 71.5 22C71.5 17.3056 67.6944 13.5 63 13.5ZM47.5 22C47.5 13.4396 54.4396 6.5 63 6.5C71.5604 6.5 78.5 13.4396 78.5 22C78.5 30.5604 71.5604 37.5 63 37.5C54.4396 37.5 47.5 30.5604 47.5 22Z" fill="#2662BC"/>
</svg>
