<!-- Generator: Adobe Illustrator 17.0.0, SVG Export Plug-In  -->
<svg version="1.1"
	 xmlns="http://www.w3.org/2000/svg" xmlns:xlink="http://www.w3.org/1999/xlink" xmlns:a="http://ns.adobe.com/AdobeSVGViewerExtensions/3.0/"
	 x="0px" y="0px" width="546.558px" height="73.254px" viewBox="0 0 546.558 73.254" enable-background="new 0 0 546.558 73.254"
	 xml:space="preserve">
<defs>
</defs>
<g>
	<g>
		<path fill="#3A5A99" d="M6.44,3.532l0.014,57.455c0.001,4.024,1.309,5.735,4.026,5.734c1.61,0,3.019,1.307,3.02,3.018
			c0,1.71-1.408,3.019-3.018,3.019C3.74,72.76,0.016,68.736,0.014,60.989L0,3.534c0-1.71,1.508-3.22,3.219-3.221
			C5.03,0.313,6.439,1.822,6.44,3.532z"/>
		<path fill="#3A5A99" d="M39.75,24.855C55.85,24.851,58.972,37.63,58.974,44.472c0.001,2.918,0.002,6.44-4.024,6.441L25.57,50.92
			c0.002,9.961,5.739,16.4,15.197,16.397c5.836-0.001,9.257-2.217,12.074-4.33c0.603-0.403,1.006-0.604,1.811-0.604
			c1.61,0,2.918,1.308,2.919,2.917c0,1.107-0.503,1.711-1.106,2.315c-1.51,1.509-6.74,5.636-15.696,5.638
			c-13.382,0.003-21.735-7.34-21.74-24.245C19.025,33.514,26.67,24.859,39.75,24.855z M39.752,30.692
			c-8.754,0.002-13.583,5.638-14.184,14.594l27.067-0.007C52.633,38.034,50.116,30.689,39.752,30.692z"/>
		<path fill="#3A5A99" d="M74.065,36.015c-1.005,1.108-1.71,1.41-2.616,1.41c-1.609,0-2.918-1.308-2.919-2.917
			c0-0.705,0.201-1.208,0.503-1.711c2.816-4.428,8.248-7.951,16.701-7.953c11.671-0.003,18.113,6.838,18.115,17.102l0.007,27.67
			c0,1.71-1.407,3.12-3.118,3.12c-1.71,0-3.12-1.408-3.12-3.118l-0.001-3.622c-2.514,4.729-8.349,7.247-14.386,7.249
			c-10.666,0.003-17.409-5.128-17.411-14.385c-0.002-8.854,6.738-14.188,17.604-14.191l14.188-0.004l-0.001-2.717
			c-0.002-6.842-4.531-11.068-11.875-11.066C80.403,30.883,77.184,32.493,74.065,36.015z M97.615,54.525l-0.001-4.226l-14.188,0.004
			c-6.54,0.002-11.067,2.719-11.065,8.555c0.001,5.233,3.625,8.553,11.472,8.551C90.877,67.406,97.617,63.077,97.615,54.525z"/>
		<path fill="#3A5A99" d="M121.258,37.111c0.003,10.565,26.465,6.634,26.469,22.734c0.002,9.156-7.544,13.284-17.102,13.286
			c-8.25,0.002-14.59-3.921-17.207-7.241c-0.503-0.704-0.705-1.208-0.705-1.911c0-1.611,1.308-2.918,2.917-2.919
			c0.604,0,1.409,0.201,2.213,1.005c3.12,3.118,7.145,4.929,12.78,4.928c5.736-0.001,10.666-1.915,10.664-7.147
			c-0.003-10.364-26.465-6.232-26.469-22.734c-0.002-8.352,6.839-12.177,15.393-12.179c6.841-0.002,12.175,2.311,15.295,6.436
			c0.302,0.403,0.705,1.006,0.705,1.911c0,1.611-1.308,2.918-2.918,2.919c-0.502,0-1.307-0.1-2.113-0.904
			c-2.717-2.616-5.736-4.225-10.968-4.224C125.685,31.073,121.257,32.482,121.258,37.111z"/>
		<path fill="#3A5A99" d="M176.296,24.821c16.099-0.004,19.221,12.775,19.223,19.617c0.001,2.918,0.002,6.44-4.022,6.441
			l-29.381,0.007c0.002,9.961,5.739,16.4,15.197,16.397c5.836-0.001,9.256-2.217,12.073-4.33c0.604-0.403,1.006-0.604,1.812-0.604
			c1.609,0,2.918,1.308,2.919,2.917c0,1.107-0.503,1.711-1.107,2.315c-1.508,1.509-6.74,5.636-15.695,5.638
			c-13.383,0.003-21.735-7.34-21.74-24.245C155.571,33.48,163.216,24.824,176.296,24.821z M176.297,30.658
			c-8.754,0.002-13.581,5.638-14.183,14.594l27.066-0.007C189.178,38,186.661,30.655,176.297,30.658z"/>
		<path fill="#A7A9AC" d="M231.139,38.493l-9.249,31.899c-0.402,1.408-1.711,2.314-3.119,2.315c-1.409,0-2.515-0.805-3.019-2.113
			l-14.802-40.546c-0.201-0.503-0.302-1.006-0.302-1.409c0-1.811,1.408-3.22,3.219-3.221c1.409,0,2.517,0.804,3.02,2.112
			l11.68,33.303l9.551-33.308c0.302-1.007,1.308-2.114,3.018-2.114c1.71,0,2.717,1.106,3.019,2.112l9.567,33.303l11.663-33.309
			c0.503-1.309,1.61-2.114,3.019-2.114c1.811,0,3.22,1.408,3.221,3.219c0,0.403-0.1,0.905-0.302,1.409l-14.782,40.553
			c-0.503,1.309-1.609,2.114-3.018,2.115c-1.408,0-2.717-0.905-3.12-2.313L231.139,38.493z"/>
		<path fill="#A7A9AC" d="M307.616,48.937c0.004,16.502-8.044,24.252-21.125,24.255c-12.98,0.003-21.131-7.743-21.136-24.245
			s8.144-24.151,21.124-24.154C299.56,24.79,307.612,32.435,307.616,48.937z M301.076,48.939
			c-0.003-12.678-5.338-18.311-14.595-18.309c-9.257,0.002-14.588,5.638-14.585,18.316c0.003,12.879,5.337,18.413,14.594,18.411
			C295.747,67.354,301.079,61.818,301.076,48.939z"/>
		<path fill="#A7A9AC" d="M324.115,33.035c2.011-4.629,7.042-8.051,13.985-8.053c1.71,0,3.12,1.408,3.12,3.118
			s-1.408,3.12-3.118,3.121c-9.258,0.002-13.985,6.443-13.983,15.7l0.006,22.539c0,1.811-1.408,3.22-3.219,3.221
			c-1.811,0-3.22-1.408-3.221-3.219l-0.01-40.852c0-1.811,1.408-3.22,3.219-3.221s3.22,1.408,3.221,3.219L324.115,33.035z"/>
		<path fill="#A7A9AC" d="M379.165,71.156l-17.816-22.835l-6.136,4.931l0.004,16.2c0,1.811-1.408,3.22-3.219,3.221
			c-1.811,0-3.22-1.408-3.221-3.219l-0.016-66.007c0-1.811,1.408-3.22,3.219-3.221s3.22,1.408,3.221,3.219l0.01,42.16l23.742-19.426
			c0.804-0.704,1.609-0.805,2.213-0.805c1.811,0,3.22,1.408,3.221,3.219c0,0.805-0.302,1.811-1.308,2.617L366.58,44.395
			l17.917,23.038c0.604,0.703,0.705,1.408,0.705,2.012c0,1.811-1.408,3.22-3.219,3.221
			C380.875,72.666,379.969,72.163,379.165,71.156z"/>
		<path fill="#A7A9AC" d="M399.684,37.041c0.003,10.565,26.465,6.634,26.469,22.734c0.002,9.156-7.544,13.284-17.102,13.286
			c-8.25,0.002-14.59-3.921-17.207-7.241c-0.503-0.704-0.705-1.208-0.705-1.911c0-1.611,1.308-2.918,2.917-2.919
			c0.604,0,1.409,0.201,2.214,1.005c3.12,3.118,7.145,4.929,12.78,4.928c5.736-0.001,10.666-1.915,10.664-7.147
			c-0.003-10.364-26.465-6.232-26.469-22.734c-0.002-8.352,6.839-12.177,15.393-12.179c6.841-0.002,12.175,2.312,15.295,6.436
			c0.302,0.403,0.705,1.006,0.705,1.911c0,1.611-1.308,2.918-2.918,2.919c-0.502,0-1.307-0.1-2.113-0.904
			c-2.717-2.616-5.736-4.225-10.968-4.224C404.11,31.003,399.682,32.412,399.684,37.041z"/>
	</g>
	<g>
		<path fill="#3A5A99" d="M532.367,7.398c-2.352,0.476-4.677,1.036-6.954,1.641c0.099-0.423,0.2-0.824,0.301-1.227
			c2.288-0.606,4.667-1.145,7.11-1.631C532.669,6.575,532.513,6.978,532.367,7.398 M530.712,12.314
			c-2.105,0.383-4.193,0.823-6.26,1.301c0.073-0.431,0.156-0.86,0.247-1.282c2.087-0.476,4.219-0.908,6.406-1.283
			C530.977,11.461,530.848,11.882,530.712,12.314 M529.386,17.273c-1.921,0.294-3.806,0.624-5.655,0.991
			c0.046-0.395,0.101-0.779,0.156-1.154c1.867-0.375,3.798-0.715,5.782-1.008C529.578,16.487,529.477,16.88,529.386,17.273
			 M522.52,9.825c-2.132,0.614-4.217,1.264-6.221,1.923c0.045-0.393,0.091-0.778,0.146-1.152c2.022-0.687,4.146-1.364,6.351-1.998
			C522.704,9.001,522.603,9.404,522.52,9.825 M521.661,14.302c-1.948,0.493-3.871,1.026-5.737,1.575
			c0.028-0.421,0.055-0.834,0.093-1.245c1.893-0.576,3.851-1.117,5.865-1.621C521.798,13.432,521.725,13.863,521.661,14.302
			 M521.022,18.813c-1.82,0.385-3.587,0.788-5.29,1.208c0.01-0.346,0.018-0.695,0.038-1.033c1.719-0.458,3.523-0.898,5.389-1.311
			C521.113,18.052,521.058,18.429,521.022,18.813 M513.525,12.693c-2.15,0.742-4.191,1.501-6.085,2.225
			c-0.008-0.292-0.008-0.585-0.009-0.869c1.921-0.816,3.998-1.639,6.213-2.454C513.608,11.951,513.572,12.318,513.525,12.693
			 M513.225,16.691c-1.949,0.604-3.843,1.228-5.654,1.86c-0.028-0.366-0.047-0.733-0.057-1.089c1.84-0.669,3.761-1.347,5.784-1.988
			C513.271,15.877,513.243,16.28,513.225,16.691 M513.088,20.69c-1.848,0.486-3.606,0.971-5.252,1.449
			c-0.028-0.267-0.055-0.522-0.073-0.779c1.656-0.549,3.44-1.098,5.343-1.639C513.098,20.042,513.098,20.362,513.088,20.69
			 M494.687,26.487c0.942-0.448,4.729-2.214,10.513-4.248c0.018,0.22,0.037,0.439,0.065,0.668
			C499.591,24.647,495.665,26.122,494.687,26.487 M504.906,18.461c0.028,0.328,0.047,0.666,0.065,1.006
			c-9.59,3.461-16.507,6.767-17.742,7.362C488.409,26.142,494.996,22.333,504.906,18.461 M504.787,15.201
			c0.008,0.247,0.018,0.504,0.027,0.761c-6.322,2.545-10.661,4.678-11.594,5.136C494.127,20.559,498.317,18.096,504.787,15.201
			 M542.79,4.714c1.071-1.501,2.315-3.066,3.769-4.714c-2.837,0.092-5.6,0.303-8.291,0.607c-1.079,0.128-2.142,0.266-3.193,0.422
			c-2.664,0.375-5.254,0.86-7.77,1.438c-1.024,0.229-2.041,0.476-3.037,0.732c-2.38,0.616-4.695,1.311-6.938,2.071
			c-0.988,0.33-1.958,0.679-2.909,1.035c-2.361,0.879-4.648,1.831-6.845,2.848c-0.923,0.421-1.838,0.861-2.735,1.3
			c-28.659,14.21-42.646,37.86-42.975,38.4c0.449-0.411,16.653-15.608,43.757-22.908c0.842-0.239,1.693-0.448,2.553-0.66
			c1.601-0.393,3.249-0.76,4.924-1.09c0.86-0.173,1.739-0.329,2.616-0.485c1.601-0.276,3.231-0.523,4.897-0.734
			c0.869-0.11,1.756-0.209,2.644-0.292c1.656-0.184,3.349-0.313,5.06-0.412c0.889-0.047,1.786-0.093,2.691-0.12
			c1.913-0.057,3.863-0.066,5.839-0.03c0.072-2.033,0.274-3.944,0.667-5.839c-1.776,0.156-3.551,0.349-5.317,0.588
			c0.101-0.395,0.2-0.778,0.301-1.162c1.729-0.221,3.486-0.404,5.272-0.542c0.346-1.355,0.795-2.691,1.37-4.054
			c-1.82,0.183-3.659,0.412-5.489,0.714c0.128-0.429,0.265-0.842,0.401-1.253c1.85-0.266,3.735-0.495,5.638-0.679
			c0.64-1.318,1.399-2.645,2.305-4.018c-2.178,0.229-4.375,0.542-6.562,0.927c0.164-0.403,0.33-0.798,0.485-1.181
			C538.159,5.256,540.455,4.944,542.79,4.714"/>
		<path fill="#D1D3D4" d="M466.34,65.429c2.352-0.476,4.677-1.036,6.954-1.64c-0.099,0.421-0.2,0.824-0.301,1.227
			c-2.288,0.604-4.667,1.143-7.11,1.63C466.039,66.253,466.194,65.85,466.34,65.429 M467.995,60.515
			c2.105-0.385,4.193-0.825,6.26-1.301c-0.073,0.429-0.156,0.86-0.247,1.282c-2.087,0.476-4.219,0.906-6.406,1.281
			C467.73,61.365,467.859,60.944,467.995,60.515 M469.322,55.554c1.921-0.294,3.806-0.624,5.655-0.989
			c-0.046,0.393-0.101,0.778-0.156,1.152c-1.867,0.375-3.798,0.715-5.782,1.008C469.13,56.34,469.231,55.947,469.322,55.554
			 M476.187,63.003c2.132-0.614,4.217-1.264,6.221-1.925c-0.045,0.395-0.091,0.779-0.146,1.154
			c-2.022,0.687-4.146,1.364-6.351,1.996C476.003,63.825,476.104,63.422,476.187,63.003 M477.047,58.526
			c1.948-0.495,3.871-1.026,5.738-1.575c-0.028,0.421-0.055,0.832-0.093,1.245c-1.893,0.576-3.851,1.117-5.865,1.62
			C476.909,59.395,476.982,58.966,477.047,58.526 M477.685,54.015c1.82-0.385,3.587-0.788,5.29-1.21
			c-0.01,0.348-0.018,0.696-0.038,1.035c-1.719,0.458-3.523,0.898-5.389,1.309C477.594,54.775,477.649,54.398,477.685,54.015
			 M485.182,60.136c2.15-0.742,4.191-1.501,6.085-2.225c0.008,0.292,0.008,0.585,0.008,0.869c-1.921,0.814-3.998,1.639-6.213,2.454
			C485.099,60.877,485.136,60.51,485.182,60.136 M485.483,56.137c1.949-0.606,3.843-1.228,5.654-1.86
			c0.028,0.366,0.047,0.733,0.057,1.089c-1.84,0.669-3.761,1.345-5.784,1.988C485.437,56.951,485.465,56.548,485.483,56.137
			 M485.619,52.137c1.848-0.485,3.606-0.971,5.252-1.447c0.028,0.265,0.055,0.522,0.073,0.778c-1.656,0.551-3.44,1.1-5.343,1.639
			C485.61,52.786,485.61,52.466,485.619,52.137 M504.022,46.341c-0.943,0.448-4.731,2.214-10.515,4.247
			c-0.018-0.219-0.037-0.438-0.065-0.666C499.117,48.181,503.042,46.706,504.022,46.341 M493.802,54.368
			c-0.028-0.328-0.047-0.666-0.065-1.006c9.59-3.461,16.507-6.767,17.742-7.36C510.299,46.688,503.711,50.496,493.802,54.368
			 M493.92,57.627c-0.008-0.249-0.018-0.504-0.027-0.759c6.322-2.546,10.661-4.679,11.594-5.137
			C504.58,52.271,500.39,54.732,493.92,57.627 M455.918,68.112c-1.071,1.501-2.315,3.066-3.769,4.714
			c2.837-0.092,5.6-0.303,8.291-0.606c1.079-0.128,2.142-0.266,3.193-0.422c2.664-0.375,5.254-0.862,7.77-1.438
			c1.024-0.229,2.041-0.476,3.037-0.734c2.381-0.614,4.695-1.309,6.938-2.069c0.988-0.33,1.958-0.679,2.909-1.035
			c2.361-0.879,4.648-1.831,6.845-2.848c0.923-0.42,1.838-0.859,2.735-1.299c28.659-14.21,42.646-37.861,42.976-38.4
			c-0.449,0.411-16.653,15.606-43.757,22.906c-0.842,0.237-1.693,0.448-2.553,0.659c-1.601,0.393-3.248,0.76-4.924,1.09
			c-0.86,0.174-1.737,0.33-2.616,0.485c-1.601,0.276-3.231,0.523-4.897,0.734c-0.869,0.11-1.756,0.211-2.644,0.292
			c-1.656,0.184-3.349,0.313-5.06,0.414c-0.889,0.045-1.785,0.092-2.691,0.118c-1.913,0.055-3.863,0.066-5.839,0.03
			c-0.072,2.031-0.274,3.944-0.667,5.838c1.775-0.155,3.551-0.347,5.317-0.585c-0.101,0.393-0.2,0.778-0.301,1.161
			c-1.729,0.221-3.486,0.404-5.272,0.542c-0.346,1.355-0.795,2.691-1.372,4.054c1.822-0.183,3.66-0.412,5.491-0.714
			c-0.128,0.431-0.265,0.842-0.401,1.253c-1.848,0.266-3.735,0.495-5.638,0.679c-0.64,1.318-1.399,2.645-2.305,4.018
			c2.178-0.229,4.375-0.54,6.562-0.925c-0.164,0.403-0.33,0.796-0.485,1.181C460.548,67.572,458.252,67.883,455.918,68.112"/>
	</g>
</g>
</svg>