<svg xmlns="http://www.w3.org/2000/svg" width="174.823" height="47" viewBox="0 0 174.823 47"><path d="M787.015,123.619h3.172a.261.261,0,0,0,.263-.258V106.994a.261.261,0,0,0-.263-.258H787.1a.261.261,0,0,0-.264.258v16.453a.174.174,0,0,0,.176.172" transform="translate(-649.362 -88.087)" fill="#333c66"/><path d="M825.324,107.215v-1.854a.261.261,0,0,0-.263-.258h-3.084a.261.261,0,0,0-.264.258v16.368a.261.261,0,0,0,.264.258h3.084a.261.261,0,0,0,.263-.258v-8.612a4.962,4.962,0,0,1,1.093-3.655,4.462,4.462,0,0,1,3.216-1.053h.655a.261.261,0,0,0,.263-.258v-3.134a.262.262,0,0,0-.271-.259,6.2,6.2,0,0,0-2.849.724,5.587,5.587,0,0,0-1.946,1.779.087.087,0,0,1-.161-.045" transform="translate(-678.142 -86.454)" fill="#333c66"/><path d="M546.713,107.979a5.268,5.268,0,1,1-5.373,5.253,5.3,5.3,0,0,1,5.373-5.253m0-3.5a8.77,8.77,0,1,0,8.954,8.755,8.833,8.833,0,0,0-8.954-8.755" transform="translate(-443.8 -86.223)" fill="#333c66"/><path d="M723.334,64.063V61.178a.265.265,0,0,0-.251-.259c-2.376-.1-4.766.408-6.007,1.537a6.582,6.582,0,0,0-1.927,5.128v1.329h-2.828a.261.261,0,0,0-.264.258v2.79a.261.261,0,0,0,.264.258h2.819v13.32a.261.261,0,0,0,.263.258h3.116a.261.261,0,0,0,.264-.258V72.218h4.275a.261.261,0,0,0,.264-.258v-2.79a.261.261,0,0,0-.264-.258h-4.289V67.584c0-2.316,1.814-3.4,4.282-3.265a.262.262,0,0,0,.283-.256" transform="translate(-587.646 -50.264)" fill="#333c66"/><path d="M789.015,63.315a2.209,2.209,0,1,1-2.208-2.159,2.184,2.184,0,0,1,2.208,2.159" transform="translate(-647.513 -50.471)" fill="#333c66"/><path d="M445.358,107.627a8.008,8.008,0,0,0-3.209-2.973,9.282,9.282,0,0,0-4.27-1.015,9.145,9.145,0,0,0-4.219,1.038,8.075,8.075,0,0,0-1.2.766.086.086,0,0,1-.14-.066v-1.183a.261.261,0,0,0-.263-.258h-3.084a.261.261,0,0,0-.264.258v23.283a.26.26,0,0,0,.263.258h3.09a.256.256,0,0,0,.258-.253V118.6a.086.086,0,0,1,.152-.055,8.027,8.027,0,0,0,2.382,1.79,7.728,7.728,0,0,0,3.573.79l.175-.007a8.908,8.908,0,0,0,3.546-1.031A8.194,8.194,0,0,0,445.358,117a9.009,9.009,0,0,0,1.216-4.72,8.64,8.64,0,0,0-1.216-4.649m-7.454,9.917a5.253,5.253,0,1,1,5.2-5.253,5.228,5.228,0,0,1-5.2,5.253" transform="translate(-353.805 -85.531)" fill="#333c66"/><path d="M336.272,77.383a9.876,9.876,0,0,0-4.219-2.639l-2.472-.906c-2.473-.894-3.728-1.674-3.728-3.452,0-1.827,1.95-2.783,3.876-2.783a5.679,5.679,0,0,1,3.027.828,2.384,2.384,0,0,0,2.576-.042l1.351-.916c.305-.207.327-.386.223-.5a9.529,9.529,0,0,0-7.144-3,8.906,8.906,0,0,0-5.646,1.789,6.109,6.109,0,0,0-2.255,4.9c0,3.17,1.826,5.295,5.748,6.686l2.678.94c2.412.867,3.488,1.994,3.488,3.654,0,1.757-1.636,2.984-3.979,2.984a6.637,6.637,0,0,1-4.31-1.525,2.385,2.385,0,0,0-2.86-.169L321.478,84c-.335.227-.382.431-.283.584,1.6,2.455,4.809,3.966,8.465,3.966a8.966,8.966,0,0,0,5.838-1.873,6.275,6.275,0,0,0,2.268-4.979,6.2,6.2,0,0,0-1.495-4.316" transform="translate(-265.038 -52.792)" fill="#333c66"/><path d="M650.656,88.357a.261.261,0,0,0,.264-.258V85.316a.261.261,0,0,0-.263-.258H646.37V80.714a.256.256,0,0,0-.258-.253h-3.126a.256.256,0,0,0-.259.253v4.344h-2.819a.261.261,0,0,0-.264.258V88.1a.26.26,0,0,0,.263.258h2.82v8.814a4.565,4.565,0,0,0,1.3,3.638,5.565,5.565,0,0,0,3.738,1.119h2.9a.261.261,0,0,0,.263-.258V99.233a.261.261,0,0,0-.263-.258H648.4a2.313,2.313,0,0,1-1.568-.42,1.8,1.8,0,0,1-.459-1.384V88.357Z" transform="translate(-527.885 -66.403)" fill="#333c66"/><path d="M881.227,118.708a6.125,6.125,0,0,1-3.576-1.015,5.269,5.269,0,0,1-1.872-3.217H889.1a.265.265,0,0,0,.262-.227,10.07,10.07,0,0,0,.1-1.27,8.135,8.135,0,0,0-1.345-4.562,7.413,7.413,0,0,0-1.055-1.361,8.052,8.052,0,0,0-6.146-2.563,8.772,8.772,0,0,0-6.468,2.513,8.471,8.471,0,0,0-2.52,6.242,8.373,8.373,0,0,0,2.555,6.276A9.213,9.213,0,0,0,881.192,122a8.591,8.591,0,0,0,6.84-2.848.257.257,0,0,0-.026-.36l-.807-.715a2.336,2.336,0,0,0-2.826-.218,5.564,5.564,0,0,1-3.148.846m-3.745-9.854a5.244,5.244,0,0,1,3.4-1.1,5.031,5.031,0,0,1,3.15,1.032,4.033,4.033,0,0,1,1.7,2.681c.005.027.012.052.017.079h-10.01a4.217,4.217,0,0,1,1.736-2.693" transform="translate(-719.586 -86.235)" fill="#333c66"/><path d="M76.59,59.916l-.022-.261-.04-.554-.068-.533c-.019-.172-.046-.349-.082-.529l-.1-.547c-.023-.094-.047-.2-.071-.308-.055-.245-.111-.5-.184-.736a16.058,16.058,0,0,0-.724-2.058,17.058,17.058,0,0,0-.995-1.93,17.407,17.407,0,0,0-1.247-1.772,15.907,15.907,0,0,0-3.152-2.96c-.2-.154-.409-.285-.625-.423-.095-.061-.19-.121-.283-.183s-.2-.114-.305-.177c-.213-.125-.413-.243-.626-.347a15.71,15.71,0,0,0-1.986-.871A16.6,16.6,0,0,0,64,45.14l-.531-.1q-.274-.055-.526-.083l-.546-.07-.536-.039-.274-.023-.263-.006-.54-.013-.541.013-.277.007-.258.022-.551.041-.53.068q-.257.029-.526.083l-.544.1a16.582,16.582,0,0,0-2.073.585,15.652,15.652,0,0,0-1.976.866c-.22.108-.421.226-.633.351-.106.063-.212.125-.32.185-.08.053-.174.114-.269.175-.217.139-.421.27-.619.419a15.928,15.928,0,0,0-3.159,2.965,17.474,17.474,0,0,0-1.25,1.777,17.075,17.075,0,0,0-.992,1.926,15.957,15.957,0,0,0-.721,2.048c-.075.246-.132.5-.186.744-.024.107-.048.214-.073.321l-.1.531q-.055.277-.082.53l-.07.549-.039.54-.022.276-.006.265-.013.552.013.541.006.276.022.263.04.552.068.536c.019.172.046.344.082.53l.1.544c.022.092.045.2.068.3.058.259.113.5.186.746a16,16,0,0,0,.724,2.057,17.039,17.039,0,0,0,.995,1.93,17.39,17.39,0,0,0,1.247,1.772,15.988,15.988,0,0,0,3.152,2.962c.2.149.4.278.615.415.1.063.2.125.293.19s.2.115.306.177c.212.125.413.244.624.346a14.994,14.994,0,0,0,1.986.871c.434.157.847.288,1.253.4V74.126A4.275,4.275,0,0,0,55.062,71l-.017-.012-.453-.342-.363-.274-.076-.058-.061-.044a11.674,11.674,0,0,1-2.311-2.17,13.058,13.058,0,0,1-.916-1.3,12.4,12.4,0,0,1-.729-1.418,11.171,11.171,0,0,1-.526-1.5c-.05-.152-.087-.319-.123-.481-.02-.092-.041-.184-.064-.275l-.071-.4a3.883,3.883,0,0,1-.062-.4l-.05-.379-.028-.408L49.2,61.35l0-.211-.011-.391.011-.408,0-.2.016-.209.027-.388.053-.4a3.9,3.9,0,0,1,.063-.4l.066-.376c.027-.109.048-.2.068-.293.036-.162.073-.33.127-.5a11.308,11.308,0,0,1,.521-1.483,12.763,12.763,0,0,1,.725-1.412,13.359,13.359,0,0,1,.919-1.307A11.7,11.7,0,0,1,54.1,51.2c.129-.1.275-.193.416-.283.078-.05.157-.1.234-.152l.01-.007.01-.006c.085-.046.168-.1.252-.145.14-.083.284-.168.438-.24a11.27,11.27,0,0,1,1.437-.63,12.148,12.148,0,0,1,1.517-.431l.392-.07a3.848,3.848,0,0,1,.4-.063l.379-.051.4-.028.191-.016.209-.005.389-.011.4.011.195,0,.208.016.385.027.4.053a3.851,3.851,0,0,1,.4.064l.374.066a12.17,12.17,0,0,1,1.527.433,11.338,11.338,0,0,1,1.449.636c.142.066.286.152.426.234.084.049.167.1.252.145l.01.006.01.007c.077.052.155.1.234.152.141.09.286.182.425.29a11.667,11.667,0,0,1,2.31,2.169,13.376,13.376,0,0,1,.916,1.3,12.775,12.775,0,0,1,.729,1.418,11.4,11.4,0,0,1,.526,1.5c.05.152.087.319.123.481.02.092.041.184.064.275l.071.4a3.9,3.9,0,0,1,.062.4l.051.382.028.405.015.193.005.211.011.394-.011.406,0,.2-.016.208-.027.39-.053.4a3.9,3.9,0,0,1-.063.4l-.066.376c-.027.109-.048.2-.068.293-.036.162-.073.33-.127.495a11.149,11.149,0,0,1-.522,1.483,12.355,12.355,0,0,1-.725,1.412,13.008,13.008,0,0,1-.92,1.307,11.7,11.7,0,0,1-2.32,2.176c-.018.014-.041.03-.065.046l-.063.049-.363.274-.449.339-.025.018a4.277,4.277,0,0,0-1.675,3.131v2.011c.406-.109.819-.24,1.254-.4a14.95,14.95,0,0,0,1.976-.866c.221-.107.421-.225.634-.351.106-.063.212-.125.32-.186.083-.056.181-.118.279-.181.214-.136.415-.265.61-.411a16.005,16.005,0,0,0,3.158-2.967,17.427,17.427,0,0,0,1.25-1.777A17.017,17.017,0,0,0,75.3,67.09a16,16,0,0,0,.721-2.048c.076-.25.131-.494.189-.754.023-.1.046-.207.071-.311l.1-.529c.037-.189.064-.361.082-.53l.07-.551.039-.538.023-.278.006-.263.013-.552-.013-.541Z" transform="translate(-37.105 -36.98)" fill="#333c66"/><path d="M106.617,99.732a6.075,6.075,0,1,0,6.121,6.075,6.105,6.105,0,0,0-6.121-6.075" transform="translate(-82.937 -82.307)" fill="#e94165"/><path d="M23.68,4.288A19.353,19.353,0,0,1,37.4,9.926a19.087,19.087,0,0,1,0,27.147,19.518,19.518,0,0,1-27.444,0,19.087,19.087,0,0,1,0-27.147A19.353,19.353,0,0,1,23.68,4.288M23.68,0A23.5,23.5,0,1,0,47.36,23.5,23.591,23.591,0,0,0,23.68,0" fill="#333c66"/><path d="M975.484,90v.453h-.7v1.994h-.49V90.453h-.711V90Zm2.339,0h.48v2.446h-.49V90.819l-.749,1.186h-.048l-.747-1.184v1.625h-.49V90h.479l.783,1.24Z" transform="translate(-803.479 -74.275)" fill="#333c66"/></svg>